<svg version="1.1" id="Layer_1" xmlns="http://www.w3.org/2000/svg" xmlns:xlink="http://www.w3.org/1999/xlink" x="0px" y="0px"
	 width="100%" viewBox="0 0 1024 576" enable-background="new 0 0 1024 576" xml:space="preserve">
<path fill="#000000" opacity="1.000000" stroke="none" 
	d="
M691.328369,397.747803 
	C693.872559,405.747314 696.496399,413.297852 696.372681,421.474701 
	C696.205811,432.505859 689.300537,440.758728 678.482056,442.918701 
	C669.789978,444.654144 661.209045,444.085602 652.761780,441.800812 
	C647.165894,440.287262 641.383484,439.233551 636.324951,436.052368 
	C621.515442,426.739227 619.680237,410.311890 632.171021,398.062958 
	C637.665344,392.674988 644.561279,389.713226 651.628235,387.123627 
	C656.800171,385.228455 661.706177,382.782074 666.697693,380.486023 
	C674.138977,377.063110 676.948792,371.246918 677.660400,363.490295 
	C679.546326,342.933563 680.672546,322.337189 681.537415,301.720612 
	C681.641296,299.245575 681.104187,296.942108 678.784302,295.712769 
	C676.339478,294.417206 674.249634,295.681244 672.459656,297.323975 
	C668.266968,301.171814 664.674683,305.490540 661.665222,310.365265 
	C652.290771,325.549988 642.301331,340.290070 629.261536,352.671936 
	C625.411865,356.327362 621.615906,360.971863 615.521484,358.684479 
	C609.028931,356.247711 609.190125,349.995056 608.716003,344.334076 
	C608.486816,341.596985 609.346985,337.797272 606.173096,336.885681 
	C602.890930,335.942932 601.689697,339.763916 600.205811,341.988983 
	C595.276794,349.380005 589.447449,355.554016 580.593689,358.140778 
	C574.112000,360.034546 569.057251,357.369385 566.997681,350.870239 
	C566.546387,349.446228 566.405518,347.912323 565.861633,346.531403 
	C564.379272,342.767151 562.000366,342.076904 558.983276,344.848450 
	C555.277466,348.252625 551.366638,351.330780 547.004700,353.804962 
	C537.513062,359.188843 530.020142,356.135529 527.026245,345.737152 
	C525.782898,341.418640 524.630554,337.071777 523.284851,332.785492 
	C522.111572,329.048462 519.848267,326.064575 515.683533,325.805145 
	C511.829315,325.565063 510.245941,328.842621 509.052734,331.716736 
	C498.758545,356.513336 482.493408,377.805084 468.803864,400.605652 
	C468.632538,400.891022 468.450897,401.173767 468.243805,401.433624 
	C465.759216,404.550781 463.406555,408.556335 458.696167,407.203094 
	C453.758179,405.784515 453.480469,401.217407 453.653290,396.906769 
	C454.309387,380.541748 457.313690,364.538666 461.154541,348.662872 
	C461.896423,345.596466 462.477356,342.478729 462.904724,339.353485 
	C463.144257,337.601807 463.665863,335.310608 461.759552,334.336426 
	C459.630798,333.248596 457.981995,335.122406 456.600708,336.460724 
	C451.095642,341.794464 445.744537,347.287018 440.242157,352.623566 
	C438.339264,354.469116 436.230988,356.124817 434.097321,357.706451 
	C427.720154,362.433472 420.893951,363.790771 413.452209,360.274628 
	C409.445557,358.381531 405.751434,359.032013 402.186340,361.620941 
	C399.228088,363.769196 396.222015,365.936920 392.979919,367.592255 
	C384.708527,371.815430 377.382111,370.019165 371.798279,362.735901 
	C366.274536,355.531036 364.444489,355.361084 357.374451,361.193878 
	C351.966125,365.655731 346.352783,369.855530 339.915497,372.738739 
	C333.687073,375.528381 329.868011,374.789124 325.004517,369.954102 
	C322.478607,367.442993 319.775421,365.334900 316.280334,364.369141 
	C309.154541,362.400146 305.369232,364.024384 301.992706,370.653931 
	C296.711792,381.022675 290.111145,390.674927 285.833099,401.610687 
	C283.841309,406.702148 280.428345,411.210663 276.141785,414.803986 
	C272.811279,417.595856 268.944641,419.364136 264.606079,417.725342 
	C260.521423,416.182495 259.286255,412.348297 258.895447,408.426636 
	C256.563324,385.025452 255.390015,361.629486 258.416626,338.160553 
	C259.109314,332.789398 260.256439,326.997437 257.027710,321.846008 
	C253.720825,322.229889 252.824020,324.677612 251.928833,326.659088 
	C241.330399,350.117920 227.134338,371.526764 214.005997,393.543365 
	C210.475632,399.463898 207.789215,405.655731 207.148880,412.640869 
	C206.353180,421.320892 200.002487,425.492920 193.093918,428.737427 
	C189.436142,430.455231 186.305252,428.872620 184.658676,424.913361 
	C182.517944,419.765839 184.678055,415.185120 186.240738,410.426941 
	C191.373871,394.797363 200.903488,381.885620 210.615631,368.874573 
	C235.279968,335.832581 253.202606,299.417999 263.273193,259.291077 
	C265.913330,248.771271 266.957214,237.992966 268.645508,227.318481 
	C268.723511,226.825317 268.725739,226.319839 268.809723,225.828018 
	C269.852966,219.715164 272.952515,216.151993 277.194214,216.176010 
	C281.549500,216.200668 285.285400,220.178497 286.072693,226.113510 
	C287.074982,233.669052 285.873199,241.069016 283.777283,248.324326 
	C278.858826,265.349976 276.418976,282.771637 275.252502,300.410034 
	C273.912659,320.671173 272.449005,340.924561 271.215240,361.192017 
	C270.902130,366.335541 271.229736,371.520233 271.319611,376.684998 
	C271.352509,378.575775 271.717804,380.607269 273.692169,381.264954 
	C275.745178,381.948822 277.024170,380.222626 278.225403,378.834717 
	C284.119781,372.024323 289.362488,364.721771 294.622620,357.418793 
	C301.388000,348.026031 306.317505,346.410339 317.397430,349.161072 
	C321.630890,350.212006 325.661469,351.754456 329.525055,353.730957 
	C334.315430,356.181580 338.794769,356.091187 343.807404,353.717010 
	C352.682953,349.513245 359.673981,343.438721 365.041168,335.318542 
	C366.047302,333.796265 367.189972,332.341217 368.425476,330.998505 
	C370.786102,328.432983 373.515869,326.336395 377.189209,328.095245 
	C380.943634,329.892883 381.575897,333.255676 380.815735,337.025116 
	C380.084930,340.648865 379.968201,344.316956 380.235474,347.974548 
	C380.657379,353.747620 384.804901,356.202362 390.008514,353.737946 
	C392.560394,352.529327 395.041321,351.110626 397.383942,349.533844 
	C401.504211,346.760468 403.836029,342.969513 403.717285,337.784882 
	C403.641541,334.478760 403.274902,331.106598 404.596375,327.900604 
	C405.754425,325.091064 407.511658,322.987732 410.796417,322.909912 
	C413.908539,322.836182 416.153809,324.275940 417.674896,327.033844 
	C419.750061,330.796326 419.468781,334.762115 418.813782,338.733734 
	C418.327301,341.683594 418.339630,344.542633 420.775360,346.540466 
	C423.376648,348.674164 426.065155,347.265198 428.753906,346.188477 
	C436.182739,343.213562 442.449158,338.523102 447.860931,332.811554 
	C462.100250,317.783447 472.068390,300.447632 476.863525,280.066803 
	C481.739471,259.342529 487.564178,238.843384 492.683472,218.173843 
	C496.683563,202.023331 499.315491,185.595917 501.737244,169.137421 
	C503.310699,158.444183 505.070404,147.777847 506.822937,137.112000 
	C507.090149,135.485779 507.589142,133.840729 508.297241,132.355133 
	C509.999176,128.784439 512.573669,126.225471 516.909668,127.090401 
	C521.108276,127.927902 523.025940,130.999512 523.220093,135.029663 
	C523.478455,140.392532 521.992249,145.591446 521.255615,150.855927 
	C517.960327,174.405655 515.269104,198.077072 509.309418,221.156891 
	C502.655548,246.925262 495.894897,272.667267 488.012115,298.103333 
	C482.593109,315.589417 478.265625,333.383118 473.883972,351.154388 
	C473.685181,351.960632 473.457489,352.780579 473.421783,353.601898 
	C473.343689,355.399628 472.876068,357.503754 474.992218,358.441498 
	C476.999634,359.331116 478.593750,358.087463 479.740662,356.596436 
	C482.785553,352.638062 485.825439,348.665344 488.644531,344.545868 
	C494.593414,335.852783 498.246033,325.889160 503.719238,316.930450 
	C505.275360,314.383331 506.921112,311.819916 508.928040,309.633148 
	C514.100708,303.997192 520.028931,303.995239 525.482300,309.334961 
	C531.235840,314.968628 534.535156,322.021759 537.176086,329.462708 
	C540.320618,338.322174 543.877991,338.999939 550.387878,332.009003 
	C552.923157,329.286407 554.570190,326.027161 556.182617,322.726654 
	C557.793518,319.429199 559.467041,316.171753 562.611023,313.962128 
	C569.053528,309.434265 575.909729,312.153442 577.032043,319.930511 
	C577.696655,324.535980 577.814636,329.222015 578.134521,333.874847 
	C578.314514,336.492584 578.897888,338.867737 581.579346,340.039215 
	C584.172485,341.172150 586.086670,339.498657 587.949951,338.204956 
	C592.059814,335.351532 593.557861,330.882904 594.769470,326.335419 
	C596.543518,319.676758 599.697937,313.960663 605.607971,310.103729 
	C611.360840,306.349335 615.608582,307.712677 618.359131,314.004150 
	C620.695862,319.349030 620.007874,325.158264 621.054016,330.700165 
	C621.456665,332.833344 621.337524,335.257965 623.660828,336.280151 
	C626.090759,337.349243 627.773071,335.488403 629.332642,334.059937 
	C638.442444,325.715698 647.139038,316.994904 653.730652,306.422546 
	C654.958557,304.453156 656.731445,302.467468 655.318420,300.028961 
	C653.919617,297.615112 651.280884,298.118805 648.980896,298.118256 
	C644.936890,298.117310 641.063416,299.101227 637.227478,300.270844 
	C633.595032,301.378448 629.785950,301.693451 628.490784,297.327667 
	C627.219360,293.042053 630.693420,290.692780 634.111572,289.826263 
	C642.815735,287.619659 651.622925,285.751801 660.467041,284.191040 
	C665.674927,283.271942 670.458862,281.688110 674.745422,278.628998 
	C679.750977,275.056763 684.753052,274.399902 690.679321,276.967255 
	C699.194763,280.656219 712.120239,276.925201 717.815613,269.898376 
	C720.796814,266.220245 724.052551,266.021942 728.199219,269.265869 
	C732.424683,272.571350 733.525024,278.165863 730.661682,282.134125 
	C728.487305,285.147461 725.325684,286.669128 721.798401,287.269348 
	C715.565369,288.330017 709.294067,289.165039 703.040833,290.107849 
	C695.916565,291.181946 694.157776,293.451843 694.045288,300.743225 
	C693.926880,308.417358 696.033325,315.855255 695.688904,323.617615 
	C695.199890,334.640991 693.795837,345.482025 691.873230,356.308044 
	C690.823181,362.220764 694.120972,364.925934 699.730530,362.721375 
	C702.654480,361.572235 705.385010,359.901337 708.137512,358.350067 
	C736.732178,342.234222 767.096497,330.491272 798.587769,321.455444 
	C811.554871,317.734772 824.270203,313.209351 836.862671,308.365997 
	C839.231689,307.454773 841.799988,306.647675 843.542297,303.792389 
	C839.463745,302.898376 836.382690,305.184967 832.972656,305.185089 
	C812.285706,305.185944 791.786316,307.784912 771.238403,309.740692 
	C768.458679,310.005280 765.595459,309.585815 762.788452,309.306610 
	C760.829773,309.111816 758.363098,308.991730 758.180847,306.424164 
	C758.011414,304.036896 760.315125,303.191833 762.135254,302.495422 
	C768.704468,299.981903 775.606445,298.841919 782.521240,297.730316 
	C803.016052,294.435760 823.619263,294.259216 844.305786,294.973572 
	C851.256592,295.213593 858.251038,294.051605 865.231934,293.640442 
	C867.552063,293.503815 869.910889,293.543488 872.219482,293.797913 
	C876.339172,294.251923 879.617981,296.127869 880.684631,300.409729 
	C881.756653,304.713104 878.940308,307.256134 875.885498,309.452881 
	C872.866455,311.623962 869.290649,312.583923 865.803345,313.715393 
	C840.463379,321.936981 815.068420,329.994415 789.805664,338.446869 
	C759.117554,348.714600 729.885193,362.556641 700.360168,375.648438 
	C689.539978,380.446228 687.517883,385.875031 691.328369,397.747803 
M664.637573,402.187164 
	C661.504211,404.058258 658.371033,405.929718 655.237366,407.800354 
	C652.661316,409.338135 650.161438,410.955750 648.447998,413.527191 
	C645.411560,418.084015 645.907043,420.705383 650.744812,423.165955 
	C655.790649,425.732391 661.148865,427.618713 666.757935,428.473480 
	C677.468445,430.105713 682.038757,426.024384 681.761841,415.186951 
	C681.703125,412.888214 681.340820,410.562958 680.829102,408.315826 
	C678.040100,396.068329 675.864807,395.179840 664.637573,402.187164 
z"/>
<path fill="#000000" opacity="1.000000" stroke="none" 
	d="
M619.128784,221.813873 
	C616.735474,225.128754 613.935547,227.539154 611.002808,229.694748 
	C607.574951,232.214249 603.731018,233.261246 600.033386,230.097885 
	C596.959412,227.468170 596.965027,223.594162 600.129211,219.343948 
	C602.109131,216.684509 604.287659,214.126816 606.664246,211.819229 
	C610.505188,208.089798 615.160889,207.434830 618.431213,209.818054 
	C621.718689,212.213745 622.027649,216.149902 619.128784,221.813873 
z"/>
</svg>