<svg width="20" height="1395" viewBox="0 0 20 1395" fill="none" xmlns="http://www.w3.org/2000/svg">
<path d="M18.24 912.352C18.24 913.568 17.928 914.616 17.304 915.496C16.68 916.376 15.8 917.056 14.664 917.536C13.512 918 12.176 918.232 10.656 918.232C9.376 918.232 8.288 918.112 7.392 917.872C6.48 917.616 5.728 917.272 5.136 916.84C4.544 916.408 4.08 915.936 3.744 915.424C3.408 914.896 3.176 914.376 3.048 913.864C2.92 913.336 2.856 912.856 2.856 912.424C2.856 911.8 2.968 911.2 3.192 910.624C3.4 910.048 3.688 909.52 4.056 909.04C4.424 908.56 4.872 908.184 5.4 907.912L6.552 909.208L6.72 909.4L6.576 909.52C6.448 909.504 6.328 909.52 6.216 909.568C6.104 909.616 5.944 909.728 5.736 909.904C5.48 910.128 5.272 910.36 5.112 910.6C4.936 910.84 4.808 911.112 4.728 911.416C4.648 911.704 4.608 912.032 4.608 912.4C4.608 912.816 4.664 913.216 4.776 913.6C4.888 913.968 5.088 914.312 5.376 914.632C5.648 914.952 6.008 915.232 6.456 915.472C6.888 915.712 7.432 915.896 8.088 916.024C8.728 916.152 9.48 916.216 10.344 916.216C11.352 916.216 12.24 916.128 13.008 915.952C13.776 915.776 14.424 915.52 14.952 915.184C15.464 914.832 15.856 914.424 16.128 913.96C16.384 913.48 16.512 912.944 16.512 912.352C16.512 912.144 16.504 911.928 16.488 911.704C16.456 911.464 16.408 911.232 16.344 911.008C16.264 910.768 16.168 910.544 16.056 910.336C15.944 910.112 15.816 909.904 15.672 909.712L12.384 909.712L12.384 912.352L10.656 912.352L10.656 907.864L16.68 907.864C17.208 908.568 17.6 909.304 17.856 910.072C18.112 910.824 18.24 911.584 18.24 912.352ZM18 904.816L3.024 904.816L3.024 895.456L4.752 895.456L4.752 902.872L9.312 902.872L9.312 896.752L11.088 896.752L11.088 902.872L16.272 902.872L16.272 895.528L18 895.528L18 904.816ZM18 888.472L4.8 888.472L4.8 892.648L3.024 892.648L3.024 882.112L4.8 882.112L4.8 886.456L18 886.456L18 888.472ZM18 862.792L4.8 862.792L4.8 866.968L3.024 866.968L3.024 856.432L4.8 856.432L4.8 860.776L18 860.776L18 862.792ZM18.264 848.776C18.264 849.944 17.968 850.936 17.376 851.752C16.784 852.552 15.912 853.168 14.76 853.6C13.608 854.016 12.216 854.224 10.584 854.224C8.984 854.224 7.616 854.016 6.48 853.6C5.328 853.168 4.448 852.552 3.84 851.752C3.216 850.936 2.904 849.944 2.904 848.776C2.904 847.608 3.216 846.624 3.84 845.824C4.448 845.024 5.328 844.416 6.48 844C7.616 843.568 8.984 843.352 10.584 843.352C12.216 843.352 13.608 843.568 14.76 844C15.912 844.416 16.784 845.024 17.376 845.824C17.968 846.624 18.264 847.608 18.264 848.776ZM16.56 848.776C16.56 848.072 16.336 847.472 15.888 846.976C15.424 846.464 14.752 846.08 13.872 845.824C12.976 845.552 11.88 845.416 10.584 845.416C9.352 845.416 8.296 845.552 7.416 845.824C6.52 846.08 5.832 846.464 5.352 846.976C4.872 847.472 4.632 848.072 4.632 848.776C4.632 849.48 4.872 850.088 5.352 850.6C5.832 851.112 6.52 851.504 7.416 851.776C8.296 852.032 9.352 852.16 10.584 852.16C11.88 852.16 12.976 852.032 13.872 851.776C14.752 851.504 15.424 851.112 15.888 850.6C16.336 850.088 16.56 849.48 16.56 848.776ZM10.752 824.944L12.048 826.072L18 826.072L18 828.16L3.048 828.16L3.048 826.096L3.048 825.856L3.24 825.856C3.336 825.952 3.44 826.016 3.55199 826.048C3.664 826.064 3.856 826.072 4.128 826.072L9.672 826.072L2.928 820.24C2.94399 820.144 2.95999 820.04 2.97599 819.928C2.992 819.8 3.008 819.68 3.024 819.568C3.024 819.44 3.032 819.312 3.048 819.184C3.048 819.056 3.048 818.936 3.048 818.824L3.04799 818.008L9.432 823.456L18 817.648L18.096 820.12L10.752 824.944ZM3.04799 815.176L3.04799 813.16L13.728 807.28L3.04799 807.328L3.04799 805.456L3.04799 805.216L3.23999 805.216C3.33599 805.312 3.43999 805.376 3.55199 805.408C3.66399 805.424 3.85599 805.432 4.12799 805.432L18 805.432L18 807.16L6.67199 813.304L18 813.304L18 815.176L3.04799 815.176ZM18.264 797.416C18.264 798.584 17.968 799.576 17.376 800.392C16.784 801.192 15.912 801.808 14.76 802.24C13.608 802.656 12.216 802.864 10.584 802.864C8.98399 802.864 7.61599 802.656 6.47999 802.24C5.32799 801.808 4.44799 801.192 3.83999 800.392C3.21599 799.576 2.90399 798.584 2.90399 797.416C2.90399 796.248 3.21599 795.264 3.83999 794.464C4.44799 793.664 5.32799 793.056 6.47999 792.64C7.61599 792.208 8.98399 791.992 10.584 791.992C12.216 791.992 13.608 792.208 14.76 792.64C15.912 793.056 16.784 793.664 17.376 794.464C17.968 795.264 18.264 796.248 18.264 797.416ZM16.56 797.416C16.56 796.712 16.336 796.112 15.888 795.616C15.424 795.104 14.752 794.72 13.872 794.464C12.976 794.192 11.88 794.056 10.584 794.056C9.35199 794.056 8.29599 794.192 7.41599 794.464C6.51999 794.72 5.83199 795.104 5.35199 795.616C4.87199 796.112 4.63199 796.712 4.63199 797.416C4.63199 798.12 4.87199 798.728 5.35199 799.24C5.83199 799.752 6.51999 800.144 7.41599 800.416C8.29599 800.672 9.35199 800.8 10.584 800.8C11.88 800.8 12.976 800.672 13.872 800.416C14.752 800.144 15.424 799.752 15.888 799.24C16.336 798.728 16.56 798.12 16.56 797.416ZM18 787.984L3.04799 790.24L3.04799 788.416L12.912 787.024L4.17599 784.768L4.17599 783.952L12.936 781.696L3.04799 780.52L3.04799 778.84L18 781.072L18 782.056L8.42399 784.48L18 786.952L18 787.984ZM18 764.008L3.04799 764.008L3.04799 762.328L10.224 758.896L3.02399 755.416L3.02399 753.784L18 753.784L18 755.632L7.00799 755.632L12.84 758.56L12.84 759.448L7.05599 762.184L18 762.184L18 764.008ZM18 750.736L3.02399 750.736L3.02399 741.376L4.75199 741.376L4.75199 748.792L9.31199 748.792L9.31199 742.672L11.088 742.672L11.088 748.792L16.272 748.792L16.272 741.448L18 741.448L18 750.736Z" fill="#FAFAFA"/>
<path d="M18.24 436.352C18.24 437.568 17.928 438.616 17.304 439.496C16.68 440.376 15.8 441.056 14.664 441.536C13.512 442 12.176 442.232 10.656 442.232C9.376 442.232 8.288 442.112 7.392 441.872C6.48 441.616 5.728 441.272 5.136 440.84C4.544 440.408 4.08 439.936 3.744 439.424C3.408 438.896 3.176 438.376 3.048 437.864C2.92 437.336 2.856 436.856 2.856 436.424C2.856 435.8 2.968 435.2 3.192 434.624C3.4 434.048 3.688 433.52 4.056 433.04C4.424 432.56 4.872 432.184 5.4 431.912L6.552 433.208L6.72 433.4L6.576 433.52C6.448 433.504 6.328 433.52 6.216 433.568C6.104 433.616 5.944 433.728 5.736 433.904C5.48 434.128 5.272 434.36 5.112 434.6C4.936 434.84 4.808 435.112 4.728 435.416C4.648 435.704 4.608 436.032 4.608 436.4C4.608 436.816 4.664 437.216 4.776 437.6C4.888 437.968 5.088 438.312 5.376 438.632C5.648 438.952 6.008 439.232 6.456 439.472C6.888 439.712 7.432 439.896 8.088 440.024C8.728 440.152 9.48 440.216 10.344 440.216C11.352 440.216 12.24 440.128 13.008 439.952C13.776 439.776 14.424 439.52 14.952 439.184C15.464 438.832 15.856 438.424 16.128 437.96C16.384 437.48 16.512 436.944 16.512 436.352C16.512 436.144 16.504 435.928 16.488 435.704C16.456 435.464 16.408 435.232 16.344 435.008C16.264 434.768 16.168 434.544 16.056 434.336C15.944 434.112 15.816 433.904 15.672 433.712L12.384 433.712L12.384 436.352L10.656 436.352L10.656 431.864L16.68 431.864C17.208 432.568 17.6 433.304 17.856 434.072C18.112 434.824 18.24 435.584 18.24 436.352ZM18 428.816L3.024 428.816L3.024 419.456L4.752 419.456L4.752 426.872L9.312 426.872L9.312 420.752L11.088 420.752L11.088 426.872L16.272 426.872L16.272 419.528L18 419.528L18 428.816ZM18 412.472L4.8 412.472L4.8 416.648L3.024 416.648L3.024 406.112L4.8 406.112L4.8 410.456L18 410.456L18 412.472ZM18 386.792L4.8 386.792L4.8 390.968L3.024 390.968L3.024 380.432L4.8 380.432L4.8 384.776L18 384.776L18 386.792ZM18.264 372.776C18.264 373.944 17.968 374.936 17.376 375.752C16.784 376.552 15.912 377.168 14.76 377.6C13.608 378.016 12.216 378.224 10.584 378.224C8.984 378.224 7.616 378.016 6.48 377.6C5.328 377.168 4.448 376.552 3.84 375.752C3.216 374.936 2.904 373.944 2.904 372.776C2.904 371.608 3.216 370.624 3.84 369.824C4.448 369.024 5.328 368.416 6.48 368C7.616 367.568 8.984 367.352 10.584 367.352C12.216 367.352 13.608 367.568 14.76 368C15.912 368.416 16.784 369.024 17.376 369.824C17.968 370.624 18.264 371.608 18.264 372.776ZM16.56 372.776C16.56 372.072 16.336 371.472 15.888 370.976C15.424 370.464 14.752 370.08 13.872 369.824C12.976 369.552 11.88 369.416 10.584 369.416C9.352 369.416 8.296 369.552 7.416 369.824C6.52 370.08 5.832 370.464 5.352 370.976C4.872 371.472 4.632 372.072 4.632 372.776C4.632 373.48 4.872 374.088 5.352 374.6C5.832 375.112 6.52 375.504 7.416 375.776C8.296 376.032 9.352 376.16 10.584 376.16C11.88 376.16 12.976 376.032 13.872 375.776C14.752 375.504 15.424 375.112 15.888 374.6C16.336 374.088 16.56 373.48 16.56 372.776ZM10.752 348.944L12.048 350.072L18 350.072L18 352.16L3.048 352.16L3.048 350.096L3.048 349.856L3.24 349.856C3.336 349.952 3.44 350.016 3.55199 350.048C3.664 350.064 3.856 350.072 4.128 350.072L9.672 350.072L2.928 344.24C2.94399 344.144 2.95999 344.04 2.97599 343.928C2.992 343.8 3.008 343.68 3.024 343.568C3.024 343.44 3.032 343.312 3.048 343.184C3.048 343.056 3.048 342.936 3.048 342.824L3.04799 342.008L9.432 347.456L18 341.648L18.096 344.12L10.752 348.944ZM3.04799 339.176L3.04799 337.16L13.728 331.28L3.04799 331.328L3.04799 329.456L3.04799 329.216L3.23999 329.216C3.33599 329.312 3.43999 329.376 3.55199 329.408C3.66399 329.424 3.85599 329.432 4.12799 329.432L18 329.432L18 331.16L6.67199 337.304L18 337.304L18 339.176L3.04799 339.176ZM18.264 321.416C18.264 322.584 17.968 323.576 17.376 324.392C16.784 325.192 15.912 325.808 14.76 326.24C13.608 326.656 12.216 326.864 10.584 326.864C8.98399 326.864 7.61599 326.656 6.47999 326.24C5.32799 325.808 4.44799 325.192 3.83999 324.392C3.21599 323.576 2.90399 322.584 2.90399 321.416C2.90399 320.248 3.21599 319.264 3.83999 318.464C4.44799 317.664 5.32799 317.056 6.47999 316.64C7.61599 316.208 8.98399 315.992 10.584 315.992C12.216 315.992 13.608 316.208 14.76 316.64C15.912 317.056 16.784 317.664 17.376 318.464C17.968 319.264 18.264 320.248 18.264 321.416ZM16.56 321.416C16.56 320.712 16.336 320.112 15.888 319.616C15.424 319.104 14.752 318.72 13.872 318.464C12.976 318.192 11.88 318.056 10.584 318.056C9.35199 318.056 8.29599 318.192 7.41599 318.464C6.51999 318.72 5.83199 319.104 5.35199 319.616C4.87199 320.112 4.63199 320.712 4.63199 321.416C4.63199 322.12 4.87199 322.728 5.35199 323.24C5.83199 323.752 6.51999 324.144 7.41599 324.416C8.29599 324.672 9.35199 324.8 10.584 324.8C11.88 324.8 12.976 324.672 13.872 324.416C14.752 324.144 15.424 323.752 15.888 323.24C16.336 322.728 16.56 322.12 16.56 321.416ZM18 311.984L3.04799 314.24L3.04799 312.416L12.912 311.024L4.17599 308.768L4.17599 307.952L12.936 305.696L3.04799 304.52L3.04799 302.84L18 305.072L18 306.056L8.42399 308.48L18 310.952L18 311.984ZM18 288.008L3.04799 288.008L3.04799 286.328L10.224 282.896L3.02399 279.416L3.02399 277.784L18 277.784L18 279.632L7.00799 279.632L12.84 282.56L12.84 283.448L7.05599 286.184L18 286.184L18 288.008ZM18 274.736L3.02399 274.736L3.02399 265.376L4.75199 265.376L4.75199 272.792L9.31199 272.792L9.31199 266.672L11.088 266.672L11.088 272.792L16.272 272.792L16.272 265.448L18 265.448L18 274.736Z" fill="#FAFAFA"/>
<path d="M5.747 703.418L3.733 699.922L2.08 697.053C1.82667 696.622 1.7 696.154 1.7 695.647L1.7 691.828C1.7 690.587 2.14333 689.529 3.03 688.655C3.904 687.768 4.96166 687.325 6.203 687.325L15 687.325L15 689.358L6.203 689.358C5.53167 689.358 4.95533 689.599 4.474 690.08C3.98 690.561 3.733 691.144 3.733 691.828L3.733 698.307C3.733 698.814 3.85967 699.282 4.113 699.713L5.443 702.012C5.69633 702.455 6.03833 702.804 6.469 703.057C6.887 703.298 7.35567 703.418 7.875 703.418L15 703.418L15 705.451L1.7 705.451L1.7 703.418L5.747 703.418ZM1.7 678.908L1.7 672.372C1.7 671.168 1.99766 670.06 2.593 669.047C3.18833 668.021 3.999 667.21 5.025 666.615C6.03833 666.019 7.14666 665.722 8.35 665.722C8.74266 665.722 9.13533 665.76 9.528 665.836C11.086 666.114 12.3907 666.874 13.442 668.116C14.4807 669.344 15 670.763 15 672.372L15 678.908C15 680.529 14.4807 681.954 13.442 683.183C12.3907 684.411 11.086 685.165 9.528 685.444C9.13533 685.52 8.74267 685.558 8.35 685.558C7.14667 685.558 6.03833 685.26 5.025 684.665C3.999 684.069 3.18833 683.265 2.593 682.252C1.99766 681.226 1.7 680.111 1.7 678.908ZM12.967 678.908L12.967 672.372C12.967 671.688 12.8213 671.042 12.53 670.434C12.2387 669.813 11.8397 669.287 11.333 668.857C10.8137 668.426 10.231 668.116 9.585 667.926C9.17966 667.812 8.768 667.755 8.35 667.755C7.704 667.755 7.08966 667.888 6.507 668.154C5.96233 668.394 5.481 668.724 5.063 669.142C4.645 669.56 4.322 670.054 4.094 670.624C3.85333 671.181 3.733 671.764 3.733 672.372L3.733 678.908C3.733 679.832 3.99266 680.681 4.512 681.454C5.01866 682.214 5.68367 682.771 6.507 683.126C7.08967 683.392 7.704 683.525 8.35 683.525C8.768 683.525 9.17967 683.468 9.585 683.354C10.573 683.075 11.3837 682.524 12.017 681.701C12.6503 680.877 12.967 679.946 12.967 678.908ZM11.732 635.653L12.967 637.781L14.62 640.65C14.8733 641.08 15 641.549 15 642.056L15 653.703L1.7 653.703L1.7 639.396C1.7 638.344 2.08 637.445 2.84 636.698C3.58733 635.95 4.48666 635.577 5.538 635.577C5.70266 635.577 5.86733 635.583 6.032 635.596L6.184 635.881L7.533 638.199C7.58366 638.021 7.65333 637.85 7.742 637.686C7.90666 637.369 8.10933 637.078 8.35 636.812C9.11 635.988 10.0473 635.577 11.162 635.577C11.352 635.577 11.5357 635.589 11.713 635.615L11.732 635.653ZM11.162 637.61C10.858 637.61 10.5793 637.679 10.326 637.819C10.06 637.958 9.84466 638.154 9.68 638.408C9.51533 638.648 9.414 638.914 9.376 639.206L9.357 639.206C9.36966 639.269 9.376 639.332 9.376 639.396L9.376 646.559C9.376 647.065 9.49633 647.534 9.737 647.965L11.067 650.264C11.5103 651.011 12.1437 651.461 12.967 651.613L12.967 639.396C12.967 638.902 12.7897 638.484 12.435 638.142C12.0803 637.787 11.656 637.61 11.162 637.61ZM7.704 645.305C7.45066 644.874 7.324 644.412 7.324 643.918L7.324 639.396C7.324 638.902 7.153 638.484 6.811 638.142C6.45633 637.787 6.032 637.61 5.538 637.61C5.044 637.61 4.61966 637.787 4.265 638.142C3.91033 638.484 3.733 638.902 3.733 639.396L3.733 651.67L11.371 651.67L9.376 648.174L7.704 645.305ZM1.7 631.464L15 631.464L15 633.497L1.7 633.497L1.7 631.464ZM2.08 625.665C1.82666 625.247 1.7 624.791 1.7 624.297L1.69999 611.928L3.73299 611.928L3.733 619.68L15 619.68L15 621.713L3.733 621.713L3.733 626.938C3.733 627.432 3.85966 627.894 4.113 628.325L5.101 630.054L4.607 630.054L3.733 628.534L2.08 625.665ZM1.69999 608.493L15 608.493L15 610.526L1.69999 610.526L1.69999 608.493ZM5.747 603.872L3.73299 600.376L2.08 597.507C1.82666 597.077 1.69999 596.608 1.69999 596.101L1.69999 592.282C1.69999 591.041 2.14333 589.983 3.02999 589.109C3.90399 588.223 4.96166 587.779 6.20299 587.779L15 587.779L15 589.812L6.20299 589.812C5.53166 589.812 4.95533 590.053 4.47399 590.534C3.97999 591.016 3.73299 591.598 3.73299 592.282L3.73299 598.761C3.73299 599.268 3.85966 599.737 4.113 600.167L5.443 602.466C5.69633 602.91 6.03833 603.258 6.46899 603.511C6.887 603.752 7.35566 603.872 7.87499 603.872L15 603.872L15 605.905L1.69999 605.905L1.69999 603.872L5.747 603.872ZM1.69999 567.886L3.73299 567.886L3.73299 579.362C3.73299 580.286 3.99266 581.135 4.51199 581.908C5.01866 582.668 5.68366 583.225 6.50699 583.58C7.08966 583.846 7.70399 583.979 8.34999 583.979C8.78066 583.979 9.19233 583.922 9.58499 583.808C10.573 583.529 11.3837 582.978 12.017 582.155C12.6503 581.331 12.967 580.4 12.967 579.362L12.967 571.401C12.967 570.894 12.8403 570.425 12.587 569.995L12.549 569.919L9.37599 569.919L9.37599 577.937C9.37599 578.431 9.49633 578.899 9.73699 579.343L10.744 581.072L10.231 581.072L9.37599 579.552L7.70399 576.683C7.45066 576.252 7.32399 575.783 7.32399 575.277L7.32399 567.886L15 567.886L15 569.919L13.043 569.919L14.62 572.636C14.8733 573.079 15 573.548 15 574.042L15 579.362C15 580.983 14.4807 582.408 13.442 583.637C12.3907 584.865 11.086 585.619 9.52799 585.898C9.13533 585.974 8.74266 586.012 8.34999 586.012C7.14666 586.012 6.03833 585.714 5.02499 585.119C3.99899 584.523 3.18833 583.719 2.59299 582.706C1.99766 581.68 1.69999 580.565 1.69999 579.362L1.69999 567.886ZM9.37599 544.931L9.35699 551.505C9.35699 552.177 9.60399 552.759 10.098 553.253C10.5793 553.735 11.162 553.975 11.846 553.975L12.549 553.975L12.587 553.899C12.8403 553.469 12.967 553 12.967 552.493L12.967 537.882L15 537.882L15 549.833C15 550.34 14.8733 550.809 14.62 551.239L13.043 553.975L12.967 554.108L11.865 556.008L11.846 556.008C11.694 556.008 11.542 556.002 11.39 555.989C10.6553 555.913 9.97766 555.673 9.35699 555.267C8.73633 554.849 8.24233 554.311 7.87499 553.652C7.50766 552.994 7.32399 552.278 7.32399 551.505L7.32399 542.29C7.32399 542.113 7.27966 541.948 7.19099 541.796L7.13399 541.682C6.95666 541.378 6.74766 541.125 6.50699 540.922C6.25366 540.707 5.97499 540.549 5.67099 540.447C5.36699 540.333 5.04399 540.276 4.70199 540.276L3.73299 540.276L3.73299 556.008L1.69999 556.008L1.69999 542.309C1.69999 541.803 1.82666 541.334 2.07999 540.903L3.61899 538.243L5.08199 538.243C5.46199 538.243 5.74699 538.408 5.93699 538.737L6.82999 540.276L6.84899 540.314L7.32399 541.15L8.61599 543.373L8.84399 543.753L9.24299 544.456C9.31899 544.608 9.36333 544.767 9.37599 544.931ZM1.69999 530.247L1.69999 523.711C1.69999 522.508 1.99766 521.4 2.59299 520.386C3.18832 519.36 3.99899 518.55 5.02499 517.954C6.03832 517.359 7.14666 517.061 8.34999 517.061C8.74266 517.061 9.13532 517.099 9.52799 517.175C11.086 517.454 12.3907 518.214 13.442 519.455C14.4807 520.684 15 522.103 15 523.711L15 530.247C15 531.869 14.4807 533.294 13.442 534.522C12.3907 535.751 11.086 536.505 9.52799 536.783C9.13533 536.859 8.74266 536.897 8.34999 536.897C7.14666 536.897 6.03833 536.6 5.02499 536.004C3.99899 535.409 3.18833 534.605 2.59299 533.591C1.99766 532.565 1.69999 531.451 1.69999 530.247ZM12.967 530.247L12.967 523.711C12.967 523.027 12.8213 522.381 12.53 521.773C12.2387 521.153 11.8397 520.627 11.333 520.196C10.8137 519.766 10.231 519.455 9.58499 519.265C9.17966 519.151 8.76799 519.094 8.34999 519.094C7.70399 519.094 7.08966 519.227 6.50699 519.493C5.96232 519.734 5.48099 520.063 5.06299 520.481C4.64499 520.899 4.32199 521.393 4.09399 521.963C3.85332 522.521 3.73299 523.103 3.73299 523.711L3.73299 530.247C3.73299 531.172 3.99266 532.021 4.51199 532.793C5.01866 533.553 5.68366 534.111 6.50699 534.465C7.08966 534.731 7.70399 534.864 8.34999 534.864C8.76799 534.864 9.17966 534.807 9.58499 534.693C10.573 534.415 11.3837 533.864 12.017 533.04C12.6503 532.217 12.967 531.286 12.967 530.247ZM5.74699 513.103L3.73299 509.607L2.07999 506.738C1.82666 506.307 1.69999 505.838 1.69999 505.332L1.69999 501.513C1.69999 500.271 2.14332 499.214 3.02999 498.34C3.90399 497.453 4.96166 497.01 6.20299 497.01L15 497.01L15 499.043L6.20299 499.043C5.53166 499.043 4.95532 499.283 4.47399 499.765C3.97999 500.246 3.73299 500.829 3.73299 501.513L3.73299 507.992C3.73299 508.498 3.85966 508.967 4.11299 509.398L5.44299 511.697C5.69632 512.14 6.03832 512.488 6.46899 512.742C6.88699 512.982 7.35566 513.103 7.87499 513.103L15 513.103L15 515.136L1.69999 515.136L1.69999 513.103L5.74699 513.103ZM1.69999 477.116L3.73299 477.116L3.73299 488.592C3.73299 489.517 3.99266 490.365 4.51199 491.138C5.01866 491.898 5.68366 492.462 6.50699 492.829C7.08966 493.082 7.70399 493.209 8.34999 493.209C8.76799 493.209 9.17966 493.152 9.58499 493.038C10.0663 492.899 10.5097 492.69 10.915 492.411L9.37599 489.713L7.70399 486.844C7.45066 486.413 7.32399 485.951 7.32399 485.457L7.32399 477.116L9.35699 477.116L9.35699 488.098C9.35699 488.605 9.48366 489.073 9.73699 489.504L10.725 491.214C10.877 491.467 11.0987 491.6 11.39 491.613C11.6813 491.626 11.9093 491.518 12.074 491.29C12.6693 490.479 12.967 489.58 12.967 488.592L12.967 480.631C12.967 480.124 12.8403 479.656 12.587 479.225L12.549 479.149L11.371 477.116L11.865 477.116L12.967 478.997L14.62 481.866C14.8733 482.309 15 482.778 15 483.272L15 488.592C15 489.39 14.8607 490.163 14.582 490.91C14.3033 491.645 13.9233 492.303 13.442 492.886C12.948 493.456 12.3653 493.944 11.694 494.349C11.01 494.742 10.288 495.001 9.52799 495.128C9.13532 495.204 8.74266 495.242 8.34999 495.242C7.14666 495.242 6.03832 494.944 5.02499 494.349C3.99899 493.754 3.18832 492.949 2.59299 491.936C1.99766 490.91 1.69999 489.795 1.69999 488.592L1.69999 477.116Z" fill="#BFFF07"/>
<path d="M5.747 227.418L3.733 223.922L2.08 221.053C1.82667 220.622 1.7 220.154 1.7 219.647L1.7 215.828C1.7 214.587 2.14333 213.529 3.03 212.655C3.904 211.768 4.96166 211.325 6.203 211.325L15 211.325L15 213.358L6.203 213.358C5.53167 213.358 4.95533 213.599 4.474 214.08C3.98 214.561 3.733 215.144 3.733 215.828L3.733 222.307C3.733 222.814 3.85967 223.282 4.113 223.713L5.443 226.012C5.69633 226.455 6.03833 226.804 6.469 227.057C6.887 227.298 7.35567 227.418 7.875 227.418L15 227.418L15 229.451L1.7 229.451L1.7 227.418L5.747 227.418ZM1.7 202.908L1.7 196.372C1.7 195.168 1.99766 194.06 2.593 193.047C3.18833 192.021 3.999 191.21 5.025 190.615C6.03833 190.019 7.14666 189.722 8.35 189.722C8.74266 189.722 9.13533 189.76 9.528 189.836C11.086 190.114 12.3907 190.874 13.442 192.116C14.4807 193.344 15 194.763 15 196.372L15 202.908C15 204.529 14.4807 205.954 13.442 207.183C12.3907 208.411 11.086 209.165 9.528 209.444C9.13533 209.52 8.74267 209.558 8.35 209.558C7.14667 209.558 6.03833 209.26 5.025 208.665C3.999 208.069 3.18833 207.265 2.593 206.252C1.99766 205.226 1.7 204.111 1.7 202.908ZM12.967 202.908L12.967 196.372C12.967 195.688 12.8213 195.042 12.53 194.434C12.2387 193.813 11.8397 193.287 11.333 192.857C10.8137 192.426 10.231 192.116 9.585 191.926C9.17966 191.812 8.768 191.755 8.35 191.755C7.704 191.755 7.08966 191.888 6.507 192.154C5.96233 192.394 5.481 192.724 5.063 193.142C4.645 193.56 4.322 194.054 4.094 194.624C3.85333 195.181 3.733 195.764 3.733 196.372L3.733 202.908C3.733 203.832 3.99266 204.681 4.512 205.454C5.01866 206.214 5.68367 206.771 6.507 207.126C7.08967 207.392 7.704 207.525 8.35 207.525C8.768 207.525 9.17967 207.468 9.585 207.354C10.573 207.075 11.3837 206.524 12.017 205.701C12.6503 204.877 12.967 203.946 12.967 202.908ZM11.732 159.653L12.967 161.781L14.62 164.65C14.8733 165.08 15 165.549 15 166.056L15 177.703L1.7 177.703L1.7 163.396C1.7 162.344 2.08 161.445 2.84 160.698C3.58733 159.95 4.48666 159.577 5.538 159.577C5.70266 159.577 5.86733 159.583 6.032 159.596L6.184 159.881L7.533 162.199C7.58366 162.021 7.65333 161.85 7.742 161.686C7.90666 161.369 8.10933 161.078 8.35 160.812C9.11 159.988 10.0473 159.577 11.162 159.577C11.352 159.577 11.5357 159.589 11.713 159.615L11.732 159.653ZM11.162 161.61C10.858 161.61 10.5793 161.679 10.326 161.819C10.06 161.958 9.84466 162.154 9.68 162.408C9.51533 162.648 9.414 162.914 9.376 163.206L9.357 163.206C9.36966 163.269 9.376 163.332 9.376 163.396L9.376 170.559C9.376 171.065 9.49633 171.534 9.737 171.965L11.067 174.264C11.5103 175.011 12.1437 175.461 12.967 175.613L12.967 163.396C12.967 162.902 12.7897 162.484 12.435 162.142C12.0803 161.787 11.656 161.61 11.162 161.61ZM7.704 169.305C7.45066 168.874 7.324 168.412 7.324 167.918L7.324 163.396C7.324 162.902 7.153 162.484 6.811 162.142C6.45633 161.787 6.032 161.61 5.538 161.61C5.044 161.61 4.61966 161.787 4.265 162.142C3.91033 162.484 3.733 162.902 3.733 163.396L3.733 175.67L11.371 175.67L9.376 172.174L7.704 169.305ZM1.7 155.464L15 155.464L15 157.497L1.7 157.497L1.7 155.464ZM2.08 149.665C1.82666 149.247 1.7 148.791 1.7 148.297L1.69999 135.928L3.73299 135.928L3.733 143.68L15 143.68L15 145.713L3.733 145.713L3.733 150.938C3.733 151.432 3.85966 151.894 4.113 152.325L5.101 154.054L4.607 154.054L3.733 152.534L2.08 149.665ZM1.69999 132.493L15 132.493L15 134.526L1.69999 134.526L1.69999 132.493ZM5.747 127.872L3.73299 124.376L2.08 121.507C1.82666 121.077 1.69999 120.608 1.69999 120.101L1.69999 116.282C1.69999 115.041 2.14333 113.983 3.02999 113.109C3.90399 112.223 4.96166 111.779 6.20299 111.779L15 111.779L15 113.812L6.20299 113.812C5.53166 113.812 4.95533 114.053 4.47399 114.534C3.97999 115.016 3.73299 115.598 3.73299 116.282L3.73299 122.761C3.73299 123.268 3.85966 123.737 4.113 124.167L5.443 126.466C5.69633 126.91 6.03833 127.258 6.46899 127.511C6.887 127.752 7.35566 127.872 7.87499 127.872L15 127.872L15 129.905L1.69999 129.905L1.69999 127.872L5.747 127.872ZM1.69999 91.8857L3.73299 91.8857L3.73299 103.362C3.73299 104.286 3.99266 105.135 4.51199 105.908C5.01866 106.668 5.68366 107.225 6.50699 107.58C7.08966 107.846 7.70399 107.979 8.34999 107.979C8.78066 107.979 9.19233 107.922 9.58499 107.808C10.573 107.529 11.3837 106.978 12.017 106.155C12.6503 105.331 12.967 104.4 12.967 103.362L12.967 95.4007C12.967 94.894 12.8403 94.4253 12.587 93.9947L12.549 93.9187L9.37599 93.9187L9.37599 101.937C9.37599 102.431 9.49633 102.899 9.73699 103.343L10.744 105.072L10.231 105.072L9.37599 103.552L7.70399 100.683C7.45066 100.252 7.32399 99.7833 7.32399 99.2767L7.32399 91.8857L15 91.8857L15 93.9187L13.043 93.9187L14.62 96.6357C14.8733 97.079 15 97.5477 15 98.0417L15 103.362C15 104.983 14.4807 106.408 13.442 107.637C12.3907 108.865 11.086 109.619 9.52799 109.898C9.13533 109.974 8.74266 110.012 8.34999 110.012C7.14666 110.012 6.03833 109.714 5.02499 109.119C3.99899 108.523 3.18833 107.719 2.59299 106.706C1.99766 105.68 1.69999 104.565 1.69999 103.362L1.69999 91.8857ZM9.37599 68.9313L9.35699 75.5053C9.35699 76.1766 9.60399 76.7593 10.098 77.2533C10.5793 77.7346 11.162 77.9753 11.846 77.9753L12.549 77.9753L12.587 77.8993C12.8403 77.4686 12.967 77 12.967 76.4933L12.967 61.8823L15 61.8823L15 73.8333C15 74.34 14.8733 74.8086 14.62 75.2393L13.043 77.9753L12.967 78.1083L11.865 80.0083L11.846 80.0083C11.694 80.0083 11.542 80.002 11.39 79.9893C10.6553 79.9133 9.97766 79.6726 9.35699 79.2673C8.73633 78.8493 8.24233 78.311 7.87499 77.6523C7.50766 76.9936 7.32399 76.278 7.32399 75.5053L7.32399 66.2903C7.32399 66.113 7.27966 65.9483 7.19099 65.7963L7.13399 65.6823C6.95666 65.3783 6.74766 65.125 6.50699 64.9223C6.25366 64.707 5.97499 64.5486 5.67099 64.4473C5.36699 64.3333 5.04399 64.2763 4.70199 64.2763L3.73299 64.2763L3.73299 80.0083L1.69999 80.0083L1.69999 66.3093C1.69999 65.8026 1.82666 65.334 2.07999 64.9033L3.61899 62.2433L5.08199 62.2433C5.46199 62.2433 5.74699 62.408 5.93699 62.7373L6.82999 64.2763L6.84899 64.3143L7.32399 65.1503L8.61599 67.3733L8.84399 67.7533L9.24299 68.4563C9.31899 68.6083 9.36333 68.7666 9.37599 68.9313ZM1.69999 54.2474L1.69999 47.7114C1.69999 46.5081 1.99766 45.3997 2.59299 44.3864C3.18832 43.3604 3.99899 42.5497 5.02499 41.9544C6.03832 41.3591 7.14666 41.0614 8.34999 41.0614C8.74266 41.0614 9.13532 41.0994 9.52799 41.1754C11.086 41.4541 12.3907 42.2141 13.442 43.4554C14.4807 44.6841 15 46.1027 15 47.7114L15 54.2474C15 55.8687 14.4807 57.2937 13.442 58.5224C12.3907 59.7511 11.086 60.5047 9.52799 60.7834C9.13533 60.8594 8.74266 60.8974 8.34999 60.8974C7.14666 60.8974 6.03833 60.5997 5.02499 60.0044C3.99899 59.4091 3.18833 58.6047 2.59299 57.5914C1.99766 56.5654 1.69999 55.4507 1.69999 54.2474ZM12.967 54.2474L12.967 47.7114C12.967 47.0274 12.8213 46.3814 12.53 45.7734C12.2387 45.1527 11.8397 44.6271 11.333 44.1964C10.8137 43.7657 10.231 43.4554 9.58499 43.2654C9.17966 43.1514 8.76799 43.0944 8.34999 43.0944C7.70399 43.0944 7.08966 43.2274 6.50699 43.4934C5.96232 43.7341 5.48099 44.0634 5.06299 44.4814C4.64499 44.8994 4.32199 45.3934 4.09399 45.9634C3.85332 46.5207 3.73299 47.1034 3.73299 47.7114L3.73299 54.2474C3.73299 55.1721 3.99266 56.0207 4.51199 56.7934C5.01866 57.5534 5.68366 58.1107 6.50699 58.4654C7.08966 58.7314 7.70399 58.8644 8.34999 58.8644C8.76799 58.8644 9.17966 58.8074 9.58499 58.6934C10.573 58.4147 11.3837 57.8637 12.017 57.0404C12.6503 56.2171 12.967 55.2861 12.967 54.2474ZM5.74699 37.1027L3.73299 33.6067L2.07999 30.7377C1.82666 30.3071 1.69999 29.8384 1.69999 29.3317L1.69999 25.5127C1.69999 24.2714 2.14332 23.2137 3.02999 22.3397C3.90399 21.4531 4.96166 21.0097 6.20299 21.0097L15 21.0097L15 23.0427L6.20299 23.0427C5.53166 23.0427 4.95532 23.2834 4.47399 23.7647C3.97999 24.2461 3.73299 24.8287 3.73299 25.5127L3.73299 31.9917C3.73299 32.4984 3.85966 32.9671 4.11299 33.3977L5.44299 35.6967C5.69632 36.1401 6.03832 36.4884 6.46899 36.7417C6.88699 36.9824 7.35566 37.1027 7.87499 37.1027L15 37.1027L15 39.1357L1.69999 39.1357L1.69999 37.1027L5.74699 37.1027ZM1.69999 1.11614L3.73299 1.11614L3.73299 12.5921C3.73299 13.5168 3.99266 14.3655 4.51199 15.1381C5.01866 15.8981 5.68366 16.4618 6.50699 16.8291C7.08966 17.0825 7.70399 17.2091 8.34999 17.2091C8.76799 17.2091 9.17966 17.1521 9.58499 17.0381C10.0663 16.8988 10.5097 16.6898 10.915 16.4111L9.37599 13.7131L7.70399 10.8441C7.45066 10.4135 7.32399 9.95114 7.32399 9.45714L7.32399 1.11614L9.35699 1.11614L9.35699 12.0981C9.35699 12.6048 9.48366 13.0735 9.73699 13.5041L10.725 15.2141C10.877 15.4675 11.0987 15.6005 11.39 15.6131C11.6813 15.6258 11.9093 15.5181 12.074 15.2901C12.6693 14.4795 12.967 13.5801 12.967 12.5921L12.967 4.63114C12.967 4.12447 12.8403 3.65581 12.587 3.22514L12.549 3.14914L11.371 1.11614L11.865 1.11614L12.967 2.99714L14.62 5.86614C14.8733 6.30947 15 6.77814 15 7.27214L15 12.5921C15 13.3901 14.8607 14.1628 14.582 14.9101C14.3033 15.6448 13.9233 16.3035 13.442 16.8861C12.948 17.4561 12.3653 17.9438 11.694 18.3491C11.01 18.7418 10.288 19.0015 9.52799 19.1281C9.13532 19.2041 8.74266 19.2421 8.34999 19.2421C7.14666 19.2421 6.03832 18.9445 5.02499 18.3491C3.99899 17.7538 3.18832 16.9495 2.59299 15.9361C1.99766 14.9101 1.69999 13.7955 1.69999 12.5921L1.69999 1.11614Z" fill="#BFFF07"/>
<path d="M18.24 1388.35C18.24 1389.57 17.928 1390.62 17.304 1391.5C16.68 1392.38 15.8 1393.06 14.664 1393.54C13.512 1394 12.176 1394.23 10.656 1394.23C9.376 1394.23 8.288 1394.11 7.392 1393.87C6.48 1393.62 5.728 1393.27 5.136 1392.84C4.544 1392.41 4.08 1391.94 3.744 1391.42C3.408 1390.9 3.176 1390.38 3.048 1389.86C2.92 1389.34 2.856 1388.86 2.856 1388.42C2.856 1387.8 2.968 1387.2 3.192 1386.62C3.4 1386.05 3.688 1385.52 4.056 1385.04C4.424 1384.56 4.872 1384.18 5.4 1383.91L6.552 1385.21L6.72 1385.4L6.576 1385.52C6.448 1385.5 6.328 1385.52 6.216 1385.57C6.104 1385.62 5.944 1385.73 5.736 1385.9C5.48 1386.13 5.272 1386.36 5.112 1386.6C4.936 1386.84 4.808 1387.11 4.728 1387.42C4.648 1387.7 4.608 1388.03 4.608 1388.4C4.608 1388.82 4.664 1389.22 4.776 1389.6C4.888 1389.97 5.088 1390.31 5.376 1390.63C5.648 1390.95 6.008 1391.23 6.456 1391.47C6.888 1391.71 7.432 1391.9 8.088 1392.02C8.728 1392.15 9.48 1392.22 10.344 1392.22C11.352 1392.22 12.24 1392.13 13.008 1391.95C13.776 1391.78 14.424 1391.52 14.952 1391.18C15.464 1390.83 15.856 1390.42 16.128 1389.96C16.384 1389.48 16.512 1388.94 16.512 1388.35C16.512 1388.14 16.504 1387.93 16.488 1387.7C16.456 1387.46 16.408 1387.23 16.344 1387.01C16.264 1386.77 16.168 1386.54 16.056 1386.34C15.944 1386.11 15.816 1385.9 15.672 1385.71L12.384 1385.71L12.384 1388.35L10.656 1388.35L10.656 1383.86L16.68 1383.86C17.208 1384.57 17.6 1385.3 17.856 1386.07C18.112 1386.82 18.24 1387.58 18.24 1388.35ZM18 1380.82L3.024 1380.82L3.024 1371.46L4.752 1371.46L4.752 1378.87L9.312 1378.87L9.312 1372.75L11.088 1372.75L11.088 1378.87L16.272 1378.87L16.272 1371.53L18 1371.53L18 1380.82ZM18 1364.47L4.8 1364.47L4.8 1368.65L3.024 1368.65L3.024 1358.11L4.8 1358.11L4.8 1362.46L18 1362.46L18 1364.47ZM18 1338.79L4.8 1338.79L4.8 1342.97L3.024 1342.97L3.024 1332.43L4.8 1332.43L4.8 1336.78L18 1336.78L18 1338.79ZM18.264 1324.78C18.264 1325.94 17.968 1326.94 17.376 1327.75C16.784 1328.55 15.912 1329.17 14.76 1329.6C13.608 1330.02 12.216 1330.22 10.584 1330.22C8.984 1330.22 7.616 1330.02 6.48 1329.6C5.328 1329.17 4.448 1328.55 3.84 1327.75C3.216 1326.94 2.904 1325.94 2.904 1324.78C2.904 1323.61 3.216 1322.62 3.84 1321.82C4.448 1321.02 5.328 1320.42 6.48 1320C7.616 1319.57 8.984 1319.35 10.584 1319.35C12.216 1319.35 13.608 1319.57 14.76 1320C15.912 1320.42 16.784 1321.02 17.376 1321.82C17.968 1322.62 18.264 1323.61 18.264 1324.78ZM16.56 1324.78C16.56 1324.07 16.336 1323.47 15.888 1322.98C15.424 1322.46 14.752 1322.08 13.872 1321.82C12.976 1321.55 11.88 1321.42 10.584 1321.42C9.352 1321.42 8.296 1321.55 7.416 1321.82C6.52 1322.08 5.832 1322.46 5.352 1322.98C4.872 1323.47 4.632 1324.07 4.632 1324.78C4.632 1325.48 4.872 1326.09 5.352 1326.6C5.832 1327.11 6.52 1327.5 7.416 1327.78C8.296 1328.03 9.352 1328.16 10.584 1328.16C11.88 1328.16 12.976 1328.03 13.872 1327.78C14.752 1327.5 15.424 1327.11 15.888 1326.6C16.336 1326.09 16.56 1325.48 16.56 1324.78ZM10.752 1300.94L12.048 1302.07L18 1302.07L18 1304.16L3.048 1304.16L3.048 1302.1L3.048 1301.86L3.24 1301.86C3.336 1301.95 3.44 1302.02 3.55199 1302.05C3.664 1302.06 3.856 1302.07 4.128 1302.07L9.672 1302.07L2.928 1296.24C2.94399 1296.14 2.95999 1296.04 2.97599 1295.93C2.992 1295.8 3.008 1295.68 3.024 1295.57C3.024 1295.44 3.032 1295.31 3.048 1295.18C3.048 1295.06 3.048 1294.94 3.048 1294.82L3.04799 1294.01L9.432 1299.46L18 1293.65L18.096 1296.12L10.752 1300.94ZM3.04799 1291.18L3.04799 1289.16L13.728 1283.28L3.04799 1283.33L3.04799 1281.46L3.04799 1281.22L3.23999 1281.22C3.33599 1281.31 3.43999 1281.38 3.55199 1281.41C3.66399 1281.42 3.85599 1281.43 4.12799 1281.43L18 1281.43L18 1283.16L6.67199 1289.3L18 1289.3L18 1291.18L3.04799 1291.18ZM18.264 1273.42C18.264 1274.58 17.968 1275.58 17.376 1276.39C16.784 1277.19 15.912 1277.81 14.76 1278.24C13.608 1278.66 12.216 1278.86 10.584 1278.86C8.98399 1278.86 7.61599 1278.66 6.47999 1278.24C5.32799 1277.81 4.44799 1277.19 3.83999 1276.39C3.21599 1275.58 2.90399 1274.58 2.90399 1273.42C2.90399 1272.25 3.21599 1271.26 3.83999 1270.46C4.44799 1269.66 5.32799 1269.06 6.47999 1268.64C7.61599 1268.21 8.98399 1267.99 10.584 1267.99C12.216 1267.99 13.608 1268.21 14.76 1268.64C15.912 1269.06 16.784 1269.66 17.376 1270.46C17.968 1271.26 18.264 1272.25 18.264 1273.42ZM16.56 1273.42C16.56 1272.71 16.336 1272.11 15.888 1271.62C15.424 1271.1 14.752 1270.72 13.872 1270.46C12.976 1270.19 11.88 1270.06 10.584 1270.06C9.35199 1270.06 8.29599 1270.19 7.41599 1270.46C6.51999 1270.72 5.83199 1271.1 5.35199 1271.62C4.87199 1272.11 4.63199 1272.71 4.63199 1273.42C4.63199 1274.12 4.87199 1274.73 5.35199 1275.24C5.83199 1275.75 6.51999 1276.14 7.41599 1276.42C8.29599 1276.67 9.35199 1276.8 10.584 1276.8C11.88 1276.8 12.976 1276.67 13.872 1276.42C14.752 1276.14 15.424 1275.75 15.888 1275.24C16.336 1274.73 16.56 1274.12 16.56 1273.42ZM18 1263.98L3.04799 1266.24L3.04799 1264.42L12.912 1263.02L4.17599 1260.77L4.17599 1259.95L12.936 1257.7L3.04799 1256.52L3.04799 1254.84L18 1257.07L18 1258.06L8.42399 1260.48L18 1262.95L18 1263.98ZM18 1240.01L3.04799 1240.01L3.04799 1238.33L10.224 1234.9L3.02399 1231.42L3.02399 1229.78L18 1229.78L18 1231.63L7.00799 1231.63L12.84 1234.56L12.84 1235.45L7.05599 1238.18L18 1238.18L18 1240.01ZM18 1226.74L3.02399 1226.74L3.02399 1217.38L4.75199 1217.38L4.75199 1224.79L9.31199 1224.79L9.31199 1218.67L11.088 1218.67L11.088 1224.79L16.272 1224.79L16.272 1217.45L18 1217.45L18 1226.74Z" fill="#FAFAFA"/>
<path d="M5.747 1179.42L3.733 1175.92L2.08 1173.05C1.82667 1172.62 1.7 1172.15 1.7 1171.65L1.7 1167.83C1.7 1166.59 2.14333 1165.53 3.03 1164.66C3.904 1163.77 4.96166 1163.33 6.203 1163.33L15 1163.33L15 1165.36L6.203 1165.36C5.53167 1165.36 4.95533 1165.6 4.474 1166.08C3.98 1166.56 3.733 1167.14 3.733 1167.83L3.733 1174.31C3.733 1174.81 3.85967 1175.28 4.113 1175.71L5.443 1178.01C5.69633 1178.46 6.03833 1178.8 6.469 1179.06C6.887 1179.3 7.35567 1179.42 7.875 1179.42L15 1179.42L15 1181.45L1.7 1181.45L1.7 1179.42L5.747 1179.42ZM1.7 1154.91L1.7 1148.37C1.7 1147.17 1.99766 1146.06 2.593 1145.05C3.18833 1144.02 3.999 1143.21 5.025 1142.61C6.03833 1142.02 7.14666 1141.72 8.35 1141.72C8.74266 1141.72 9.13533 1141.76 9.528 1141.84C11.086 1142.11 12.3907 1142.87 13.442 1144.12C14.4807 1145.34 15 1146.76 15 1148.37L15 1154.91C15 1156.53 14.4807 1157.95 13.442 1159.18C12.3907 1160.41 11.086 1161.16 9.528 1161.44C9.13533 1161.52 8.74267 1161.56 8.35 1161.56C7.14667 1161.56 6.03833 1161.26 5.025 1160.66C3.999 1160.07 3.18833 1159.26 2.593 1158.25C1.99766 1157.23 1.7 1156.11 1.7 1154.91ZM12.967 1154.91L12.967 1148.37C12.967 1147.69 12.8213 1147.04 12.53 1146.43C12.2387 1145.81 11.8397 1145.29 11.333 1144.86C10.8137 1144.43 10.231 1144.12 9.585 1143.93C9.17966 1143.81 8.768 1143.75 8.35 1143.75C7.704 1143.75 7.08966 1143.89 6.507 1144.15C5.96233 1144.39 5.481 1144.72 5.063 1145.14C4.645 1145.56 4.322 1146.05 4.094 1146.62C3.85333 1147.18 3.733 1147.76 3.733 1148.37L3.733 1154.91C3.733 1155.83 3.99266 1156.68 4.512 1157.45C5.01866 1158.21 5.68367 1158.77 6.507 1159.13C7.08967 1159.39 7.704 1159.52 8.35 1159.52C8.768 1159.52 9.17967 1159.47 9.585 1159.35C10.573 1159.07 11.3837 1158.52 12.017 1157.7C12.6503 1156.88 12.967 1155.95 12.967 1154.91ZM11.732 1111.65L12.967 1113.78L14.62 1116.65C14.8733 1117.08 15 1117.55 15 1118.06L15 1129.7L1.7 1129.7L1.7 1115.4C1.7 1114.34 2.08 1113.44 2.84 1112.7C3.58733 1111.95 4.48666 1111.58 5.538 1111.58C5.70266 1111.58 5.86733 1111.58 6.032 1111.6L6.184 1111.88L7.533 1114.2C7.58366 1114.02 7.65333 1113.85 7.742 1113.69C7.90666 1113.37 8.10933 1113.08 8.35 1112.81C9.11 1111.99 10.0473 1111.58 11.162 1111.58C11.352 1111.58 11.5357 1111.59 11.713 1111.61L11.732 1111.65ZM11.162 1113.61C10.858 1113.61 10.5793 1113.68 10.326 1113.82C10.06 1113.96 9.84466 1114.15 9.68 1114.41C9.51533 1114.65 9.414 1114.91 9.376 1115.21L9.357 1115.21C9.36966 1115.27 9.376 1115.33 9.376 1115.4L9.376 1122.56C9.376 1123.07 9.49633 1123.53 9.737 1123.96L11.067 1126.26C11.5103 1127.01 12.1437 1127.46 12.967 1127.61L12.967 1115.4C12.967 1114.9 12.7897 1114.48 12.435 1114.14C12.0803 1113.79 11.656 1113.61 11.162 1113.61ZM7.704 1121.3C7.45066 1120.87 7.324 1120.41 7.324 1119.92L7.324 1115.4C7.324 1114.9 7.153 1114.48 6.811 1114.14C6.45633 1113.79 6.032 1113.61 5.538 1113.61C5.044 1113.61 4.61966 1113.79 4.265 1114.14C3.91033 1114.48 3.733 1114.9 3.733 1115.4L3.733 1127.67L11.371 1127.67L9.376 1124.17L7.704 1121.3ZM1.7 1107.46L15 1107.46L15 1109.5L1.7 1109.5L1.7 1107.46ZM2.08 1101.66C1.82666 1101.25 1.7 1100.79 1.7 1100.3L1.69999 1087.93L3.73299 1087.93L3.733 1095.68L15 1095.68L15 1097.71L3.733 1097.71L3.733 1102.94C3.733 1103.43 3.85966 1103.89 4.113 1104.32L5.101 1106.05L4.607 1106.05L3.733 1104.53L2.08 1101.66ZM1.69999 1084.49L15 1084.49L15 1086.53L1.69999 1086.53L1.69999 1084.49ZM5.747 1079.87L3.73299 1076.38L2.08 1073.51C1.82666 1073.08 1.69999 1072.61 1.69999 1072.1L1.69999 1068.28C1.69999 1067.04 2.14333 1065.98 3.02999 1065.11C3.90399 1064.22 4.96166 1063.78 6.20299 1063.78L15 1063.78L15 1065.81L6.20299 1065.81C5.53166 1065.81 4.95533 1066.05 4.47399 1066.53C3.97999 1067.02 3.73299 1067.6 3.73299 1068.28L3.73299 1074.76C3.73299 1075.27 3.85966 1075.74 4.113 1076.17L5.443 1078.47C5.69633 1078.91 6.03833 1079.26 6.46899 1079.51C6.887 1079.75 7.35566 1079.87 7.87499 1079.87L15 1079.87L15 1081.91L1.69999 1081.91L1.69999 1079.87L5.747 1079.87ZM1.69999 1043.89L3.73299 1043.89L3.73299 1055.36C3.73299 1056.29 3.99266 1057.14 4.51199 1057.91C5.01866 1058.67 5.68366 1059.23 6.50699 1059.58C7.08966 1059.85 7.70399 1059.98 8.34999 1059.98C8.78066 1059.98 9.19233 1059.92 9.58499 1059.81C10.573 1059.53 11.3837 1058.98 12.017 1058.15C12.6503 1057.33 12.967 1056.4 12.967 1055.36L12.967 1047.4C12.967 1046.89 12.8403 1046.43 12.587 1045.99L12.549 1045.92L9.37599 1045.92L9.37599 1053.94C9.37599 1054.43 9.49633 1054.9 9.73699 1055.34L10.744 1057.07L10.231 1057.07L9.37599 1055.55L7.70399 1052.68C7.45066 1052.25 7.32399 1051.78 7.32399 1051.28L7.32399 1043.89L15 1043.89L15 1045.92L13.043 1045.92L14.62 1048.64C14.8733 1049.08 15 1049.55 15 1050.04L15 1055.36C15 1056.98 14.4807 1058.41 13.442 1059.64C12.3907 1060.87 11.086 1061.62 9.52799 1061.9C9.13533 1061.97 8.74266 1062.01 8.34999 1062.01C7.14666 1062.01 6.03833 1061.71 5.02499 1061.12C3.99899 1060.52 3.18833 1059.72 2.59299 1058.71C1.99766 1057.68 1.69999 1056.57 1.69999 1055.36L1.69999 1043.89ZM9.37599 1020.93L9.35699 1027.51C9.35699 1028.18 9.60399 1028.76 10.098 1029.25C10.5793 1029.73 11.162 1029.98 11.846 1029.98L12.549 1029.98L12.587 1029.9C12.8403 1029.47 12.967 1029 12.967 1028.49L12.967 1013.88L15 1013.88L15 1025.83C15 1026.34 14.8733 1026.81 14.62 1027.24L13.043 1029.98L12.967 1030.11L11.865 1032.01L11.846 1032.01C11.694 1032.01 11.542 1032 11.39 1031.99C10.6553 1031.91 9.97766 1031.67 9.35699 1031.27C8.73633 1030.85 8.24233 1030.31 7.87499 1029.65C7.50766 1028.99 7.32399 1028.28 7.32399 1027.51L7.32399 1018.29C7.32399 1018.11 7.27966 1017.95 7.19099 1017.8L7.13399 1017.68C6.95666 1017.38 6.74766 1017.12 6.50699 1016.92C6.25366 1016.71 5.97499 1016.55 5.67099 1016.45C5.36699 1016.33 5.04399 1016.28 4.70199 1016.28L3.73299 1016.28L3.73299 1032.01L1.69999 1032.01L1.69999 1018.31C1.69999 1017.8 1.82666 1017.33 2.07999 1016.9L3.61899 1014.24L5.08199 1014.24C5.46199 1014.24 5.74699 1014.41 5.93699 1014.74L6.82999 1016.28L6.84899 1016.31L7.32399 1017.15L8.61599 1019.37L8.84399 1019.75L9.24299 1020.46C9.31899 1020.61 9.36333 1020.77 9.37599 1020.93ZM1.69999 1006.25L1.69999 999.711C1.69999 998.508 1.99766 997.4 2.59299 996.386C3.18832 995.36 3.99899 994.55 5.02499 993.954C6.03832 993.359 7.14666 993.061 8.34999 993.061C8.74266 993.061 9.13532 993.099 9.52799 993.175C11.086 993.454 12.3907 994.214 13.442 995.455C14.4807 996.684 15 998.103 15 999.711L15 1006.25C15 1007.87 14.4807 1009.29 13.442 1010.52C12.3907 1011.75 11.086 1012.5 9.52799 1012.78C9.13533 1012.86 8.74266 1012.9 8.34999 1012.9C7.14666 1012.9 6.03833 1012.6 5.02499 1012C3.99899 1011.41 3.18833 1010.6 2.59299 1009.59C1.99766 1008.57 1.69999 1007.45 1.69999 1006.25ZM12.967 1006.25L12.967 999.711C12.967 999.027 12.8213 998.381 12.53 997.773C12.2387 997.153 11.8397 996.627 11.333 996.196C10.8137 995.766 10.231 995.455 9.58499 995.265C9.17966 995.151 8.76799 995.094 8.34999 995.094C7.70399 995.094 7.08966 995.227 6.50699 995.493C5.96232 995.734 5.48099 996.063 5.06299 996.481C4.64499 996.899 4.32199 997.393 4.09399 997.963C3.85332 998.521 3.73299 999.103 3.73299 999.711L3.73299 1006.25C3.73299 1007.17 3.99266 1008.02 4.51199 1008.79C5.01866 1009.55 5.68366 1010.11 6.50699 1010.47C7.08966 1010.73 7.70399 1010.86 8.34999 1010.86C8.76799 1010.86 9.17966 1010.81 9.58499 1010.69C10.573 1010.41 11.3837 1009.86 12.017 1009.04C12.6503 1008.22 12.967 1007.29 12.967 1006.25ZM5.74699 989.103L3.73299 985.607L2.07999 982.738C1.82666 982.307 1.69999 981.838 1.69999 981.332L1.69999 977.513C1.69999 976.271 2.14332 975.214 3.02999 974.34C3.90399 973.453 4.96166 973.01 6.20299 973.01L15 973.01L15 975.043L6.20299 975.043C5.53166 975.043 4.95532 975.283 4.47399 975.765C3.97999 976.246 3.73299 976.829 3.73299 977.513L3.73299 983.992C3.73299 984.498 3.85966 984.967 4.11299 985.398L5.44299 987.697C5.69632 988.14 6.03832 988.488 6.46899 988.742C6.88699 988.982 7.35566 989.103 7.87499 989.103L15 989.103L15 991.136L1.69999 991.136L1.69999 989.103L5.74699 989.103ZM1.69999 953.116L3.73299 953.116L3.73299 964.592C3.73299 965.517 3.99266 966.365 4.51199 967.138C5.01866 967.898 5.68366 968.462 6.50699 968.829C7.08966 969.082 7.70399 969.209 8.34999 969.209C8.76799 969.209 9.17966 969.152 9.58499 969.038C10.0663 968.899 10.5097 968.69 10.915 968.411L9.37599 965.713L7.70399 962.844C7.45066 962.413 7.32399 961.951 7.32399 961.457L7.32399 953.116L9.35699 953.116L9.35699 964.098C9.35699 964.605 9.48366 965.073 9.73699 965.504L10.725 967.214C10.877 967.467 11.0987 967.6 11.39 967.613C11.6813 967.626 11.9093 967.518 12.074 967.29C12.6693 966.479 12.967 965.58 12.967 964.592L12.967 956.631C12.967 956.124 12.8403 955.656 12.587 955.225L12.549 955.149L11.371 953.116L11.865 953.116L12.967 954.997L14.62 957.866C14.8733 958.309 15 958.778 15 959.272L15 964.592C15 965.39 14.8607 966.163 14.582 966.91C14.3033 967.645 13.9233 968.303 13.442 968.886C12.948 969.456 12.3653 969.944 11.694 970.349C11.01 970.742 10.288 971.001 9.52799 971.128C9.13532 971.204 8.74266 971.242 8.34999 971.242C7.14666 971.242 6.03832 970.944 5.02499 970.349C3.99899 969.754 3.18832 968.949 2.59299 967.936C1.99766 966.91 1.69999 965.795 1.69999 964.592L1.69999 953.116Z" fill="#BFFF07"/>
</svg>
