<svg width="186" height="186" viewBox="0 0 186 186" fill="none" xmlns="http://www.w3.org/2000/svg">
<path fill-rule="evenodd" clip-rule="evenodd" d="M92.909 2.90771L81.9918 66.5525L92.909 74.2727V2.90771ZM66.5526 81.9917L2.9082 92.9089H74.2724L66.5526 81.9917ZM74.2728 92.9089H2.9082L66.5522 103.826L74.2627 92.9228L74.2728 92.9089ZM92.9114 111.545L81.9941 119.265L92.9114 182.91V111.545ZM92.9114 74.2727L92.9314 74.2584L103.828 66.5525L92.909 2.90771V74.2727H92.9114ZM111.547 92.9089H182.91L119.265 81.9917L111.545 92.9089H111.547ZM111.557 92.9228L119.268 103.826L182.913 92.9089H111.545L111.557 92.9228ZM92.9114 111.545V182.91L103.828 119.265L92.9291 111.561L92.9114 111.545ZM74.2728 92.9089L74.2631 92.9228H92.8952L92.899 92.9186L92.8898 92.9089H92.9094L29.2685 29.2684L66.5522 81.9917L74.2724 92.9089H74.2728ZM92.8952 92.9228H74.2627L66.5522 103.826L29.2685 156.549L92.8952 92.9228ZM92.9094 111.545L92.9295 111.559V92.929L92.9229 92.9228L92.9137 92.9325L92.909 92.9371V92.9282L92.9033 92.9224H92.8948L29.2685 156.549L81.9922 119.265L92.9094 111.545ZM92.9295 92.929V111.561L103.826 119.267L156.55 156.551L92.9295 92.929ZM92.8952 92.9228H92.9036L92.899 92.9186L92.8952 92.9228ZM92.9094 92.9089L92.9295 92.8885V74.2584L92.9094 74.2727L81.9922 66.5525L29.2685 29.2684L92.9094 92.9089ZM92.9295 92.8885L156.549 29.2684L103.826 66.5525L92.9291 74.2584V92.8885H92.9295ZM92.9295 92.8885V92.9089H92.9384L92.9295 92.917V92.9228H111.555L111.545 92.9089L119.266 81.9917L156.549 29.2684L92.9295 92.8885ZM92.9295 92.8885L92.9094 92.9089H92.9295V92.8885ZM92.9295 92.9228V92.917L92.9237 92.9228H92.9295ZM92.9237 92.9228L92.9299 92.9286V92.9228H92.9229H92.9237ZM92.9295 92.9228V92.929L156.549 156.549L119.265 103.826L111.555 92.9228H92.9291H92.9295ZM92.9094 92.9089H92.8898L92.899 92.9186L92.9036 92.9228L92.9094 92.9286V92.9089ZM92.9295 92.917L92.9384 92.9089H92.9094V92.9286L92.9141 92.9329L92.9233 92.9232L92.9295 92.917ZM92.9094 92.9375L92.9141 92.9329L92.9094 92.9286V92.9375Z" stroke="#BFFF07" stroke-width="1.2"/>
</svg>
