<svg width="1998" height="2000" viewBox="0 0 1998 2000" fill="none" xmlns="http://www.w3.org/2000/svg">
<path d="M197.777 925.841L4.56057 913.906L0 987.642L193.217 999.577L197.777 925.841Z" fill="#FAFAFA"/>
<path d="M23.8182 822.451C29.6752 825.046 35.9837 828.164 42.7438 831.807C49.329 835.421 55.9725 839.225 62.6741 843.217C69.2009 847.181 75.4509 851.188 81.4239 855.238L76.736 883.284C71.6948 881.185 66.4788 879.057 61.088 876.9C55.6971 874.743 50.2917 872.673 44.8716 870.69C39.3059 868.504 33.9733 866.536 28.8737 864.787C23.8034 862.863 19.0535 861.172 14.6241 859.714L20.6264 823.804L23.8182 822.451Z" fill="#FAFAFA"/>
<path d="M120.927 519.651L176.149 646.606L44.6901 690.809L14.9524 757.572L191.808 836.246L221.546 769.482L131.417 729.389L263.605 685.511L264.091 685.727L264.199 685.484L263.605 685.511L207.654 558.231L297.783 598.324L327.628 531.318L150.773 452.645L120.927 519.651Z" fill="#FAFAFA"/>
<path d="M448.142 307.095C449.29 319.801 443.002 333.663 431.534 343.567C414.231 358.511 390.21 359.589 378.212 345.716C366.215 331.843 370.588 308.045 387.891 293.101C399.358 283.196 414.167 279.187 426.582 282.163L437.322 284.829L450.139 209.834L439.089 208.841C405.79 205.288 370.795 217.248 343.03 241.228C292.934 284.495 282.201 354.178 319.063 396.803C355.925 439.427 426.472 438.909 476.568 395.642C504.332 371.662 521.244 338.791 522.549 305.35L523.168 294.279L447.059 296.088L448.142 307.095Z" fill="#FAFAFA"/>
<path d="M626.57 75.9397L550.649 109.374L540.383 325.308L612.653 293.481L614.27 260.244L695.058 224.666L720.694 245.901L792.965 214.074L626.57 75.9397ZM617.273 198.518L618.956 161.476L647.447 185.23L617.273 198.518Z" fill="#FAFAFA"/>
<path d="M922.232 7.25877L922.2 6.99491L795.471 22.1984L795.503 22.4622L770.949 25.4079L793.959 216.962L857.059 209.392L849.263 144.485L937.445 133.906C966.223 130.454 986.9 104.152 983.445 75.3926L980.783 53.2293C977.328 24.4698 951.01 3.80632 922.232 7.25877ZM920.766 57.4853L923.428 79.6486L842.639 89.3408L839.976 67.1775L920.766 57.4853Z" fill="#FAFAFA"/>
<path d="M1218.23 25.236L1026.56 0L1017.6 67.9742L1079.29 76.0969L1063 199.662L1131.02 208.618L1147.31 85.0528L1209.26 93.2102L1218.23 25.236Z" fill="#FAFAFA"/>
<path d="M1405.24 90.5251L1365.41 187.654C1359.66 201.67 1343.81 208.1 1330.03 202.457L1307.64 193.286C1293.61 187.543 1287.08 171.943 1292.83 157.927L1332.66 60.7978L1272.37 36.1091L1223.67 154.877C1209.96 188.318 1225.78 226.105 1259.25 239.81L1331.83 269.537C1365.05 283.141 1403.11 267.423 1416.82 233.981L1465.53 115.214L1405.24 90.5251Z" fill="#FAFAFA"/>
<path d="M1606.66 358.443C1621.74 357.872 1636.84 350.868 1646.94 338.189L1659.37 322.6C1678.09 299.112 1674.2 264.757 1650.7 246.046L1524.24 145.376L1403.62 296.694L1454.58 337.26L1495.01 286.544L1551.37 331.415L1536.94 402.829L1589.36 444.554L1606.66 358.443ZM1606.02 291.003C1602.05 295.991 1590.79 293.483 1581.01 285.701L1528.81 244.141L1544.05 225.019L1596.25 266.578C1606.03 274.361 1610.99 284.767 1607.02 289.756L1606.02 291.003Z" fill="#FAFAFA"/>
<path d="M1638.06 513.547L1787.7 390.816L1740.8 333.709L1591.16 456.44L1638.06 513.547Z" fill="#FAFAFA"/>
<path d="M1906.48 585.862L1818.87 630.018L1864.09 501.867L1831.16 436.616L1658.31 523.732L1691.24 588.983L1779.33 544.587L1733.63 672.978L1766.44 737.992L1939.29 650.875L1906.48 585.862Z" fill="#FAFAFA"/>
<path d="M1855.41 848.212L1862.69 892.799C1853.31 886.519 1847.02 874.352 1844.19 857.041C1837.77 817.7 1858.07 800.12 1879.33 796.655C1904.53 792.548 1924.66 810.268 1929.58 840.43C1932.32 857.215 1929.43 872.496 1921.83 882.081L1919.86 884.827L1967.61 931.433L1969.98 927.815C1987.82 901.751 1994.63 865.907 1988.68 829.45C1977.38 760.209 1925.6 715.337 1867.86 724.748C1809.6 734.245 1775.82 793.064 1787.55 864.928C1798.81 933.906 1845.75 975.529 1902.17 966.331L1927.89 962.139L1907.9 839.656L1855.41 848.212Z" fill="#FAFAFA"/>
<path d="M1974.62 1210.51L1945.56 1186.87L1981.61 1176.68L1997.59 1099.39L1877.02 1130.93L1860.53 1117.49L1805.43 1072.73L1788.59 1154.19L1788.79 1154.5L1843.95 1197.64L1860.51 1210.83L1958.63 1287.8L1974.62 1210.51Z" fill="#FAFAFA"/>
<path d="M1900.35 1442.41C1929.92 1383.8 1913.99 1316.24 1864.84 1291.47C1815.69 1266.7 1752.09 1294.17 1722.51 1352.78C1692.94 1411.39 1708.52 1479.06 1757.67 1503.83C1806.82 1528.61 1870.77 1501.02 1900.35 1442.41ZM1781.87 1382.7C1792.17 1362.29 1813.61 1352.26 1829.99 1360.52C1846.38 1368.78 1851.29 1392.09 1840.99 1412.49C1830.69 1432.9 1809.02 1442.81 1792.63 1434.55C1776.25 1426.29 1771.57 1403.1 1781.87 1382.7Z" fill="#FAFAFA"/>
<path d="M1710.83 1700.83L1633.91 1629.35C1622.81 1619.04 1622.37 1601.94 1632.51 1591.04L1648.99 1573.33C1659.31 1562.24 1676.22 1561.63 1687.32 1571.94L1764.25 1643.42L1808.61 1595.74L1714.55 1508.34C1688.07 1483.73 1647.1 1485.22 1622.48 1511.68L1569.06 1569.09C1544.61 1595.36 1545.92 1636.5 1572.41 1661.11L1666.46 1748.51L1710.83 1700.83Z" fill="#FAFAFA"/>
<path d="M1392.76 1794.11C1388.03 1808.42 1389.31 1825.01 1397.67 1838.91L1407.94 1855.99C1423.41 1881.74 1456.98 1890.1 1482.74 1874.64L1621.33 1791.44L1521.64 1625.6L1465.8 1659.13L1499.21 1714.71L1437.43 1751.8L1375.53 1713.32L1318.09 1747.8L1392.76 1794.11ZM1456.21 1817.09C1452.92 1811.63 1459.21 1801.96 1469.93 1795.53L1527.14 1761.18L1539.74 1782.14L1482.52 1816.49C1471.81 1822.92 1460.32 1823.93 1457.03 1818.46L1456.21 1817.09Z" fill="#FAFAFA"/>
<path d="M1052.63 1969.05C1055.45 1987.16 1072.18 1999.63 1090.31 1996.82L1238.51 1973.82C1256.64 1971.01 1268.81 1954.06 1266 1935.94C1265.83 1934.89 1265.67 1933.84 1265.51 1932.79L1263.59 1920.45C1259.47 1893.93 1238.78 1887.19 1208.61 1880.04L1121.45 1862.9L1251.52 1842.72L1246.46 1810.16C1243.64 1792.04 1226.95 1779.84 1208.82 1782.65L1060.61 1805.64C1042.48 1808.46 1030.28 1825.14 1033.09 1843.26C1033.21 1844.05 1033.34 1844.84 1033.46 1845.63L1035.42 1858.23C1039.5 1884.49 1060.45 1891.19 1090.36 1898.38L1179.74 1915.98L1047.57 1936.48L1052.63 1969.05Z" fill="#FAFAFA"/>
<path d="M858.658 1876.97C867.286 1867.57 881.776 1862.88 896.825 1864.69C919.531 1867.41 936.501 1884.44 934.314 1902.64C932.127 1920.85 911.575 1933.64 888.87 1930.91C873.821 1929.11 860.884 1920.86 854.728 1909.69L849.469 1899.96L785.352 1940.98L792.058 1949.81C811.848 1976.81 844.258 1994.62 880.693 1998.99C946.433 2006.87 1005.22 1967.89 1011.94 1911.95C1018.65 1856.02 970.775 1804.24 905.034 1796.35C868.599 1791.98 832.893 1801.61 807.271 1823.16L798.664 1830.16L851.244 1885.18L858.658 1876.97Z" fill="#FAFAFA"/>
<path d="M583.043 1783.15C568.645 1787.65 555.906 1798.36 549.476 1813.24L541.57 1831.54C529.659 1859.11 542.42 1891.25 570.007 1903.15L718.437 1967.2L795.178 1789.59L735.366 1763.78L709.645 1823.31L643.487 1794.76L638.691 1722.06L577.171 1695.52L583.043 1783.15ZM601.337 1848.07C603.867 1842.21 615.391 1841.69 626.865 1846.64L688.141 1873.08L678.443 1895.52L617.167 1869.08C605.693 1864.13 598.175 1855.39 600.705 1849.53L601.337 1848.07Z" fill="#FAFAFA"/>
<path d="M330.586 1676.37L297.521 1716.63L454.769 1845.6L577.58 1696.06L420.332 1567.09L387.268 1607.35L479.561 1683.04L467.752 1697.42L375.459 1621.73L342.394 1661.99L434.688 1737.69L422.879 1752.07L330.586 1676.37Z" fill="#FAFAFA"/>
<path d="M173.331 1471.98L130.74 1502L247.987 1668.13L406.183 1556.62L288.936 1390.49L246.345 1420.51L315.16 1518.02L299.949 1528.74L231.134 1431.23L188.542 1461.25L257.358 1558.76L242.147 1569.48L173.331 1471.98Z" fill="#FAFAFA"/>
<path d="M41.9397 1287.37L134.922 1256.05L72.0087 1376.52L95.3673 1445.77L278.811 1383.97L255.452 1314.72L161.967 1346.21L225.383 1225.58L202.11 1156.58L18.666 1218.37L41.9397 1287.37Z" fill="#FAFAFA"/>
</svg>
