<svg width="1992" height="2000" viewBox="0 0 1992 2000" fill="none" xmlns="http://www.w3.org/2000/svg">
<g opacity="0.9">
<path d="M67.9088 938.314L30.7131 831.488C28.1172 824.245 27.552 816.793 29.0174 809.131L40.0629 751.382C43.6532 732.611 53.4348 717.896 69.4078 707.237C85.2253 696.35 102.546 692.697 121.369 696.277L254.764 721.65L248.884 752.392L115.489 727.02C105.309 725.083 95.8736 727.06 87.1827 732.951C78.2997 738.804 72.8689 746.903 70.8906 757.246L52.1516 855.218C50.6862 862.88 51.2515 870.332 53.8473 877.575L67.3657 916.176C69.9249 923.611 74.1034 929.864 79.9012 934.937C85.5435 939.782 92.3022 942.954 100.177 944.451L208.218 965.002L202.338 995.744L0.66148 957.383L6.54149 926.641L67.9088 938.314Z" fill="#0B0B0B"/>
<path d="M140.857 508.517L196.263 424.428C206.463 408.947 219.699 397.204 235.97 389.2C252.348 381.033 269.678 377.456 287.961 378.47C306.081 379.377 322.904 384.917 338.428 395.089C343.494 398.409 348.238 402.217 352.659 406.514C370.397 423.27 380.786 444.077 383.827 468.934C386.812 493.522 381.486 516.164 367.849 536.86L312.443 620.949C298.699 641.808 279.919 655.751 256.103 662.778C232.125 669.698 208.904 668.365 186.441 658.779C180.731 656.438 175.343 653.607 170.278 650.288C154.753 640.115 142.977 626.916 134.951 610.691C126.761 594.358 123.121 577.157 124.03 559.088C125.047 540.855 130.656 523.998 140.857 508.517ZM286.215 603.763L341.621 519.674C347.419 510.874 351.016 501.332 352.411 491.047C353.914 480.599 353.223 470.463 350.337 460.639C347.288 450.708 342.401 441.79 335.678 433.885C331.415 428.992 326.587 424.778 321.194 421.245C312.86 415.784 303.807 412.301 294.035 410.798C284.968 409.29 275.966 409.458 267.03 411.302C258.094 413.146 249.739 416.772 241.966 422.177C234.137 427.313 227.645 433.792 222.491 441.614L167.085 525.703C159.246 537.599 155.402 550.713 155.552 565.043C155.646 579.104 159.501 591.896 167.117 603.419C172.379 611.767 179.177 618.671 187.511 624.132C192.904 627.666 198.698 630.413 204.894 632.372C220.003 637.139 235.132 636.904 250.282 631.665C265.433 626.426 277.41 617.126 286.215 603.763Z" fill="#0B0B0B"/>
<path d="M721.377 188.58L664.483 286.399C660.674 293.087 654.872 298.67 647.078 303.146C631.659 312.002 615.211 314.585 597.736 310.895C580.164 307.037 566.224 297.941 555.916 283.61L555.662 283.756L498.768 381.575C494.959 388.263 489.157 393.846 481.363 398.322C464.757 407.859 447.157 410.204 428.563 405.357C410.04 400.244 395.997 389.408 386.433 372.849L318.659 255.497L345.854 239.878L413.629 357.229C418.801 366.185 426.51 372.109 436.754 375C447.071 377.626 456.72 376.36 465.7 371.202L502.808 349.89C509.416 346.094 514.71 340.804 518.688 334.018L539.196 298.613C543.174 291.828 545.163 284.722 545.162 277.297C545.233 269.606 543.268 262.296 539.267 255.368L484.374 160.321L511.569 144.702L579.344 262.053C584.516 271.009 592.225 276.933 602.469 279.825C612.617 282.547 622.265 281.281 631.415 276.026L668.523 254.714C675.131 250.918 680.425 245.628 684.403 238.842L704.911 203.437C707.539 199.002 709.282 194.401 710.139 189.634C711.068 184.6 711.123 179.617 710.306 174.686C709.392 169.586 707.617 164.755 704.982 160.192L650.089 65.1454L677.284 49.5261L779.752 226.947L752.556 242.566L721.377 188.58Z" fill="#0B0B0B"/>
<path d="M1266.46 186.887L1162.15 231.256C1155.09 234.338 1147.09 235.344 1138.16 234.275C1120.49 232.16 1105.77 224.408 1093.99 211.018C1082.23 197.434 1076.53 181.825 1076.88 164.192L1076.59 164.157L972.284 208.526C965.217 211.608 957.218 212.614 948.288 211.545C929.262 209.268 913.758 200.636 901.776 185.651C890.012 170.495 885.272 153.43 887.556 134.457L903.741 -0.00010861L934.901 3.73012L918.715 138.187C917.48 148.448 920.097 157.796 926.565 166.229C933.251 174.493 941.739 179.24 952.028 180.472L994.545 185.562C1002.12 186.468 1009.53 185.392 1016.79 182.334L1054.48 166.224C1061.74 163.165 1067.6 158.662 1072.06 152.715C1076.73 146.597 1079.55 139.569 1080.5 131.632L1093.61 22.7299L1124.77 26.4601L1108.59 160.917C1107.35 171.178 1109.97 180.526 1116.44 188.959C1122.93 197.199 1131.42 201.947 1141.9 203.202L1184.42 208.292C1191.99 209.198 1199.4 208.122 1206.67 205.064L1244.35 188.953C1249.12 186.971 1253.28 184.327 1256.82 181.02C1260.59 177.543 1263.63 173.586 1265.93 169.149C1268.26 164.518 1269.74 159.589 1270.37 154.361L1283.48 45.4598L1314.64 49.19L1290.17 252.473L1259.01 248.743L1266.46 186.887Z" fill="#0B0B0B"/>
<path d="M1548.33 299.316L1541.25 298.85L1540.44 299.015L1445.49 293.134C1437.62 292.617 1430.51 290.259 1424.15 286.059L1360.58 244.066L1330.77 288.935L1304.61 271.654L1379.6 158.75C1390.18 142.818 1404.82 132.958 1423.52 129.171C1442.49 125.328 1459.96 128.683 1475.94 139.235L1651.27 255.039L1537.89 425.735L1511.73 408.454L1582.83 301.402L1548.33 299.316ZM1405.76 176.031L1377.9 217.974L1475.47 282.417C1481.99 286.724 1489.11 289.082 1496.81 289.492L1552.54 292.975L1561.98 293.596C1570.12 294.058 1577.51 292.63 1584.17 289.311C1590.94 285.83 1596.54 280.756 1600.97 274.091L1607.77 263.849L1458.61 165.327C1449.97 159.62 1440.36 157.837 1429.79 159.978C1419.5 162.064 1411.48 167.415 1405.76 176.031Z" fill="#0B0B0B"/>
<path d="M1747.25 369.548C1754.19 372.508 1759.88 377.079 1764.32 383.261L1875.51 538.057L1849.99 556.282L1780.31 459.267L1638.91 560.269L1620.64 534.826L1762.03 433.824L1715.06 368.434C1710.62 362.252 1704.88 357.602 1697.83 354.483L1669.89 341.702L1676.08 337.273L1747.25 369.548Z" fill="#0B0B0B"/>
<path d="M1982.18 873.162L1951.89 881.348L1905.56 710.835C1901.82 697.096 1894.53 685.531 1883.67 676.142C1873.05 666.89 1860.89 661.286 1847.19 659.332C1837.44 657.726 1827.75 658.223 1818.12 660.824C1811.71 662.558 1805.8 665.063 1800.41 668.338C1786.82 676.456 1776.96 687.907 1770.85 702.691C1764.74 717.474 1763.78 732.582 1767.97 748.015L1800.12 866.302C1802.16 873.83 1805.94 880.284 1811.46 885.663L1812.33 886.639L1838.09 912.102L1830.73 914.092L1806.72 890.58L1770.5 854.608C1764.94 849.041 1761.16 842.587 1759.16 835.247L1737.68 756.201C1734.46 744.344 1733.42 732.303 1734.55 720.077C1735.74 708.039 1738.74 696.722 1743.56 686.126C1748.62 675.668 1755.33 666.076 1763.7 657.35C1772.3 648.762 1782.01 641.997 1792.82 637.054C1798.37 634.344 1804.06 632.199 1809.91 630.617C1827.84 625.772 1845.56 625.732 1863.06 630.498C1880.75 635.212 1896.08 643.899 1909.04 656.558C1922.05 669.406 1930.99 684.769 1935.85 702.649L1982.18 873.162Z" fill="#0B0B0B"/>
<path d="M1991 963.609L1987.62 994.724L1839.49 978.717L1864.09 1034.63L1884.98 1081.31C1888.16 1088.32 1889.32 1095.7 1888.48 1103.46L1877.99 1200L1964.3 1209.32L1960.92 1240.44L1756.8 1218.38L1760.18 1187.27L1846.49 1196.59L1861.41 1059.34C1862.23 1051.78 1861.15 1044.51 1858.18 1037.52L1841.62 999.835C1836.06 987.662 1827.09 979.73 1814.7 976.038L1783.5 972.667L1786.88 941.552L1991 963.609Z" fill="#0B0B0B"/>
<path d="M1829.26 1435.6L1811.91 1547.35C1810.8 1554.96 1807.43 1562.26 1801.8 1569.26C1790.66 1583.09 1776.26 1591.32 1758.61 1593.95C1740.98 1596.84 1724.7 1593.56 1709.75 1584.09L1709.56 1584.32L1692.39 1695.84C1691.16 1703.61 1687.73 1710.99 1682.1 1717.98C1670.23 1732.73 1654.67 1741.16 1635.43 1743.26C1616.34 1745.49 1599.32 1740.62 1584.38 1728.66L1478.47 1643.89L1498.11 1619.49L1604.02 1704.25C1612.1 1710.72 1621.43 1713.31 1632 1712.01C1642.59 1710.99 1651.14 1706.45 1657.62 1698.39L1684.43 1665.09C1689.32 1659.01 1692.33 1652.16 1693.44 1644.55L1699.64 1604.13C1700.87 1596.37 1700.12 1588.89 1697.38 1581.7C1694.68 1574.78 1690.2 1568.82 1683.94 1563.82L1598.16 1495.17L1617.81 1470.76L1723.72 1555.52C1731.8 1561.99 1741.12 1564.58 1751.69 1563.29C1762.29 1562.27 1770.83 1557.73 1777.32 1549.67L1804.12 1516.36C1809.02 1510.28 1812.02 1503.43 1813.13 1495.82L1819.33 1455.4C1820.17 1450.32 1820.1 1445.27 1819.13 1440.24C1818.31 1435.33 1816.55 1430.67 1813.84 1426.25C1811.16 1422.11 1807.76 1418.39 1803.64 1415.09L1717.86 1346.44L1737.51 1322.03L1897.63 1450.18L1877.98 1474.59L1829.26 1435.6Z" fill="#0B0B0B"/>
<path d="M1538.77 1779.07L1559.02 1820.64L1530.79 1834.32L1513.1 1798.01C1509.6 1790.82 1504.72 1785.05 1498.48 1780.71C1492.14 1776.63 1485.04 1774.32 1477.17 1773.8L1475.08 1773.51C1472.37 1773.31 1469.78 1773.8 1467.32 1774.99L1328.03 1842.48C1325.57 1843.68 1323.58 1845.4 1322.07 1847.65L1321 1849.47C1316.37 1856.04 1313.8 1863.03 1313.28 1870.44C1312.84 1878.02 1314.38 1885.41 1317.88 1892.6L1335.57 1928.9L1307.34 1942.58L1287.09 1901.01C1284.53 1895.75 1284.89 1890.7 1288.18 1885.85L1303.52 1863.13L1303.92 1862.62L1312.2 1850.15L1334.48 1817.57L1338.22 1811.86L1345.29 1801.6C1346.8 1799.35 1348.79 1797.63 1351.25 1796.44L1369.71 1787.49L1329.21 1704.36L1357.44 1690.68L1397.94 1773.81L1416.67 1764.74C1419.14 1763.55 1421.72 1763.05 1424.43 1763.26L1436.62 1764.18L1482.89 1767.45L1497.83 1768.67L1498.75 1768.55L1526.14 1770.56C1531.99 1770.97 1536.2 1773.81 1538.77 1779.07Z" fill="#0B0B0B"/>
<path d="M743.757 1820.1L847.186 1773.74C854.192 1770.52 862.17 1769.36 871.119 1770.26C888.824 1772.04 903.694 1779.51 915.73 1792.67C927.746 1806.02 933.749 1821.52 933.739 1839.16L934.031 1839.19L1037.46 1792.83C1044.47 1789.61 1052.44 1788.45 1061.39 1789.35C1080.46 1791.26 1096.13 1799.59 1108.4 1814.35C1120.45 1829.27 1125.52 1846.24 1123.6 1865.26L1110.01 2000L1078.78 1996.87L1092.37 1862.13C1093.41 1851.84 1090.62 1842.55 1083.99 1834.24C1077.14 1826.11 1068.56 1821.52 1058.25 1820.49L1015.64 1816.21C1008.06 1815.45 1000.66 1816.67 993.462 1819.87L956.096 1836.7C948.895 1839.89 943.124 1844.51 938.781 1850.54C934.225 1856.75 931.545 1863.83 930.743 1871.78L919.736 1980.91L888.51 1977.78L902.1 1843.04C903.137 1832.76 900.341 1823.46 893.711 1815.15C887.062 1807.04 878.484 1802.46 867.978 1801.4L825.371 1797.13C817.783 1796.37 810.389 1797.58 803.188 1800.78L765.822 1817.61C761.093 1819.69 756.986 1822.41 753.501 1825.78C749.803 1829.33 746.843 1833.35 744.622 1837.83C742.382 1842.5 740.998 1847.46 740.469 1852.7L729.462 1961.83L698.236 1958.7L718.783 1754.98L750.009 1758.11L743.757 1820.1Z" fill="#0B0B0B"/>
<path d="M512.072 1859.07L427.145 1804.74C411.509 1794.74 399.589 1781.67 391.384 1765.54C383.014 1749.29 379.237 1732.05 380.053 1713.81C380.763 1695.73 386.133 1678.9 396.162 1663.3C399.435 1658.22 403.201 1653.44 407.461 1648.99C424.068 1631.11 444.817 1620.53 469.709 1617.22C494.331 1613.97 517.093 1619.04 537.995 1632.41L622.922 1686.73C643.989 1700.21 658.177 1718.78 665.485 1742.45C672.687 1766.28 671.606 1789.45 662.242 1811.96C659.957 1817.68 657.178 1823.08 653.905 1828.17C643.876 1843.76 630.77 1855.65 614.589 1863.83C598.302 1872.18 581.094 1876 562.966 1875.29C544.672 1874.48 527.708 1869.07 512.072 1859.07ZM605.978 1713.07L521.051 1658.75C512.163 1653.06 502.555 1649.58 492.227 1648.3C481.734 1646.92 471.578 1647.72 461.759 1650.71C451.835 1653.86 442.946 1658.83 435.093 1665.62C430.234 1669.92 426.062 1674.78 422.578 1680.2C417.194 1688.57 413.802 1697.64 412.402 1707.4C410.99 1716.46 411.257 1725.43 413.205 1734.32C415.152 1743.21 418.879 1751.5 424.385 1759.19C429.621 1766.94 436.189 1773.35 444.089 1778.4L529.016 1832.72C541.031 1840.41 554.222 1844.1 568.591 1843.79C582.689 1843.54 595.473 1839.56 606.944 1831.84C615.256 1826.5 622.105 1819.64 627.489 1811.27C630.973 1805.86 633.663 1800.05 635.56 1793.85C640.174 1778.73 639.771 1763.65 634.351 1748.6C628.932 1733.55 619.474 1721.71 605.978 1713.07Z" fill="#0B0B0B"/>
<path d="M170.254 1419.4C171.688 1418.39 173.202 1417.31 174.796 1416.18C178.847 1413.79 183.102 1411.85 187.561 1410.36L189.707 1411.35L227.412 1428.41C226.463 1425.73 225.81 1422.96 225.453 1420.11C224.735 1416.07 224.506 1412.05 224.765 1408.04C224.882 1406.52 225.056 1405.08 225.287 1403.72C227.486 1386.61 235.598 1373.08 249.623 1363.14L280.941 1340.95L299.123 1366.45L267.805 1388.65C262.068 1392.72 258.463 1398.26 256.992 1405.29C255.408 1412.15 256.279 1418.59 259.607 1424.61L259.368 1424.78C259.934 1425.57 260.501 1426.37 261.067 1427.16L325.129 1517.04C329.66 1523.4 335.446 1528.15 342.485 1531.29L379.78 1548.28C391.883 1553.81 403.873 1553.81 415.752 1548.26C418.323 1547.15 420.724 1545.81 422.955 1544.23L424.868 1542.87L443.05 1568.38L275.704 1687L153.867 1516.06C142.766 1500.49 138.885 1483.26 142.224 1464.39C145.292 1445.47 154.635 1430.47 170.254 1419.4ZM241.604 1453.87C236.054 1446.09 228.689 1441.14 219.511 1439.03C210.219 1436.77 201.431 1437.73 193.148 1441.93C191.6 1442.79 190.029 1443.78 188.435 1444.91C179.989 1450.9 174.889 1459.06 173.138 1469.39C171.227 1479.84 173.33 1489.35 179.447 1497.93L283.102 1643.36L396.18 1563.21L293.115 1516.05C286.076 1512.9 280.347 1508.23 275.929 1502.03L241.604 1453.87Z" fill="#0B0B0B"/>
<path d="M138.843 1308.04L71.1712 1236.94L36.0029 1199.6C30.6559 1194.06 27.0973 1187.59 25.3273 1180.19L5.44872 1097.12L35.9751 1089.85L65.3165 1212.47C67.1319 1220.06 70.7131 1226.62 76.0601 1232.17L138.525 1297.89C141.244 1300.85 144.04 1303.29 146.912 1305.22C149.594 1307.18 152.544 1308.59 155.76 1309.43C158.93 1310.08 161.77 1310.6 164.279 1311.01C166.598 1311.46 169.705 1311.42 173.6 1310.89C177.495 1310.37 180.511 1309.95 182.648 1309.64C184.741 1309.15 188.069 1308.35 192.634 1307.27C197.198 1306.18 200.432 1305.41 202.334 1304.96L208.325 1303.53L165.843 1258.31L130.457 1221.33C125.11 1215.78 121.529 1209.22 119.714 1201.63L106.03 1144.45C103.262 1132.88 103.455 1121.51 106.611 1110.33C109.721 1098.97 115.305 1089.12 123.362 1080.78C132.814 1070.72 144.292 1064.08 157.796 1060.86L205.154 1049.59L212.439 1080.04L165.08 1091.3C154.809 1093.75 146.923 1099.43 141.42 1108.36C135.917 1117.29 134.391 1126.87 136.842 1137.12L160.056 1234.13C161.872 1241.72 165.358 1248.31 170.514 1253.89L198.722 1283.57C201.441 1286.53 204.237 1288.97 207.109 1290.89C209.982 1292.81 213.026 1294.2 216.242 1295.03C219.412 1295.68 222.252 1296.21 224.762 1296.61C227.081 1297.07 230.188 1297.03 234.082 1296.5C237.787 1296.02 240.803 1295.6 243.131 1295.25C245.223 1294.75 248.551 1293.96 253.116 1292.87C257.49 1291.83 260.724 1291.06 262.816 1290.57L270.1 1321.01L70.3947 1368.53L63.1104 1338.09L148.128 1317.86L138.843 1308.04Z" fill="#0B0B0B"/>
</g>
</svg>
