<svg width="104" height="104" viewBox="0 0 104 104" fill="none" xmlns="http://www.w3.org/2000/svg">
<g clip-path="url(#clip0_645_1034)">
<path fill-rule="evenodd" clip-rule="evenodd" d="M81.5153 91.988L81.5153 34.164C81.4633 26.3536 78.8113 19.1412 73.5333 12.5424C65.6293 2.64161 53.1961 6.03643e-06 48.6513 6.23509e-06L3.64014 8.20259e-06C1.21174 0.442008 0.00013896 1.65361 0.000139047 3.64001C0.000139133 5.62641 1.21174 6.83801 3.64014 7.28001C19.9265 7.28001 34.9285 7.32161 48.6513 7.4048C55.4009 7.4048 73.3721 14.1128 74.2457 34.1692L74.2457 91.1404L58.8225 75.7276C58.0269 74.9112 55.9261 73.8868 54.0437 75.4156C53.6325 75.7306 53.2933 76.1297 53.0487 76.5863C52.8041 77.0428 52.6597 77.5463 52.6252 78.0632C52.5908 78.58 52.667 79.0982 52.8489 79.5832C53.0307 80.0682 53.314 80.5088 53.6797 80.8756C54.6313 81.8168 62.0517 89.232 75.9149 103.126C76.4921 103.709 77.2877 104 78.3121 104C79.3365 104 80.1893 103.646 80.8861 102.934L103.179 80.6468C104.38 79.0244 104.302 77.3864 102.934 75.7276C101.572 74.074 99.8557 74.074 97.7861 75.7276L81.5153 91.988Z" fill="#FAFAFA"/>
</g>
<defs>
<clipPath id="clip0_645_1034">
<rect width="104" height="104" fill="white" transform="matrix(-4.37114e-08 -1 -1 4.37114e-08 104 104)"/>
</clipPath>
</defs>
</svg>
