<svg width="51" height="51" viewBox="0 0 51 51" fill="none" xmlns="http://www.w3.org/2000/svg">
<path d="M50 1H51V2.847e-06L50 2.77944e-06L50 1ZM49 42.1429V43.1429H51V42.1429H49ZM8.85714 0L7.85714 -6.75559e-08L7.85714 2L8.85714 2L8.85714 0ZM1.29289 48.2929L0.585786 49L2 50.4142L2.70711 49.7071L1.29289 48.2929ZM43.85 8.56425L44.5571 7.85715L43.1429 6.44293L42.4358 7.15004L43.85 8.56425ZM49 1V42.1429H51V1H49ZM50 2.77944e-06L8.85714 0L8.85714 2L50 2L50 2.77944e-06ZM2.70711 49.7071L43.85 8.56425L42.4358 7.15004L1.29289 48.2929L2.70711 49.7071Z" fill="#FAFAFA"/>
</svg>
