<svg width="104" height="104" viewBox="0 0 104 104" fill="none" xmlns="http://www.w3.org/2000/svg">
<g clip-path="url(#clip0_645_1032)">
<path fill-rule="evenodd" clip-rule="evenodd" d="M22.4847 91.988L22.4847 34.164C22.5367 26.3536 25.1887 19.1412 30.4667 12.5424C38.3707 2.64161 50.8039 6.03643e-06 55.3487 6.23509e-06L100.36 8.20259e-06C102.788 0.442008 104 1.65361 104 3.64001C104 5.62641 102.788 6.83801 100.36 7.28001C84.0735 7.28001 69.0715 7.32161 55.3487 7.4048C48.5991 7.4048 30.6279 14.1128 29.7543 34.1692L29.7543 91.1404L45.1775 75.7276C45.9731 74.9112 48.0739 73.8868 49.9563 75.4156C50.3675 75.7306 50.7067 76.1297 50.9513 76.5863C51.1959 77.0428 51.3403 77.5463 51.3748 78.0632C51.4092 78.58 51.333 79.0982 51.1511 79.5832C50.9693 80.0682 50.686 80.5088 50.3203 80.8756C49.3687 81.8168 41.9483 89.232 28.0851 103.126C27.5079 103.709 26.7123 104 25.6879 104C24.6635 104 23.8107 103.646 23.1139 102.934L0.821457 80.6468C-0.379743 79.0244 -0.301743 77.3864 1.06586 75.7276C2.42826 74.074 4.14426 74.074 6.21386 75.7276L22.4847 91.988Z" fill="#FAFAFA"/>
</g>
<defs>
<clipPath id="clip0_645_1032">
<rect width="104" height="104" fill="white" transform="translate(0 104) rotate(-90)"/>
</clipPath>
</defs>
</svg>
