<svg width="14" height="14" viewBox="0 0 14 14" fill="none" xmlns="http://www.w3.org/2000/svg">
<path d="M13 1H14V7.15256e-07L13 6.55651e-07V1ZM12 10.4286V11.4286H14V10.4286H12ZM3.57143 0L2.57143 -1.19209e-07L2.57143 2L3.57143 2L3.57143 0ZM1.29289 11.2929L0.585786 12L2 13.4142L2.70711 12.7071L1.29289 11.2929ZM12.1357 3.27854L12.8428 2.57143L11.4286 1.15722L10.7215 1.86432L12.1357 3.27854ZM12 1V10.4286H14V1H12ZM13 6.55651e-07L3.57143 0L3.57143 2L13 2V6.55651e-07ZM2.70711 12.7071L12.1357 3.27854L10.7215 1.86432L1.29289 11.2929L2.70711 12.7071Z" fill="#BFFF07"/>
</svg>
