<svg width="2400" height="2400" viewBox="0 0 2400 2400" fill="none" xmlns="http://www.w3.org/2000/svg">
<path d="M2394.36 1303.57L2359.67 1288.17L2383.19 1280.66L2395.82 1276.6L2396.93 1256.16L2384.8 1250.76L2362.23 1240.76L2398.38 1229.19L2400 1199.3L2325.23 1223.21L2323.56 1254.11L2344.85 1263.54L2322.67 1270.72L2321 1301.62L2392.75 1333.46L2394.36 1303.57Z" fill="#0B0B0B"/>
<path d="M2387.27 1377.16C2390.9 1352.53 2377.09 1330.12 2356.45 1327.08C2335.81 1324.03 2316.22 1341.52 2312.59 1366.15C2308.96 1390.79 2322.66 1413.28 2343.3 1416.33C2363.93 1419.37 2383.64 1401.8 2387.27 1377.16ZM2337.52 1369.83C2338.78 1361.25 2345.29 1355.08 2352.17 1356.1C2359.05 1357.11 2363.61 1364.91 2362.34 1373.49C2361.08 1382.07 2354.47 1388.22 2347.59 1387.21C2340.71 1386.19 2336.25 1378.41 2337.52 1369.83Z" fill="#0B0B0B"/>
<path d="M2354.06 1525.28L2322.85 1503.67L2347.36 1500.68L2360.53 1499.05L2365.43 1479.18L2354.53 1471.62L2334.22 1457.57L2371.9 1452.96L2379.07 1423.89L2301.15 1433.42L2293.74 1463.47L2312.89 1476.71L2289.76 1479.62L2282.35 1509.66L2346.89 1554.34L2354.06 1525.28Z" fill="#0B0B0B"/>
<path d="M2300.66 1675.64L2277.77 1628.39L2326.86 1609.59L2337.08 1583.82L2268.89 1556.76L2258.66 1582.52L2293.42 1596.32L2244.05 1615L2243.86 1614.93L2243.82 1615.02L2244.05 1615L2267.22 1662.37L2232.46 1648.58L2222.21 1674.44L2290.4 1701.5L2300.66 1675.64Z" fill="#0B0B0B"/>
<path d="M2260.99 1757.22L2225.51 1739.16C2220.39 1736.56 2218.46 1730.37 2221.02 1725.34L2225.18 1717.16C2227.78 1712.04 2233.88 1710.06 2239 1712.66L2274.47 1730.72L2285.67 1708.72L2242.3 1686.63C2230.08 1680.41 2215.31 1685.22 2209.09 1697.44L2195.61 1723.94C2189.43 1736.07 2194.2 1750.93 2206.41 1757.15L2249.79 1779.23L2260.99 1757.22Z" fill="#0B0B0B"/>
<path d="M2181.52 1810.8C2179.6 1806.36 2180.23 1800.62 2183.18 1795.69C2187.65 1788.26 2196.17 1785.03 2202.13 1788.62C2208.09 1792.2 2209.33 1801.29 2204.87 1808.72C2201.91 1813.65 2197.05 1816.84 2192.23 1817.24L2188.05 1817.55L2192.3 1846.09L2196.4 1845.14C2208.81 1842.49 2219.99 1834.04 2227.16 1822.11C2240.08 1800.6 2235.7 1774.22 2217.39 1763.21C2199.07 1752.21 2173.73 1760.73 2160.81 1782.25C2153.65 1794.17 2151.45 1808.02 2154.93 1820.23L2156.02 1824.29L2183.21 1814.64L2181.52 1810.8Z" fill="#0B0B0B"/>
<path d="M2170.59 1902.6L2150.71 1888.47L2162.27 1872.2L2182.15 1886.33L2201.01 1859.79L2141.21 1817.28L2122.35 1843.82L2142.15 1857.89L2130.59 1874.16L2110.79 1860.09L2091.88 1886.7L2151.68 1929.22L2170.59 1902.6Z" fill="#0B0B0B"/>
<path d="M2059.64 1972.76C2058.53 1968.05 2060.15 1962.51 2063.92 1958.18C2069.61 1951.64 2078.56 1949.95 2083.81 1954.51C2089.05 1959.08 2088.69 1968.25 2083 1974.79C2079.22 1979.12 2073.88 1981.42 2069.07 1980.97L2064.89 1980.54L2064.1 2009.39L2068.3 2009.17C2080.99 2008.72 2093.47 2002.36 2102.61 1991.87C2119.08 1972.94 2119.38 1946.19 2103.26 1932.16C2087.15 1918.13 2060.71 1922.1 2044.23 1941.03C2035.1 1951.52 2030.52 1964.77 2031.82 1977.4L2032.18 1981.59L2060.64 1976.84L2059.64 1972.76Z" fill="#0B0B0B"/>
<path d="M1998.91 1991.82L2051.72 2042.76L2071.17 2022.58L2018.36 1971.65L1998.91 1991.82Z" fill="#0B0B0B"/>
<path d="M1960.83 2068.85C1960.2 2074.53 1961.97 2080.59 1966.16 2085.09L1971.31 2090.62C1979.06 2098.97 1992.16 2099.44 2000.5 2091.69L2045.37 2049.95L1995.42 1996.21L1977.33 2013.03L1994.08 2031.04L1974.08 2049.64L1948.11 2040.21L1929.51 2057.51L1960.83 2068.85ZM1986.16 2072.41C1984.51 2070.64 1986.08 2066.56 1989.55 2063.33L2008.08 2046.1L2014.39 2052.89L1995.87 2070.12C1992.4 2073.35 1988.22 2074.62 1986.57 2072.85L1986.16 2072.41Z" fill="#0B0B0B"/>
<path d="M1904.73 2116.36C1904.49 2111.53 1907.08 2106.37 1911.57 2102.79C1918.35 2097.39 1927.46 2097.35 1931.79 2102.79C1936.13 2108.23 1934.11 2117.18 1927.33 2122.58C1922.84 2126.16 1917.17 2127.46 1912.51 2126.14L1908.49 2124.97L1902.49 2153.2L1906.66 2153.74C1919.22 2155.59 1932.65 2151.59 1943.53 2142.92C1963.16 2127.28 1968.28 2101.04 1954.97 2084.32C1941.66 2067.61 1914.93 2066.73 1895.31 2082.37C1884.43 2091.04 1877.53 2103.24 1876.52 2115.9L1876.12 2120.08L1904.97 2120.55L1904.73 2116.36Z" fill="#0B0B0B"/>
<path d="M1814.53 2172.12L1857.27 2142.67L1885.12 2183.09L1906.78 2168.17L1865.15 2107.74L1800.75 2152.12L1814.53 2172.12Z" fill="#0B0B0B"/>
<path d="M1761.87 2236.97L1771.92 2253.98L1838.3 2214.76L1800.98 2151.58L1734.6 2190.8L1744.65 2207.81L1783.61 2184.79L1787.2 2190.87L1748.24 2213.89L1758.29 2230.9L1797.24 2207.88L1800.83 2213.95L1761.87 2236.97Z" fill="#0B0B0B"/>
<path d="M1686.62 2282.33C1689.7 2288.56 1697.18 2291.16 1703.41 2288.07L1754.34 2262.85C1760.58 2259.76 1763.04 2252.25 1759.95 2246.01C1759.78 2245.65 1759.6 2245.29 1759.42 2244.93L1757.32 2240.68C1752.8 2231.56 1744.55 2231.48 1732.83 2232.34L1699.38 2236.08L1744.08 2213.94L1738.54 2202.74C1735.45 2196.51 1728.03 2194 1721.79 2197.09L1670.86 2222.31C1664.62 2225.4 1662.12 2232.82 1665.2 2239.06C1665.34 2239.33 1665.47 2239.6 1665.6 2239.87L1667.75 2244.21C1672.22 2253.24 1680.56 2253.27 1692.19 2252.46L1726.5 2248.63L1681.07 2271.13L1686.62 2282.33Z" fill="#0B0B0B"/>
<path d="M1644.55 2269.9C1645.94 2273.4 1646.36 2276.74 1645.81 2279.92C1645.23 2283.19 1643.82 2286.1 1641.58 2288.65C1639.34 2291.2 1636.44 2293.19 1632.88 2294.6C1629.26 2296.04 1625.79 2296.58 1622.47 2296.24C1619.12 2295.98 1616.14 2294.84 1613.53 2292.84C1610.9 2290.92 1608.87 2288.19 1607.46 2284.63C1606.07 2281.13 1605.67 2277.74 1606.25 2274.48C1606.8 2271.3 1608.19 2268.43 1610.43 2265.88C1612.61 2263.35 1615.51 2261.37 1619.13 2259.93C1622.69 2258.52 1626.15 2257.94 1629.5 2258.2C1632.88 2258.52 1635.9 2259.67 1638.57 2261.65C1641.17 2263.66 1643.16 2266.41 1644.55 2269.9ZM1633.69 2274.22C1632.82 2272.03 1631.41 2270.57 1629.45 2269.83C1627.52 2269.15 1625.43 2269.25 1623.18 2270.14C1620.99 2271.01 1619.44 2272.39 1618.53 2274.27C1617.55 2276.17 1617.48 2278.19 1618.32 2280.31C1619.19 2282.5 1620.62 2283.92 1622.62 2284.57C1624.57 2285.32 1626.64 2285.25 1628.83 2284.39C1631.08 2283.49 1632.66 2282.11 1633.58 2280.23C1634.52 2278.41 1634.55 2276.4 1633.69 2274.22Z" fill="#0B0B0B"/>
<path d="M1491.69 2363.27L1494.88 2325.44L1509.68 2345.2L1517.65 2355.81L1537.31 2350.16L1538.44 2336.94L1540.5 2312.33L1563.27 2342.7L1592.04 2334.43L1544.95 2271.62L1515.21 2280.16L1513.28 2303.37L1499.23 2284.76L1469.49 2293.3L1462.93 2371.54L1491.69 2363.27Z" fill="#0B0B0B"/>
<path d="M1418.13 2380.68C1442.6 2376.11 1459.3 2355.76 1455.47 2335.25C1451.64 2314.74 1428.74 2301.89 1404.27 2306.47C1379.8 2311.04 1362.98 2331.3 1366.81 2351.81C1370.64 2372.33 1393.66 2385.25 1418.13 2380.68ZM1408.9 2331.24C1417.42 2329.65 1425.37 2333.8 1426.65 2340.64C1427.92 2347.47 1422.02 2354.32 1413.51 2355.91C1404.99 2357.5 1397.02 2353.25 1395.74 2346.41C1394.46 2339.57 1400.38 2332.83 1408.9 2331.24Z" fill="#0B0B0B"/>
<path d="M1268.12 2397.13L1278.43 2360.59L1289.2 2382.81L1295.02 2394.74L1315.4 2392.93L1319.02 2380.16L1325.71 2356.39L1342.3 2390.53L1372.11 2387.88L1337.81 2317.26L1306.99 2320L1300.69 2342.42L1290.43 2321.48L1259.61 2324.22L1238.31 2399.78L1268.12 2397.13Z" fill="#0B0B0B"/>
<path d="M1104.28 2395.43L1141.5 2358.4L1175.25 2398.72L1202.93 2400L1206.33 2326.7L1178.65 2325.41L1176.91 2362.77L1143.18 2322.16L1143.19 2321.95L1143.09 2321.95L1143.18 2322.16L1105.94 2359.48L1107.67 2322.12L1079.89 2320.84L1076.49 2394.14L1104.28 2395.43Z" fill="#0B0B0B"/>
<path d="M1014.68 2384.4L1020.18 2344.97C1020.98 2339.28 1026.19 2335.42 1031.78 2336.2L1040.87 2337.47C1046.56 2338.27 1050.42 2343.39 1049.63 2349.08L1044.12 2388.51L1068.58 2391.92L1075.31 2343.7C1077.2 2330.13 1067.84 2317.73 1054.26 2315.83L1024.82 2311.72C1011.35 2309.84 998.85 2319.19 996.955 2332.77L990.226 2380.98L1014.68 2384.4Z" fill="#0B0B0B"/>
<path d="M937.18 2326.37C940.764 2323.12 946.395 2321.86 952.011 2323.06C960.485 2324.88 966.297 2331.9 964.838 2338.7C963.379 2345.5 955.178 2349.62 946.704 2347.8C941.088 2346.59 936.492 2343.03 934.558 2338.6L932.912 2334.74L907.288 2348L909.511 2351.57C916.04 2362.46 927.651 2370.31 941.249 2373.23C965.784 2378.49 989.324 2365.81 993.807 2344.92C998.289 2324.03 982.022 2302.8 957.488 2297.54C943.89 2294.62 930.08 2297.02 919.66 2304.26L916.169 2306.61L934.096 2329.22L937.18 2326.37Z" fill="#0B0B0B"/>
<path d="M847.632 2346L854.544 2322.61L873.68 2328.27L866.767 2351.66L897.983 2360.89L918.777 2290.52L887.561 2281.29L880.678 2304.59L861.542 2298.93L868.426 2275.63L837.113 2266.38L816.319 2336.75L847.632 2346Z" fill="#0B0B0B"/>
<path d="M745.863 2263.92C749.954 2261.34 755.72 2261.07 761.043 2263.22C769.075 2266.48 773.585 2274.4 770.972 2280.85C768.36 2287.29 759.57 2289.93 751.539 2286.67C746.215 2284.51 742.306 2280.21 741.167 2275.5L740.213 2271.42L712.682 2280.05L714.254 2283.95C718.803 2295.8 728.881 2305.54 741.769 2310.77C765.024 2320.2 790.402 2311.79 798.43 2291.98C806.457 2272.18 794.105 2248.46 770.85 2239.03C757.962 2233.8 743.945 2233.78 732.43 2239.11L728.586 2240.82L742.334 2266.19L745.863 2263.92Z" fill="#0B0B0B"/>
<path d="M708.166 2212.54L677.089 2279.01L702.467 2290.88L733.545 2224.41L708.166 2212.54Z" fill="#0B0B0B"/>
<path d="M623.157 2201.41C617.575 2202.64 612.418 2206.28 609.509 2211.7L605.931 2218.36C600.542 2228.39 604.321 2240.95 614.353 2246.34L668.328 2275.35L703.051 2210.7L681.301 2199.01L669.663 2220.68L645.605 2207.75L646.146 2180.12L623.774 2168.1L623.157 2201.41ZM627.965 2226.54C629.11 2224.4 633.478 2224.58 637.65 2226.82L659.933 2238.79L655.545 2246.96L633.262 2234.99C629.09 2232.75 626.534 2229.2 627.679 2227.07L627.965 2226.54Z" fill="#0B0B0B"/>
<path d="M560.317 2163.69C564.814 2161.91 570.531 2162.7 575.366 2165.8C582.661 2170.49 585.637 2179.1 581.883 2184.95C578.128 2190.81 569.004 2191.78 561.709 2187.1C556.874 2184 553.823 2179.05 553.57 2174.22L553.384 2170.02L524.735 2173.44L525.563 2177.56C527.852 2190.05 535.965 2201.48 547.671 2208.99C568.793 2222.54 595.286 2218.94 606.821 2200.95C618.356 2182.97 610.58 2157.38 589.458 2143.83C577.752 2136.32 563.98 2133.71 551.68 2136.84L547.587 2137.8L556.431 2165.27L560.317 2163.69Z" fill="#0B0B0B"/>
<path d="M478.633 2096.34L520.267 2127.33L490.964 2166.71L512.063 2182.42L555.868 2123.56L493.134 2076.85L478.633 2096.34Z" fill="#0B0B0B"/>
<path d="M400.537 2067.63L387.676 2082.62L446.188 2132.83L493.958 2077.14L435.446 2026.93L422.585 2041.92L456.927 2071.39L452.334 2076.75L417.992 2047.28L405.13 2062.27L439.473 2091.74L434.879 2097.1L400.537 2067.63Z" fill="#0B0B0B"/>
<path d="M333.403 2011.19C328.503 2016.13 328.461 2024.04 333.396 2028.94L373.732 2069C378.667 2073.9 386.576 2073.8 391.475 2068.86C391.759 2068.57 392.043 2068.29 392.327 2068L395.664 2064.64C402.836 2057.41 400.242 2049.58 395.642 2038.77L381.279 2008.31L416.681 2043.47L425.485 2034.6C430.384 2029.66 430.355 2021.82 425.421 2016.92L385.084 1976.87C380.149 1971.97 372.311 1971.99 367.412 1976.93C367.199 1977.14 366.986 1977.36 366.773 1977.57L363.365 1981.01C356.265 1988.16 358.93 1996.06 363.458 2006.81L378.18 2038.05L342.207 2002.32L333.403 2011.19Z" fill="#0B0B0B"/>
<path d="M331.663 1967.5C328.808 1969.95 325.788 1971.44 322.603 1971.96C319.324 1972.47 316.114 1972.08 312.973 1970.79C309.832 1969.5 307.014 1967.41 304.521 1964.5C301.983 1961.54 300.339 1958.44 299.587 1955.19C298.74 1951.93 298.841 1948.74 299.889 1945.63C300.842 1942.51 302.772 1939.7 305.678 1937.21C308.534 1934.76 311.601 1933.28 314.88 1932.77C318.064 1932.25 321.227 1932.63 324.368 1933.92C327.466 1935.16 330.283 1937.26 332.821 1940.21C335.314 1943.12 336.984 1946.2 337.831 1949.46C338.627 1952.76 338.523 1956 337.518 1959.16C336.47 1962.27 334.519 1965.05 331.663 1967.5ZM324.051 1958.63C325.836 1957.1 326.761 1955.29 326.825 1953.19C326.839 1951.15 326.058 1949.2 324.484 1947.37C322.953 1945.58 321.148 1944.56 319.072 1944.31C316.951 1944 315.024 1944.6 313.29 1946.08C311.505 1947.61 310.628 1949.43 310.658 1951.53C310.593 1953.62 311.327 1955.56 312.858 1957.34C314.433 1959.18 316.258 1960.23 318.335 1960.48C320.361 1960.78 322.267 1960.16 324.051 1958.63Z" fill="#0B0B0B"/>
<path d="M193.877 1853.51L230.683 1844.24L216.802 1864.66L209.363 1875.65L221.092 1892.41L233.964 1889.18L257.899 1883.13L236.578 1914.54L253.74 1939.07L297.842 1874.12L280.103 1848.77L257.53 1854.48L270.568 1835.14L252.829 1809.79L176.715 1828.99L193.877 1853.51Z" fill="#0B0B0B"/>
<path d="M153.162 1789.27C165.426 1810.94 190.089 1820.14 208.243 1809.86C226.396 1799.58 231.111 1773.74 218.848 1752.08C206.584 1730.41 181.959 1721.08 163.805 1731.35C145.652 1741.63 140.899 1767.61 153.162 1789.27ZM196.923 1764.49C201.193 1772.04 199.845 1780.91 193.794 1784.34C187.743 1787.76 179.357 1784.4 175.087 1776.86C170.817 1769.32 172.252 1760.39 178.303 1756.97C184.354 1753.54 192.653 1756.95 196.923 1764.49Z" fill="#0B0B0B"/>
<path d="M89.3183 1654.32L127.21 1652.09L109.757 1669.55L100.393 1678.95L108.782 1697.62L122.03 1696.85L146.674 1695.39L119.857 1722.26L132.131 1749.56L187.597 1694L174.911 1665.78L151.669 1667.17L168.092 1650.61L155.405 1622.39L77.0448 1627.01L89.3183 1654.32Z" fill="#0B0B0B"/>
<path d="M39.1181 1504.18L86.2837 1527.24L59.2551 1572.33L67.11 1598.92L137.467 1578.12L129.612 1551.53L93.7571 1562.13L121.076 1516.95L121.269 1516.9L121.24 1516.8L121.076 1516.95L73.6201 1493.98L109.475 1483.39L101.592 1456.71L31.2346 1477.5L39.1181 1504.18Z" fill="#0B0B0B"/>
<path d="M19.8247 1414.21L58.8978 1406.6C64.5362 1405.5 69.8735 1409.18 70.9521 1414.73L72.7047 1423.73C73.8025 1429.37 70.2178 1434.69 64.5794 1435.79L25.5063 1443.39L30.2249 1467.64L78.0029 1458.33C91.456 1455.71 100.139 1442.83 97.5196 1429.37L91.838 1400.18C89.2379 1386.83 76.3372 1378.04 62.8841 1380.66L15.1061 1389.97L19.8247 1414.21Z" fill="#0B0B0B"/>
<path d="M49.3056 1321.5C53.5442 1323.84 56.5702 1328.75 57.2548 1334.46C58.2878 1343.06 53.5374 1350.84 46.6333 1351.67C39.7293 1352.5 33.1731 1346.08 32.1401 1337.47C31.4555 1331.77 33.3323 1326.26 36.8983 1322.99L40.012 1320.18L19.1468 1300.25L16.4934 1303.51C8.32102 1313.23 4.66747 1326.76 6.32507 1340.57C9.31595 1365.49 28.9523 1383.64 50.1647 1381.09C71.3771 1378.55 86.1608 1356.27 83.17 1331.35C81.5124 1317.53 74.7598 1305.25 64.5215 1297.75L61.1714 1295.21L45.6153 1319.51L49.3056 1321.5Z" fill="#0B0B0B"/>
<path d="M1.59333 1245.99L25.9552 1244.86L26.8789 1264.8L2.51702 1265.93L4.02385 1298.45L77.3108 1295.05L75.8039 1262.53L51.5427 1263.65L50.619 1243.72L74.8802 1242.59L73.3687 1209.97L0.0818381 1213.36L1.59333 1245.99Z" fill="#0B0B0B"/>
<path d="M45.7055 1118.98C49.4777 1122.01 51.6099 1127.37 51.2997 1133.11C50.8317 1141.77 44.8101 1148.61 37.8667 1148.23C30.9232 1147.86 25.5737 1140.4 26.0416 1131.74C26.3518 1126.01 29.1505 1120.91 33.2274 1118.3L36.7794 1116.07L19.6673 1092.84L16.4906 1095.59C6.76472 1103.75 0.830033 1116.45 0.0791183 1130.34C-1.27579 1155.4 14.9334 1176.67 36.2669 1177.82C57.6004 1178.98 76.0079 1159.58 77.3628 1134.52C78.1137 1120.63 73.5829 1107.36 64.793 1098.21L61.9319 1095.12L42.4147 1116.38L45.7055 1118.98Z" fill="#0B0B0B"/>
<path d="M82.149 1063.56L9.21039 1055.65L6.19221 1083.51L79.1308 1091.42L82.149 1063.56Z" fill="#0B0B0B"/>
<path d="M64.6852 980.889C61.7027 976.011 56.5871 972.316 50.5199 971.327L43.0602 970.11C31.8209 968.276 21.1778 975.936 19.3446 987.177L9.4809 1047.66L81.8896 1059.48L85.8643 1035.1L61.5954 1031.14L65.9919 1004.18L92.2887 995.707L96.3769 970.637L64.6852 980.889ZM42.4954 993.61C44.8825 993.999 46.1396 998.187 45.3771 1002.86L41.3051 1027.83L32.1545 1026.34L36.2266 1001.37C36.989 996.694 39.5115 993.123 41.8986 993.512L42.4954 993.61Z" fill="#0B0B0B"/>
<path d="M79.5695 909.551C82.7235 913.221 83.8383 918.885 82.4837 924.469C80.4401 932.893 73.2685 938.517 66.511 936.877C59.7534 935.236 55.8584 926.927 57.9021 918.503C59.2566 912.919 62.9407 908.42 67.4255 906.604L71.3256 905.061L58.7532 879.087L55.1261 881.215C44.0724 887.452 35.9142 898.852 32.6348 912.37C26.7177 936.761 38.7622 960.637 59.5244 965.676C80.2866 970.715 101.932 955.016 107.849 930.625C111.128 917.107 109.101 903.235 102.135 892.624L99.8859 889.07L76.81 906.392L79.5695 909.551Z" fill="#0B0B0B"/>
<path d="M116.828 809.544L100.994 858.98L54.2555 844.003L46.2306 869.057L116.098 891.446L139.958 816.956L116.828 809.544Z" fill="#0B0B0B"/>
<path d="M119.187 724.842L100.855 717.488L72.155 789.056L140.247 816.374L168.947 744.805L150.615 737.451L133.77 779.456L127.223 776.829L144.067 734.824L125.735 727.469L108.89 769.475L102.343 766.848L119.187 724.842Z" fill="#0B0B0B"/>
<path d="M149.47 645.651C143.216 642.612 135.717 645.131 132.679 651.387L107.84 702.522C104.801 708.777 107.455 716.231 113.709 719.27C114.072 719.446 114.435 719.623 114.797 719.799L119.057 721.869C128.213 726.318 134.781 721.329 143.526 713.476L167.688 690.029L145.888 734.908L157.128 740.37C163.383 743.409 170.79 740.846 173.829 734.59L198.668 683.455C201.707 677.2 199.143 669.79 192.889 666.751C192.617 666.619 192.345 666.487 192.073 666.355L187.722 664.24C178.658 659.835 172.045 664.914 163.344 672.677L138.558 696.717L160.71 651.113L149.47 645.651Z" fill="#0B0B0B"/>
<path d="M190.823 628.443C187.584 626.529 185.205 624.148 183.688 621.301C182.147 618.361 181.48 615.196 181.687 611.806C181.895 608.417 182.972 605.073 184.92 601.775C186.902 598.419 189.31 595.862 192.144 594.102C194.954 592.25 198.001 591.319 201.285 591.308C204.545 591.205 207.824 592.128 211.121 594.076C214.36 595.99 216.75 598.417 218.291 601.357C219.809 604.204 220.464 607.323 220.257 610.713C220.083 614.045 219.006 617.388 217.024 620.744C215.076 624.042 212.697 626.617 209.887 628.469C207.019 630.286 203.926 631.229 200.608 631.298C197.324 631.309 194.062 630.357 190.823 628.443ZM196.769 618.376C198.793 619.572 200.806 619.864 202.807 619.251C204.75 618.604 206.336 617.239 207.566 615.156C208.762 613.131 209.146 611.094 208.717 609.046C208.322 606.939 207.142 605.305 205.175 604.143C203.15 602.947 201.15 602.701 199.173 603.406C197.172 604.019 195.574 605.338 194.378 607.363C193.147 609.446 192.747 611.512 193.175 613.56C193.546 615.575 194.744 617.18 196.769 618.376Z" fill="#0B0B0B"/>
<path d="M254.021 461.34L274.648 493.21L250.852 486.637L238.054 483.128L225.96 499.631L233.157 510.782L246.586 531.501L209.992 521.418L192.297 545.564L267.972 566.427L286.263 541.469L273.592 521.931L296.093 528.055L314.384 503.097L271.716 437.195L254.021 461.34Z" fill="#0B0B0B"/>
<path d="M302.15 401.239C285.602 419.837 284.849 446.155 300.432 460.026C316.015 473.898 341.987 470.03 358.535 451.431C375.084 432.833 375.979 406.507 360.396 392.636C344.813 378.764 318.699 382.641 302.15 401.239ZM339.715 434.678C333.953 441.154 325.123 442.739 319.929 438.115C314.734 433.491 315.208 424.468 320.97 417.992C326.732 411.517 335.638 409.999 340.832 414.622C346.026 419.246 345.477 428.203 339.715 434.678Z" fill="#0B0B0B"/>
<path d="M411.375 295.186L425.641 330.367L403.505 319.434L391.596 313.581L376.614 327.515L381.586 339.82L390.88 362.696L356.835 345.91L334.916 366.296L405.318 401.022L427.975 379.95L419.204 358.377L440.152 368.624L462.809 347.552L433.294 274.8L411.375 295.186Z" fill="#0B0B0B"/>
<path d="M532.47 202.401L525.977 254.506L474.561 243.571L451.972 259.63L494.476 319.442L517.065 303.383L495.404 272.902L546.995 284.083L547.112 284.247L547.194 284.189L546.995 284.083L553.314 231.732L574.975 262.212L597.646 246.095L555.141 186.283L532.47 202.401Z" fill="#0B0B0B"/>
<path d="M615.492 152.012L635.359 186.514C638.226 191.493 636.472 197.737 631.582 200.555L623.635 205.132C618.657 208 612.464 206.333 609.597 201.354L589.73 166.852L568.335 179.177L592.627 221.366C599.468 233.245 614.469 237.283 626.346 230.441L652.108 215.601C663.897 208.809 668.021 193.755 661.181 181.875L636.888 139.687L615.492 152.012Z" fill="#0B0B0B"/>
<path d="M708.372 151.866C707.551 156.635 703.894 161.102 698.728 163.613C690.932 167.401 682.03 165.451 678.992 159.196C675.953 152.94 679.878 144.645 687.674 140.856C692.84 138.345 698.655 138.321 702.91 140.624L706.583 142.649L718.6 116.413L714.651 114.971C702.803 110.418 688.82 111.386 676.311 117.465C653.741 128.433 643.005 152.926 652.342 172.146C661.679 191.367 687.564 198.063 710.134 187.095C722.643 181.016 732.046 170.619 735.79 158.49L737.097 154.492L709.05 147.726L708.372 151.866Z" fill="#0B0B0B"/>
<path d="M770.529 79.4776L779.439 102.185L760.864 109.476L751.955 86.7685L721.653 98.6621L748.455 166.972L778.756 155.078L769.883 132.465L788.458 125.174L797.33 147.787L827.725 135.857L800.924 67.5471L770.529 79.4776Z" fill="#0B0B0B"/>
<path d="M898.762 82.1769C897.118 86.7284 892.735 90.4844 887.208 92.0502C878.869 94.4126 870.447 90.9319 868.552 84.24C866.657 77.5482 871.976 70.0698 880.315 67.7074C885.841 66.1417 891.57 67.1378 895.356 70.151L898.617 72.7892L915.047 49.0675L911.411 46.9546C900.546 40.3945 886.61 38.895 873.229 42.6858C849.085 49.5257 834.223 71.7556 840.045 92.3161C845.867 112.876 870.177 124.009 894.321 117.169C907.702 113.378 918.782 104.791 924.594 93.5065L926.582 89.8004L900.155 78.2202L898.762 82.1769Z" fill="#0B0B0B"/>
<path d="M962.419 98.7753L946.206 27.2082L918.883 33.4005L935.095 104.968L962.419 98.7753Z" fill="#0B0B0B"/>
<path d="M1032.8 55.7536C1036.45 51.347 1038.28 45.3073 1037.24 39.2466L1035.97 31.7948C1034.05 20.5675 1023.35 12.9897 1012.12 14.9093L951.726 25.2382L964.091 97.5697L988.428 93.4076L984.284 69.1646L1011.2 64.5608L1027.77 86.6803L1052.8 82.3992L1032.8 55.7536ZM1013.56 38.8985C1013.97 41.2831 1010.42 43.8334 1005.75 44.6318L980.819 48.8959L979.257 39.7551L1004.19 35.491C1008.86 34.6926 1013.06 35.9178 1013.46 38.3024L1013.56 38.8985Z" fill="#0B0B0B"/>
<path d="M1107.13 46.3196C1104.68 50.4947 1099.68 53.3879 1093.96 53.9189C1085.33 54.7201 1077.69 49.7609 1077.05 42.8356C1076.4 35.9103 1083 29.5279 1091.63 28.7268C1097.35 28.1958 1102.8 30.2206 1105.97 33.8741L1108.7 37.063L1129.18 16.7374L1125.99 13.9966C1116.5 5.56394 1103.07 1.54657 1089.22 2.83211C1064.24 5.15168 1045.57 24.2965 1047.54 45.5744C1049.52 66.8522 1071.39 82.2335 1096.38 79.914C1110.22 78.6284 1122.68 72.2076 1130.46 62.1727L1133.09 58.8916L1109.22 42.6835L1107.13 46.3196Z" fill="#0B0B0B"/>
<path d="M1211.27 48.9583L1159.38 50.1604L1158.24 1.08474L1131.95 1.69396L1133.65 75.0555L1211.83 73.2442L1211.27 48.9583Z" fill="#0B0B0B"/>
<path d="M1296.95 23.5983L1297.94 3.86662L1220.95 0L1217.27 73.2889L1294.27 77.1555L1295.26 57.4239L1250.06 55.1545L1250.42 48.1075L1295.61 50.3769L1296.6 30.6453L1251.41 28.3758L1251.76 21.3288L1296.95 23.5983Z" fill="#0B0B0B"/>
<path d="M1379.13 25.9912C1379.96 19.0857 1375.13 12.8205 1368.22 11.9915L1311.79 5.21552C1304.89 4.38655 1298.71 9.33024 1297.88 16.2357C1297.84 16.6361 1297.79 17.0364 1297.74 17.4367L1297.17 22.1405C1295.96 32.2485 1302.82 36.8285 1313.1 42.5295L1343.15 57.7111L1293.62 51.7641L1292.13 64.174C1291.3 71.0795 1296.14 77.2447 1303.05 78.0736L1359.48 84.8496C1366.38 85.6786 1372.55 80.835 1373.38 73.9295C1373.41 73.6292 1373.45 73.329 1373.49 73.0288L1374.06 68.2249C1375.26 58.2169 1368.3 53.6249 1358.13 47.9359L1327.31 32.358L1377.64 38.4011L1379.13 25.9912Z" fill="#0B0B0B"/>
<path d="M1407.83 59.0159C1408.58 55.3278 1410.05 52.3004 1412.24 49.9337C1414.51 47.5146 1417.28 45.8479 1420.55 44.9337C1423.82 44.0195 1427.34 43.9427 1431.09 44.7035C1434.91 45.4775 1438.11 46.9156 1440.7 49.0176C1443.37 51.0671 1445.25 53.6417 1446.34 56.7415C1447.5 59.7888 1447.7 63.1894 1446.94 66.9435C1446.2 70.6316 1444.69 73.6853 1442.41 76.1044C1440.22 78.4711 1437.49 80.1115 1434.22 81.0257C1431.01 81.9533 1427.5 82.03 1423.68 81.2559C1419.93 80.4952 1416.72 79.0901 1414.05 77.0406C1411.39 74.9252 1409.49 72.311 1408.34 69.1979C1407.25 66.0981 1407.08 62.7041 1407.83 59.0159ZM1419.29 61.3381C1418.82 63.6432 1419.2 65.6408 1420.44 67.3308C1421.69 68.955 1423.49 70.0073 1425.87 70.4878C1428.17 70.9549 1430.22 70.6504 1432.01 69.5743C1433.87 68.5115 1435.03 66.8605 1435.49 64.6213C1435.95 62.3161 1435.53 60.3448 1434.22 58.7073C1432.98 57.0173 1431.21 55.9387 1428.91 55.4716C1426.54 54.9912 1424.45 55.289 1422.66 56.3651C1420.88 57.3753 1419.75 59.033 1419.29 61.3381Z" fill="#0B0B0B"/>
<path d="M1513.77 83.5481C1514.85 79.9434 1516.59 77.0625 1518.99 74.9055C1521.47 72.7035 1524.38 71.2962 1527.72 70.6838C1531.06 70.0713 1534.57 70.3148 1538.23 71.4143C1541.97 72.5331 1545.03 74.2572 1547.42 76.5865C1549.89 78.8707 1551.52 81.6057 1552.32 84.7915C1553.2 87.9322 1553.1 91.3372 1552 95.0063C1550.92 98.6111 1549.14 101.514 1546.65 103.716C1544.25 105.873 1541.38 107.258 1538.04 107.871C1534.77 108.502 1531.26 108.259 1527.53 107.14C1523.86 106.041 1520.79 104.349 1518.32 102.065C1515.87 99.7159 1514.21 96.9391 1513.35 93.734C1512.55 90.5482 1512.69 87.1529 1513.77 83.5481ZM1524.97 86.9046C1524.29 89.1575 1524.49 91.1817 1525.57 92.9772C1526.66 94.7083 1528.37 95.921 1530.68 96.6155C1532.94 97.2906 1535.01 97.1741 1536.89 96.266C1538.84 95.3772 1540.14 93.8385 1540.8 91.6499C1541.47 89.3969 1541.23 87.3952 1540.07 85.6448C1539 83.8494 1537.33 82.6141 1535.08 81.9389C1532.76 81.2445 1530.66 81.3513 1528.78 82.2595C1526.91 83.1032 1525.64 84.6516 1524.97 86.9046Z" fill="#0B0B0B"/>
<path d="M1606.98 114.079C1608.37 110.581 1610.35 107.862 1612.93 105.92C1615.6 103.941 1618.62 102.791 1622 102.469C1625.38 102.148 1628.85 102.694 1632.41 104.106C1636.03 105.544 1638.93 107.526 1641.11 110.053C1643.37 112.542 1644.76 115.408 1645.29 118.651C1645.89 121.857 1645.49 125.24 1644.08 128.8C1642.69 132.298 1640.67 135.036 1638 137.015C1635.42 138.957 1632.45 140.088 1629.07 140.41C1625.75 140.756 1622.28 140.21 1618.66 138.773C1615.1 137.36 1612.18 135.409 1609.92 132.92C1607.68 130.368 1606.27 127.458 1605.68 124.19C1605.16 120.947 1605.6 117.577 1606.98 114.079ZM1617.85 118.391C1616.98 120.577 1617.01 122.611 1617.92 124.493C1618.86 126.312 1620.46 127.668 1622.71 128.56C1624.89 129.428 1626.96 129.49 1628.92 128.749C1630.94 128.032 1632.37 126.611 1633.21 124.488C1634.08 122.302 1634.01 120.286 1633.01 118.442C1632.09 116.561 1630.54 115.186 1628.36 114.319C1626.11 113.427 1624.01 113.351 1622.05 114.093C1620.12 114.772 1618.72 116.205 1617.85 118.391Z" fill="#0B0B0B"/>
<path d="M1696.04 151.843C1697.72 148.477 1699.93 145.937 1702.67 144.223C1705.49 142.48 1708.6 141.592 1711.99 141.561C1715.39 141.531 1718.8 142.371 1722.23 144.083C1725.71 145.825 1728.43 148.049 1730.38 150.753C1732.43 153.427 1733.57 156.402 1733.81 159.678C1734.14 162.923 1733.45 166.259 1731.74 169.685C1730.06 173.052 1727.81 175.607 1724.98 177.35C1722.25 179.064 1719.18 179.936 1715.79 179.967C1712.45 180.028 1709.04 179.188 1705.56 177.445C1702.13 175.733 1699.4 173.54 1697.35 170.866C1695.34 168.132 1694.18 165.112 1693.88 161.806C1693.64 158.53 1694.36 155.209 1696.04 151.843ZM1706.5 157.07C1705.45 159.174 1705.3 161.202 1706.05 163.155C1706.83 165.049 1708.3 166.536 1710.47 167.617C1712.57 168.668 1714.63 168.908 1716.64 168.337C1718.72 167.795 1720.26 166.503 1721.28 164.459C1722.34 162.355 1722.44 160.341 1721.6 158.418C1720.85 156.465 1719.42 154.963 1717.32 153.912C1715.15 152.83 1713.06 152.575 1711.05 153.147C1709.07 153.658 1707.55 154.966 1706.5 157.07Z" fill="#0B0B0B"/>
<path d="M1852.53 193.114L1831.41 180.319L1810.79 214.374C1807.87 219.202 1801.5 220.766 1796.67 217.841L1788.83 213.089C1784.6 210.53 1782.9 205.371 1784.44 200.883L1763.15 187.984L1759.65 193.76C1756.1 199.623 1755.24 206.292 1756.68 212.47C1758.26 218.613 1762.11 224.127 1767.97 227.678L1793.4 243.084C1799.26 246.635 1805.93 247.493 1812.02 245.997C1818.25 244.467 1823.76 240.618 1827.31 234.756L1852.53 193.114Z" fill="#0B0B0B"/>
<path d="M1901.85 227.618L1878.91 260.155C1875.6 264.85 1869.2 265.885 1864.58 262.631L1857.09 257.344C1852.4 254.033 1851.3 247.712 1854.62 243.017L1877.56 210.48L1857.38 196.246L1829.33 236.032C1821.43 247.234 1824.07 262.545 1835.27 270.446L1859.57 287.585C1870.69 295.428 1886.08 292.84 1893.97 281.638L1922.03 241.852L1901.85 227.618Z" fill="#0B0B0B"/>
<path d="M1977.93 303.458C1982.32 298.066 1981.59 290.188 1976.2 285.795L1932.13 249.89C1926.74 245.497 1918.88 246.372 1914.48 251.764C1914.23 252.077 1913.97 252.39 1913.72 252.702L1910.73 256.375C1904.3 264.268 1907.65 271.807 1913.29 282.122L1930.56 311.021L1891.89 279.508L1884 289.198C1879.6 294.591 1880.4 302.39 1885.79 306.783L1929.86 342.689C1935.25 347.081 1943.05 346.285 1947.44 340.892C1947.63 340.658 1947.82 340.423 1948.01 340.189L1951.07 336.438C1957.43 328.623 1954.01 321.02 1948.45 310.77L1930.73 281.127L1970.04 313.149L1977.93 303.458Z" fill="#0B0B0B"/>
<path d="M2044.56 348.498L1991.09 298.403L1973.31 317.383L1990.52 333.507L1958.21 368.01L1977.19 385.788L2009.5 351.285L2026.78 367.478L2044.56 348.498Z" fill="#0B0B0B"/>
<path d="M2133.94 447.473L2098.22 460.324L2110.03 438.638L2116.35 426.97L2103.03 411.44L2090.54 415.917L2067.31 424.291L2085.44 390.937L2065.96 368.216L2028.45 437.187L2048.59 460.674L2070.5 452.77L2059.42 473.297L2079.57 496.783L2153.43 470.194L2133.94 447.473Z" fill="#0B0B0B"/>
<path d="M2181.66 508.224C2167.31 487.878 2141.86 481.164 2124.81 493.19C2107.77 505.216 2105.63 531.393 2119.98 551.739C2134.32 572.084 2159.75 578.939 2176.8 566.913C2193.85 554.887 2196.01 528.57 2181.66 508.224ZM2140.57 537.215C2135.57 530.131 2136.03 521.169 2141.72 517.161C2147.4 513.152 2156.08 515.664 2161.07 522.748C2166.07 529.832 2165.52 538.852 2159.84 542.86C2154.16 546.869 2145.56 544.298 2140.57 537.215Z" fill="#0B0B0B"/>
<path d="M2257.23 633.639L2219.75 639.642L2235.38 620.523L2243.75 610.23L2233.54 592.498L2220.44 594.581L2196.07 598.502L2220.07 569.089L2205.13 543.147L2155.48 603.965L2170.92 630.781L2193.91 627.077L2179.22 645.193L2194.66 672.009L2272.17 659.581L2257.23 633.639Z" fill="#0B0B0B"/>
<path d="M2248.2 705.728C2251.63 704.185 2254.95 703.615 2258.15 704.017C2261.44 704.453 2264.41 705.734 2267.06 707.858C2269.71 709.982 2271.82 712.791 2273.39 716.284C2274.98 719.839 2275.68 723.282 2275.49 726.612C2275.38 729.977 2274.38 733.003 2272.5 735.693C2270.7 738.416 2268.06 740.563 2264.56 742.134C2261.13 743.677 2257.77 744.231 2254.48 743.794C2251.28 743.392 2248.36 742.129 2245.71 740.004C2243.09 737.941 2240.98 735.133 2239.38 731.578C2237.81 728.084 2237.08 724.655 2237.19 721.291C2237.35 717.899 2238.37 714.828 2240.23 712.077C2242.11 709.388 2244.77 707.271 2248.2 705.728ZM2252.99 716.392C2250.85 717.357 2249.45 718.833 2248.8 720.822C2248.21 722.782 2248.41 724.866 2249.4 727.072C2250.36 729.218 2251.8 730.706 2253.72 731.537C2255.67 732.429 2257.69 732.407 2259.77 731.47C2261.92 730.505 2263.27 729.012 2263.83 726.99C2264.49 725.002 2264.33 722.935 2263.37 720.79C2262.38 718.583 2260.92 717.065 2259 716.234C2257.14 715.375 2255.14 715.428 2252.99 716.392Z" fill="#0B0B0B"/>
<path d="M2288.39 802.136C2291.95 800.907 2295.3 800.637 2298.46 801.325C2301.69 802.054 2304.54 803.596 2306.98 805.95C2309.43 808.303 2311.28 811.29 2312.53 814.91C2313.8 818.594 2314.19 822.086 2313.7 825.385C2313.29 828.726 2312.02 831.651 2309.91 834.161C2307.87 836.712 2305.05 838.613 2301.43 839.864C2297.87 841.092 2294.47 841.342 2291.24 840.612C2288.08 839.924 2285.28 838.403 2282.84 836.05C2280.41 833.76 2278.56 830.773 2277.29 827.089C2276.04 823.469 2275.62 819.988 2276.03 816.647C2276.5 813.284 2277.79 810.316 2279.88 807.743C2282 805.234 2284.84 803.365 2288.39 802.136ZM2292.21 813.187C2289.99 813.955 2288.46 815.3 2287.63 817.222C2286.87 819.122 2286.88 821.215 2287.67 823.501C2288.44 825.724 2289.74 827.336 2291.58 828.336C2293.44 829.399 2295.45 829.558 2297.61 828.812C2299.83 828.044 2301.31 826.678 2302.06 824.715C2302.89 822.793 2302.92 820.721 2302.15 818.498C2301.36 816.212 2300.05 814.568 2298.21 813.568C2296.43 812.546 2294.43 812.419 2292.21 813.187Z" fill="#0B0B0B"/>
<path d="M2318.51 897.328C2322.16 896.412 2325.53 896.435 2328.61 897.394C2331.77 898.402 2334.47 900.185 2336.7 902.743C2338.94 905.3 2340.52 908.436 2341.45 912.152C2342.4 915.932 2342.48 919.444 2341.7 922.688C2341 925.981 2339.49 928.785 2337.16 931.101C2334.91 933.466 2331.93 935.114 2328.22 936.045C2324.57 936.961 2321.16 936.914 2318 935.906C2314.92 934.946 2312.26 933.188 2310.03 930.63C2307.81 928.138 2306.23 925.002 2305.28 921.221C2304.35 917.506 2304.23 914.002 2304.93 910.709C2305.7 907.4 2307.23 904.555 2309.55 902.174C2311.87 899.858 2314.86 898.243 2318.51 897.328ZM2321.36 908.669C2319.07 909.241 2317.44 910.448 2316.45 912.291C2315.52 914.117 2315.35 916.203 2315.94 918.55C2316.51 920.831 2317.67 922.55 2319.41 923.706C2321.17 924.927 2323.16 925.26 2325.37 924.704C2327.66 924.132 2329.25 922.9 2330.16 921.009C2331.16 919.167 2331.37 917.105 2330.79 914.824C2330.21 912.477 2329.04 910.726 2327.3 909.57C2325.62 908.397 2323.64 908.097 2321.36 908.669Z" fill="#0B0B0B"/>
<path d="M2340.53 996.286C2344.24 995.694 2347.59 996.012 2350.58 997.238C2353.64 998.519 2356.17 1000.53 2358.17 1003.28C2360.17 1006.02 2361.47 1009.28 2362.08 1013.06C2362.69 1016.91 2362.46 1020.42 2361.4 1023.58C2360.42 1026.8 2358.66 1029.46 2356.14 1031.56C2353.7 1033.72 2350.58 1035.1 2346.8 1035.71C2343.09 1036.3 2339.7 1035.95 2336.64 1034.67C2333.65 1033.44 2331.16 1031.46 2329.16 1028.72C2327.17 1026.04 2325.86 1022.78 2325.25 1018.93C2324.65 1015.14 2324.84 1011.64 2325.83 1008.43C2326.88 1005.2 2328.66 1002.5 2331.17 1000.33C2333.69 998.225 2336.81 996.878 2340.53 996.286ZM2342.37 1007.83C2340.04 1008.2 2338.31 1009.26 2337.16 1011.01C2336.07 1012.75 2335.72 1014.81 2336.1 1017.2C2336.47 1019.52 2337.47 1021.34 2339.11 1022.64C2340.76 1024.01 2342.71 1024.52 2344.96 1024.16C2347.29 1023.79 2348.98 1022.7 2350.06 1020.9C2351.21 1019.15 2351.6 1017.11 2351.23 1014.79C2350.85 1012.4 2349.84 1010.56 2348.2 1009.25C2346.63 1007.94 2344.69 1007.46 2342.37 1007.83Z" fill="#0B0B0B"/>
</svg>
