<svg width="1396" height="21" viewBox="0 0 1396 21" fill="none" xmlns="http://www.w3.org/2000/svg">
<g clip-path="url(#clip0_686_116)">
<path d="M483.149 18.7399C481.933 18.7399 480.885 18.428 480.005 17.804C479.125 17.18 478.445 16.2999 477.965 15.1639C477.501 14.0119 477.269 12.6759 477.269 11.1559C477.269 9.87595 477.389 8.78795 477.629 7.89195C477.885 6.97995 478.229 6.22795 478.661 5.63595C479.093 5.04395 479.565 4.57995 480.077 4.24395C480.605 3.90795 481.125 3.67595 481.637 3.54795C482.165 3.41995 482.645 3.35595 483.077 3.35595C483.701 3.35595 484.301 3.46795 484.877 3.69195C485.453 3.89995 485.981 4.18795 486.461 4.55595C486.941 4.92395 487.317 5.37195 487.589 5.89995L486.293 7.05195L486.101 7.21995L485.981 7.07595C485.997 6.94795 485.981 6.82795 485.933 6.71595C485.885 6.60395 485.773 6.44395 485.597 6.23595C485.373 5.97995 485.141 5.77195 484.901 5.61195C484.661 5.43595 484.389 5.30795 484.085 5.22795C483.797 5.14795 483.469 5.10795 483.101 5.10795C482.685 5.10795 482.285 5.16395 481.901 5.27595C481.533 5.38795 481.189 5.58795 480.869 5.87595C480.549 6.14795 480.269 6.50795 480.029 6.95595C479.789 7.38795 479.605 7.93195 479.477 8.58795C479.349 9.22795 479.285 9.97995 479.285 10.8439C479.285 11.8519 479.373 12.7399 479.549 13.5079C479.725 14.2759 479.981 14.9239 480.317 15.4519C480.669 15.9639 481.077 16.3559 481.541 16.6279C482.021 16.8839 482.557 17.0119 483.149 17.0119C483.357 17.0119 483.573 17.004 483.797 16.988C484.037 16.956 484.269 16.9079 484.493 16.8439C484.733 16.7639 484.957 16.6679 485.165 16.5559C485.389 16.4439 485.597 16.3159 485.789 16.1719L485.789 12.8839L483.149 12.8839L483.149 11.1559L487.637 11.1559L487.637 17.18C486.933 17.708 486.197 18.1 485.429 18.356C484.677 18.612 483.917 18.7399 483.149 18.7399ZM490.685 18.4999L490.685 3.52395L500.045 3.52395L500.045 5.25195L492.629 5.25195L492.629 9.81195L498.749 9.81195L498.749 11.588L492.629 11.588L492.629 16.7719L499.973 16.7719L499.973 18.5L490.685 18.4999ZM507.029 18.5L507.029 5.29995L502.853 5.29995L502.853 3.52395L513.389 3.52395L513.389 5.29995L509.045 5.29995L509.045 18.5L507.029 18.5ZM532.709 18.5L532.709 5.29995L528.533 5.29995L528.533 3.52395L539.069 3.52395L539.069 5.29995L534.725 5.29995L534.725 18.5L532.709 18.5ZM546.725 18.764C545.557 18.764 544.565 18.468 543.749 17.876C542.949 17.284 542.333 16.412 541.901 15.26C541.485 14.108 541.277 12.716 541.277 11.084C541.277 9.48395 541.485 8.11595 541.901 6.97995C542.333 5.82795 542.949 4.94795 543.749 4.33995C544.565 3.71595 545.557 3.40395 546.725 3.40395C547.893 3.40395 548.877 3.71595 549.677 4.33995C550.477 4.94795 551.085 5.82795 551.501 6.97995C551.933 8.11595 552.149 9.48395 552.149 11.084C552.149 12.716 551.933 14.108 551.501 15.26C551.085 16.412 550.477 17.284 549.677 17.876C548.877 18.468 547.893 18.764 546.725 18.764ZM546.725 17.06C547.429 17.06 548.029 16.836 548.525 16.388C549.037 15.924 549.421 15.252 549.677 14.372C549.949 13.476 550.085 12.38 550.085 11.084C550.085 9.85195 549.949 8.79595 549.677 7.91595C549.421 7.01995 549.037 6.33195 548.525 5.85195C548.029 5.37195 547.429 5.13195 546.725 5.13195C546.021 5.13195 545.413 5.37195 544.901 5.85195C544.389 6.33195 543.997 7.01995 543.725 7.91595C543.469 8.79595 543.341 9.85195 543.341 11.084C543.341 12.38 543.469 13.476 543.725 14.372C543.997 15.252 544.389 15.924 544.901 16.388C545.413 16.836 546.021 17.06 546.725 17.06ZM570.557 11.252L569.429 12.548L569.429 18.5L567.341 18.5L567.341 3.54795L569.405 3.54795L569.645 3.54795L569.645 3.73995C569.549 3.83595 569.485 3.93995 569.453 4.05194C569.437 4.16395 569.429 4.35595 569.429 4.62795L569.429 10.172L575.261 3.42795C575.357 3.44394 575.461 3.45994 575.573 3.47594C575.701 3.49195 575.821 3.50795 575.933 3.52395C576.061 3.52395 576.189 3.53195 576.317 3.54795C576.445 3.54795 576.565 3.54795 576.677 3.54795L577.493 3.54794L572.045 9.93195L577.853 18.5L575.381 18.596L570.557 11.252ZM580.325 3.54794L582.341 3.54794L588.221 14.228L588.173 3.54794L590.045 3.54794L590.285 3.54794L590.285 3.73994C590.189 3.83594 590.125 3.93994 590.093 4.05194C590.077 4.16394 590.069 4.35594 590.069 4.62794L590.069 18.5L588.341 18.5L582.197 7.17194L582.197 18.5L580.325 18.5L580.325 3.54794ZM598.085 18.764C596.917 18.764 595.925 18.468 595.109 17.876C594.309 17.284 593.693 16.412 593.261 15.26C592.845 14.108 592.637 12.716 592.637 11.084C592.637 9.48394 592.845 8.11594 593.261 6.97994C593.693 5.82794 594.309 4.94794 595.109 4.33994C595.925 3.71594 596.917 3.40394 598.085 3.40394C599.253 3.40394 600.237 3.71594 601.037 4.33994C601.837 4.94794 602.445 5.82794 602.861 6.97994C603.293 8.11594 603.509 9.48394 603.509 11.084C603.509 12.716 603.293 14.108 602.861 15.26C602.445 16.412 601.837 17.284 601.037 17.876C600.237 18.468 599.253 18.764 598.085 18.764ZM598.085 17.06C598.789 17.06 599.389 16.836 599.885 16.388C600.397 15.924 600.781 15.252 601.037 14.372C601.309 13.476 601.445 12.38 601.445 11.084C601.445 9.85194 601.309 8.79594 601.037 7.91594C600.781 7.01994 600.397 6.33194 599.885 5.85194C599.389 5.37194 598.789 5.13194 598.085 5.13194C597.381 5.13194 596.773 5.37194 596.261 5.85194C595.749 6.33194 595.357 7.01994 595.085 7.91594C594.829 8.79594 594.701 9.85194 594.701 11.084C594.701 12.38 594.829 13.476 595.085 14.372C595.357 15.252 595.749 15.924 596.261 16.388C596.773 16.836 597.381 17.06 598.085 17.06ZM607.517 18.5L605.261 3.54795L607.085 3.54795L608.477 13.412L610.733 4.67595L611.549 4.67595L613.805 13.436L614.981 3.54795L616.661 3.54795L614.429 18.5L613.445 18.5L611.021 8.92395L608.549 18.5L607.517 18.5ZM631.493 18.5L631.493 3.54795L633.173 3.54795L636.605 10.724L640.085 3.52395L641.717 3.52395L641.717 18.5L639.869 18.5L639.869 7.50795L636.941 13.34L636.053 13.34L633.317 7.55595L633.317 18.5L631.493 18.5ZM644.765 18.5L644.765 3.52395L654.125 3.52395L654.125 5.25195L646.709 5.25195L646.709 9.81195L652.829 9.81195L652.829 11.588L646.709 11.588L646.709 16.772L654.053 16.772L654.053 18.5L644.765 18.5Z" fill="#FAFAFA"/>
<path d="M959.149 18.7399C957.933 18.7399 956.885 18.428 956.005 17.804C955.125 17.18 954.445 16.2999 953.965 15.1639C953.501 14.0119 953.269 12.6759 953.269 11.1559C953.269 9.87595 953.389 8.78795 953.629 7.89195C953.885 6.97995 954.229 6.22795 954.661 5.63595C955.093 5.04395 955.565 4.57995 956.077 4.24395C956.605 3.90795 957.125 3.67595 957.637 3.54795C958.165 3.41995 958.645 3.35595 959.077 3.35595C959.701 3.35595 960.301 3.46795 960.877 3.69195C961.453 3.89995 961.981 4.18795 962.461 4.55595C962.941 4.92395 963.317 5.37195 963.589 5.89995L962.293 7.05195L962.101 7.21995L961.981 7.07595C961.997 6.94795 961.981 6.82795 961.933 6.71595C961.885 6.60395 961.773 6.44395 961.597 6.23595C961.373 5.97995 961.141 5.77195 960.901 5.61195C960.661 5.43595 960.389 5.30795 960.085 5.22795C959.797 5.14795 959.469 5.10795 959.101 5.10795C958.685 5.10795 958.285 5.16395 957.901 5.27595C957.533 5.38795 957.189 5.58795 956.869 5.87595C956.549 6.14795 956.269 6.50795 956.029 6.95595C955.789 7.38795 955.605 7.93195 955.477 8.58795C955.349 9.22795 955.285 9.97995 955.285 10.8439C955.285 11.8519 955.373 12.7399 955.549 13.5079C955.725 14.2759 955.981 14.9239 956.317 15.4519C956.669 15.9639 957.077 16.3559 957.541 16.6279C958.021 16.8839 958.557 17.0119 959.149 17.0119C959.357 17.0119 959.573 17.004 959.797 16.988C960.037 16.956 960.269 16.9079 960.493 16.8439C960.733 16.7639 960.957 16.6679 961.165 16.5559C961.389 16.4439 961.597 16.3159 961.789 16.1719L961.789 12.8839L959.149 12.8839L959.149 11.1559L963.637 11.1559L963.637 17.18C962.933 17.708 962.197 18.1 961.429 18.356C960.677 18.612 959.917 18.7399 959.149 18.7399ZM966.685 18.4999L966.685 3.52395L976.045 3.52395L976.045 5.25195L968.629 5.25195L968.629 9.81195L974.749 9.81195L974.749 11.588L968.629 11.588L968.629 16.7719L975.973 16.7719L975.973 18.5L966.685 18.4999ZM983.029 18.5L983.029 5.29995L978.853 5.29995L978.853 3.52395L989.389 3.52395L989.389 5.29995L985.045 5.29995L985.045 18.5L983.029 18.5ZM1008.71 18.5L1008.71 5.29995L1004.53 5.29995L1004.53 3.52395L1015.07 3.52395L1015.07 5.29995L1010.73 5.29995L1010.73 18.5L1008.71 18.5ZM1022.73 18.764C1021.56 18.764 1020.56 18.468 1019.75 17.876C1018.95 17.284 1018.33 16.412 1017.9 15.26C1017.49 14.108 1017.28 12.716 1017.28 11.084C1017.28 9.48395 1017.49 8.11595 1017.9 6.97995C1018.33 5.82795 1018.95 4.94795 1019.75 4.33995C1020.56 3.71595 1021.56 3.40395 1022.73 3.40395C1023.89 3.40395 1024.88 3.71595 1025.68 4.33995C1026.48 4.94795 1027.09 5.82795 1027.5 6.97995C1027.93 8.11595 1028.15 9.48395 1028.15 11.084C1028.15 12.716 1027.93 14.108 1027.5 15.26C1027.09 16.412 1026.48 17.284 1025.68 17.876C1024.88 18.468 1023.89 18.764 1022.73 18.764ZM1022.73 17.06C1023.43 17.06 1024.03 16.836 1024.52 16.388C1025.04 15.924 1025.42 15.252 1025.68 14.372C1025.95 13.476 1026.09 12.38 1026.09 11.084C1026.09 9.85195 1025.95 8.79595 1025.68 7.91595C1025.42 7.01995 1025.04 6.33195 1024.52 5.85195C1024.03 5.37195 1023.43 5.13195 1022.73 5.13195C1022.02 5.13195 1021.41 5.37195 1020.9 5.85195C1020.39 6.33195 1020 7.01995 1019.73 7.91595C1019.47 8.79595 1019.34 9.85195 1019.34 11.084C1019.34 12.38 1019.47 13.476 1019.73 14.372C1020 15.252 1020.39 15.924 1020.9 16.388C1021.41 16.836 1022.02 17.06 1022.73 17.06ZM1046.56 11.252L1045.43 12.548L1045.43 18.5L1043.34 18.5L1043.34 3.54795L1045.4 3.54795L1045.65 3.54795L1045.65 3.73995C1045.55 3.83595 1045.49 3.93995 1045.45 4.05194C1045.44 4.16395 1045.43 4.35595 1045.43 4.62795L1045.43 10.172L1051.26 3.42795C1051.36 3.44394 1051.46 3.45994 1051.57 3.47594C1051.7 3.49195 1051.82 3.50795 1051.93 3.52395C1052.06 3.52395 1052.19 3.53195 1052.32 3.54795C1052.45 3.54795 1052.57 3.54795 1052.68 3.54795L1053.49 3.54794L1048.05 9.93195L1053.85 18.5L1051.38 18.596L1046.56 11.252ZM1056.33 3.54794L1058.34 3.54794L1064.22 14.228L1064.17 3.54794L1066.05 3.54794L1066.29 3.54794L1066.29 3.73994C1066.19 3.83594 1066.13 3.93994 1066.09 4.05194C1066.08 4.16394 1066.07 4.35594 1066.07 4.62794L1066.07 18.5L1064.34 18.5L1058.2 7.17194L1058.2 18.5L1056.33 18.5L1056.33 3.54794ZM1074.09 18.764C1072.92 18.764 1071.93 18.468 1071.11 17.876C1070.31 17.284 1069.69 16.412 1069.26 15.26C1068.85 14.108 1068.64 12.716 1068.64 11.084C1068.64 9.48394 1068.85 8.11594 1069.26 6.97994C1069.69 5.82794 1070.31 4.94794 1071.11 4.33994C1071.93 3.71594 1072.92 3.40394 1074.09 3.40394C1075.25 3.40394 1076.24 3.71594 1077.04 4.33994C1077.84 4.94794 1078.44 5.82794 1078.86 6.97994C1079.29 8.11594 1079.51 9.48394 1079.51 11.084C1079.51 12.716 1079.29 14.108 1078.86 15.26C1078.44 16.412 1077.84 17.284 1077.04 17.876C1076.24 18.468 1075.25 18.764 1074.09 18.764ZM1074.09 17.06C1074.79 17.06 1075.39 16.836 1075.89 16.388C1076.4 15.924 1076.78 15.252 1077.04 14.372C1077.31 13.476 1077.45 12.38 1077.45 11.084C1077.45 9.85194 1077.31 8.79594 1077.04 7.91594C1076.78 7.01994 1076.4 6.33194 1075.89 5.85194C1075.39 5.37194 1074.79 5.13194 1074.09 5.13194C1073.38 5.13194 1072.77 5.37194 1072.26 5.85194C1071.75 6.33194 1071.36 7.01994 1071.09 7.91594C1070.83 8.79594 1070.7 9.85194 1070.7 11.084C1070.7 12.38 1070.83 13.476 1071.09 14.372C1071.36 15.252 1071.75 15.924 1072.26 16.388C1072.77 16.836 1073.38 17.06 1074.09 17.06ZM1083.52 18.5L1081.26 3.54795L1083.09 3.54795L1084.48 13.412L1086.73 4.67595L1087.55 4.67595L1089.8 13.436L1090.98 3.54795L1092.66 3.54795L1090.43 18.5L1089.45 18.5L1087.02 8.92395L1084.55 18.5L1083.52 18.5ZM1107.49 18.5L1107.49 3.54795L1109.17 3.54795L1112.61 10.724L1116.09 3.52395L1117.72 3.52395L1117.72 18.5L1115.87 18.5L1115.87 7.50795L1112.94 13.34L1112.05 13.34L1109.32 7.55595L1109.32 18.5L1107.49 18.5ZM1120.77 18.5L1120.77 3.52395L1130.12 3.52395L1130.12 5.25195L1122.71 5.25195L1122.71 9.81195L1128.83 9.81195L1128.83 11.588L1122.71 11.588L1122.71 16.772L1130.05 16.772L1130.05 18.5L1120.77 18.5Z" fill="#FAFAFA"/>
<path d="M692.081 6.2472L695.577 4.2332L698.446 2.5802C698.877 2.32687 699.345 2.2002 699.852 2.2002L703.671 2.2002C704.912 2.2002 705.97 2.64353 706.844 3.5302C707.731 4.4042 708.174 5.46186 708.174 6.7032L708.174 15.5002L706.141 15.5002L706.141 6.7032C706.141 6.03187 705.9 5.45553 705.419 4.9742C704.938 4.4802 704.355 4.2332 703.671 4.2332L697.192 4.2332C696.685 4.2332 696.217 4.35987 695.786 4.6132L693.487 5.9432C693.044 6.19653 692.695 6.53853 692.442 6.9692C692.201 7.3872 692.081 7.85587 692.081 8.3752L692.081 15.5002L690.048 15.5002L690.048 2.2002L692.081 2.2002L692.081 6.2472ZM716.591 2.2002L723.127 2.2002C724.331 2.2002 725.439 2.49786 726.452 3.0932C727.478 3.68853 728.289 4.4992 728.884 5.5252C729.48 6.53853 729.777 7.64686 729.777 8.8502C729.777 9.24286 729.739 9.63553 729.663 10.0282C729.385 11.5862 728.625 12.8909 727.383 13.9422C726.155 14.9809 724.736 15.5002 723.127 15.5002L716.591 15.5002C714.97 15.5002 713.545 14.9809 712.316 13.9422C711.088 12.8909 710.334 11.5862 710.055 10.0282C709.979 9.63553 709.941 9.24287 709.941 8.8502C709.941 7.64687 710.239 6.53853 710.834 5.5252C711.43 4.4992 712.234 3.68853 713.247 3.0932C714.273 2.49786 715.388 2.2002 716.591 2.2002ZM716.591 13.4672L723.127 13.4672C723.811 13.4672 724.457 13.3215 725.065 13.0302C725.686 12.7389 726.212 12.3399 726.642 11.8332C727.073 11.3139 727.383 10.7312 727.573 10.0852C727.687 9.67986 727.744 9.2682 727.744 8.8502C727.744 8.2042 727.611 7.58986 727.345 7.0072C727.105 6.46253 726.775 5.9812 726.357 5.5632C725.939 5.1452 725.445 4.8222 724.875 4.5942C724.318 4.35353 723.735 4.2332 723.127 4.2332L716.591 4.2332C715.667 4.2332 714.818 4.49286 714.045 5.0122C713.285 5.51886 712.728 6.18387 712.373 7.0072C712.107 7.58987 711.974 8.2042 711.974 8.8502C711.974 9.2682 712.031 9.67987 712.145 10.0852C712.424 11.0732 712.975 11.8839 713.798 12.5172C714.622 13.1505 715.553 13.4672 716.591 13.4672ZM759.846 12.2322L757.718 13.4672L754.849 15.1202C754.419 15.3735 753.95 15.5002 753.443 15.5002L741.796 15.5002L741.796 2.2002L756.103 2.2002C757.155 2.2002 758.054 2.5802 758.801 3.3402C759.549 4.08753 759.922 4.98686 759.922 6.0382C759.922 6.20286 759.916 6.36753 759.903 6.5322L759.618 6.6842L757.3 8.0332C757.478 8.08386 757.649 8.15353 757.813 8.2422C758.13 8.40686 758.421 8.60953 758.687 8.8502C759.511 9.6102 759.922 10.5475 759.922 11.6622C759.922 11.8522 759.91 12.0359 759.884 12.2132L759.846 12.2322ZM757.889 11.6622C757.889 11.3582 757.82 11.0795 757.68 10.8262C757.541 10.5602 757.345 10.3449 757.091 10.1802C756.851 10.0155 756.585 9.9142 756.293 9.8762L756.293 9.8572C756.23 9.86986 756.167 9.8762 756.103 9.8762L748.94 9.8762C748.434 9.8762 747.965 9.99653 747.534 10.2372L745.235 11.5672C744.488 12.0105 744.038 12.6439 743.886 13.4672L756.103 13.4672C756.597 13.4672 757.015 13.2899 757.357 12.9352C757.712 12.5805 757.889 12.1562 757.889 11.6622ZM750.194 8.2042C750.625 7.95086 751.087 7.8242 751.581 7.8242L756.103 7.8242C756.597 7.8242 757.015 7.6532 757.357 7.3112C757.712 6.95653 757.889 6.5322 757.889 6.0382C757.889 5.5442 757.712 5.11986 757.357 4.7652C757.015 4.41053 756.597 4.2332 756.103 4.2332L743.829 4.2332L743.829 11.8712L747.325 9.8762L750.194 8.2042ZM764.035 2.2002L764.035 15.5002L762.002 15.5002L762.002 2.2002L764.035 2.2002ZM769.834 2.5802C770.252 2.32686 770.708 2.2002 771.202 2.2002L783.571 2.20019L783.571 4.23319L775.819 4.2332L775.819 15.5002L773.786 15.5002L773.786 4.2332L768.561 4.2332C768.067 4.2332 767.605 4.35986 767.174 4.6132L765.445 5.6012L765.445 5.1072L766.965 4.2332L769.834 2.5802ZM787.006 2.20019L787.006 15.5002L784.973 15.5002L784.973 2.20019L787.006 2.20019ZM791.627 6.2472L795.123 4.23319L797.992 2.5802C798.422 2.32686 798.891 2.20019 799.398 2.20019L803.217 2.20019C804.458 2.20019 805.516 2.64353 806.39 3.53019C807.276 4.40419 807.72 5.46186 807.72 6.70319L807.72 15.5002L805.687 15.5002L805.687 6.70319C805.687 6.03186 805.446 5.45553 804.965 4.97419C804.483 4.48019 803.901 4.23319 803.217 4.23319L796.738 4.23319C796.231 4.23319 795.762 4.35986 795.332 4.6132L793.033 5.9432C792.589 6.19653 792.241 6.53853 791.988 6.96919C791.747 7.3872 791.627 7.85586 791.627 8.37519L791.627 15.5002L789.594 15.5002L789.594 2.20019L791.627 2.20019L791.627 6.2472ZM827.613 2.20019L827.613 4.23319L816.137 4.23319C815.213 4.23319 814.364 4.49286 813.591 5.01219C812.831 5.51886 812.274 6.18386 811.919 7.00719C811.653 7.58986 811.52 8.20419 811.52 8.85019C811.52 9.28086 811.577 9.69253 811.691 10.0852C811.97 11.0732 812.521 11.8839 813.344 12.5172C814.168 13.1505 815.099 13.4672 816.137 13.4672L824.098 13.4672C824.605 13.4672 825.074 13.3405 825.504 13.0872L825.58 13.0492L825.58 9.87619L817.562 9.87619C817.068 9.87619 816.6 9.99653 816.156 10.2372L814.427 11.2442L814.427 10.7312L815.947 9.87619L818.816 8.20419C819.247 7.95086 819.716 7.82419 820.222 7.82419L827.613 7.82419L827.613 15.5002L825.58 15.5002L825.58 13.5432L822.863 15.1202C822.42 15.3735 821.951 15.5002 821.457 15.5002L816.137 15.5002C814.516 15.5002 813.091 14.9809 811.862 13.9422C810.634 12.8909 809.88 11.5862 809.601 10.0282C809.525 9.63553 809.487 9.24286 809.487 8.85019C809.487 7.64686 809.785 6.53853 810.38 5.52519C810.976 4.49919 811.78 3.68853 812.793 3.09319C813.819 2.49786 814.934 2.20019 816.137 2.20019L827.613 2.20019ZM850.568 9.87619L843.994 9.85719C843.322 9.85719 842.74 10.1042 842.246 10.5982C841.764 11.0795 841.524 11.6622 841.524 12.3462L841.524 13.0492L841.6 13.0872C842.03 13.3405 842.499 13.4672 843.006 13.4672L857.617 13.4672L857.617 15.5002L845.666 15.5002C845.159 15.5002 844.69 15.3735 844.26 15.1202L841.524 13.5432L841.391 13.4672L839.491 12.3652L839.491 12.3462C839.491 12.1942 839.497 12.0422 839.51 11.8902C839.586 11.1555 839.826 10.4779 840.232 9.85719C840.65 9.23653 841.188 8.74253 841.847 8.37519C842.505 8.00786 843.221 7.82419 843.994 7.82419L853.209 7.82419C853.386 7.82419 853.551 7.77986 853.703 7.69119L853.817 7.63419C854.121 7.45686 854.374 7.24786 854.577 7.00719C854.792 6.75386 854.95 6.47519 855.052 6.17119C855.166 5.86719 855.223 5.54419 855.223 5.20219L855.223 4.23319L839.491 4.23319L839.491 2.20019L853.19 2.20019C853.696 2.20019 854.165 2.32686 854.596 2.58019L857.256 4.11919L857.256 5.58219C857.256 5.96219 857.091 6.24719 856.762 6.43719L855.223 7.33019L855.185 7.34919L854.349 7.82419L852.126 9.11619L851.746 9.34419L851.043 9.74319C850.891 9.81919 850.732 9.86353 850.568 9.87619ZM865.252 2.20019L871.788 2.20019C872.991 2.20019 874.099 2.49786 875.113 3.09319C876.139 3.68852 876.949 4.49919 877.545 5.52519C878.14 6.53852 878.438 7.64686 878.438 8.85019C878.438 9.24286 878.4 9.63552 878.324 10.0282C878.045 11.5862 877.285 12.8909 876.044 13.9422C874.815 14.9809 873.396 15.5002 871.788 15.5002L865.252 15.5002C863.63 15.5002 862.205 14.9809 860.977 13.9422C859.748 12.8909 858.994 11.5862 858.716 10.0282C858.64 9.63553 858.602 9.24286 858.602 8.85019C858.602 7.64686 858.899 6.53853 859.495 5.52519C860.09 4.49919 860.894 3.68853 861.908 3.09319C862.934 2.49786 864.048 2.20019 865.252 2.20019ZM865.252 13.4672L871.788 13.4672C872.472 13.4672 873.118 13.3215 873.726 13.0302C874.346 12.7389 874.872 12.3399 875.303 11.8332C875.733 11.3139 876.044 10.7312 876.234 10.0852C876.348 9.67986 876.405 9.26819 876.405 8.85019C876.405 8.20419 876.272 7.58986 876.006 7.00719C875.765 6.46252 875.436 5.98119 875.018 5.56319C874.6 5.14519 874.106 4.82219 873.536 4.59419C872.978 4.35352 872.396 4.23319 871.788 4.23319L865.252 4.23319C864.327 4.23319 863.478 4.49286 862.706 5.01219C861.946 5.51886 861.388 6.18386 861.034 7.00719C860.768 7.58986 860.635 8.20419 860.635 8.85019C860.635 9.26819 860.692 9.67986 860.806 10.0852C861.084 11.0732 861.635 11.8839 862.459 12.5172C863.282 13.1505 864.213 13.4672 865.252 13.4672ZM882.396 6.24719L885.892 4.23319L888.761 2.58019C889.192 2.32686 889.661 2.20019 890.167 2.20019L893.986 2.20019C895.228 2.20019 896.285 2.64352 897.159 3.53019C898.046 4.40419 898.489 5.46186 898.489 6.70319L898.489 15.5002L896.456 15.5002L896.456 6.70319C896.456 6.03186 896.216 5.45552 895.734 4.97419C895.253 4.48019 894.67 4.23319 893.986 4.23319L887.507 4.23319C887.001 4.23319 886.532 4.35986 886.101 4.61319L883.802 5.94319C883.359 6.19652 883.011 6.53852 882.757 6.96919C882.517 7.38719 882.396 7.85586 882.396 8.37519L882.396 15.5002L880.363 15.5002L880.363 2.20019L882.396 2.20019L882.396 6.24719ZM918.383 2.2002L918.383 4.2332L906.907 4.23319C905.982 4.23319 905.134 4.49286 904.361 5.01219C903.601 5.51886 903.037 6.18386 902.67 7.00719C902.417 7.58986 902.29 8.20419 902.29 8.85019C902.29 9.26819 902.347 9.67986 902.461 10.0852C902.6 10.5665 902.809 11.0099 903.088 11.4152L905.786 9.87619L908.655 8.20419C909.086 7.95086 909.548 7.82419 910.042 7.82419L918.383 7.82419L918.383 9.85719L907.401 9.85719C906.894 9.85719 906.426 9.98386 905.995 10.2372L904.285 11.2252C904.032 11.3772 903.899 11.5989 903.886 11.8902C903.873 12.1815 903.981 12.4095 904.209 12.5742C905.02 13.1695 905.919 13.4672 906.907 13.4672L914.868 13.4672C915.375 13.4672 915.843 13.3405 916.274 13.0872L916.35 13.0492L918.383 11.8712L918.383 12.3652L916.502 13.4672L913.633 15.1202C913.19 15.3735 912.721 15.5002 912.227 15.5002L906.907 15.5002C906.109 15.5002 905.336 15.3609 904.589 15.0822C903.854 14.8035 903.196 14.4235 902.613 13.9422C902.043 13.4482 901.555 12.8655 901.15 12.1942C900.757 11.5102 900.498 10.7882 900.371 10.0282C900.295 9.63552 900.257 9.24286 900.257 8.85019C900.257 7.64686 900.555 6.53852 901.15 5.52519C901.745 4.49919 902.55 3.68852 903.563 3.09319C904.589 2.49786 905.704 2.20019 906.907 2.20019L918.383 2.2002Z" fill="#BFFF07"/>
<path d="M1168.08 6.2472L1171.58 4.2332L1174.45 2.5802C1174.88 2.32687 1175.34 2.2002 1175.85 2.2002L1179.67 2.2002C1180.91 2.2002 1181.97 2.64353 1182.84 3.5302C1183.73 4.4042 1184.17 5.46186 1184.17 6.7032L1184.17 15.5002L1182.14 15.5002L1182.14 6.7032C1182.14 6.03187 1181.9 5.45553 1181.42 4.9742C1180.94 4.4802 1180.35 4.2332 1179.67 4.2332L1173.19 4.2332C1172.68 4.2332 1172.22 4.35987 1171.79 4.6132L1169.49 5.9432C1169.04 6.19653 1168.69 6.53853 1168.44 6.9692C1168.2 7.3872 1168.08 7.85587 1168.08 8.3752L1168.08 15.5002L1166.05 15.5002L1166.05 2.2002L1168.08 2.2002L1168.08 6.2472ZM1192.59 2.2002L1199.13 2.2002C1200.33 2.2002 1201.44 2.49786 1202.45 3.0932C1203.48 3.68853 1204.29 4.4992 1204.88 5.5252C1205.48 6.53853 1205.78 7.64686 1205.78 8.8502C1205.78 9.24286 1205.74 9.63553 1205.66 10.0282C1205.38 11.5862 1204.62 12.8909 1203.38 13.9422C1202.15 14.9809 1200.74 15.5002 1199.13 15.5002L1192.59 15.5002C1190.97 15.5002 1189.54 14.9809 1188.32 13.9422C1187.09 12.8909 1186.33 11.5862 1186.05 10.0282C1185.98 9.63553 1185.94 9.24287 1185.94 8.8502C1185.94 7.64687 1186.24 6.53853 1186.83 5.5252C1187.43 4.4992 1188.23 3.68853 1189.25 3.0932C1190.27 2.49786 1191.39 2.2002 1192.59 2.2002ZM1192.59 13.4672L1199.13 13.4672C1199.81 13.4672 1200.46 13.3215 1201.06 13.0302C1201.69 12.7389 1202.21 12.3399 1202.64 11.8332C1203.07 11.3139 1203.38 10.7312 1203.57 10.0852C1203.69 9.67986 1203.74 9.2682 1203.74 8.8502C1203.74 8.2042 1203.61 7.58986 1203.34 7.0072C1203.1 6.46253 1202.77 5.9812 1202.36 5.5632C1201.94 5.1452 1201.44 4.8222 1200.87 4.5942C1200.32 4.35353 1199.73 4.2332 1199.13 4.2332L1192.59 4.2332C1191.67 4.2332 1190.82 4.49286 1190.04 5.0122C1189.28 5.51886 1188.73 6.18387 1188.37 7.0072C1188.11 7.58987 1187.97 8.2042 1187.97 8.8502C1187.97 9.2682 1188.03 9.67987 1188.14 10.0852C1188.42 11.0732 1188.97 11.8839 1189.8 12.5172C1190.62 13.1505 1191.55 13.4672 1192.59 13.4672ZM1235.85 12.2322L1233.72 13.4672L1230.85 15.1202C1230.42 15.3735 1229.95 15.5002 1229.44 15.5002L1217.8 15.5002L1217.8 2.2002L1232.1 2.2002C1233.15 2.2002 1234.05 2.5802 1234.8 3.3402C1235.55 4.08753 1235.92 4.98686 1235.92 6.0382C1235.92 6.20286 1235.92 6.36753 1235.9 6.5322L1235.62 6.6842L1233.3 8.0332C1233.48 8.08386 1233.65 8.15353 1233.81 8.2422C1234.13 8.40686 1234.42 8.60953 1234.69 8.8502C1235.51 9.6102 1235.92 10.5475 1235.92 11.6622C1235.92 11.8522 1235.91 12.0359 1235.88 12.2132L1235.85 12.2322ZM1233.89 11.6622C1233.89 11.3582 1233.82 11.0795 1233.68 10.8262C1233.54 10.5602 1233.34 10.3449 1233.09 10.1802C1232.85 10.0155 1232.58 9.9142 1232.29 9.8762L1232.29 9.8572C1232.23 9.86986 1232.17 9.8762 1232.1 9.8762L1224.94 9.8762C1224.43 9.8762 1223.96 9.99653 1223.53 10.2372L1221.23 11.5672C1220.49 12.0105 1220.04 12.6439 1219.89 13.4672L1232.1 13.4672C1232.6 13.4672 1233.01 13.2899 1233.36 12.9352C1233.71 12.5805 1233.89 12.1562 1233.89 11.6622ZM1226.19 8.2042C1226.62 7.95086 1227.09 7.8242 1227.58 7.8242L1232.1 7.8242C1232.6 7.8242 1233.01 7.6532 1233.36 7.3112C1233.71 6.95653 1233.89 6.5322 1233.89 6.0382C1233.89 5.5442 1233.71 5.11986 1233.36 4.7652C1233.01 4.41053 1232.6 4.2332 1232.1 4.2332L1219.83 4.2332L1219.83 11.8712L1223.32 9.8762L1226.19 8.2042ZM1240.03 2.2002L1240.03 15.5002L1238 15.5002L1238 2.2002L1240.03 2.2002ZM1245.83 2.5802C1246.25 2.32686 1246.71 2.2002 1247.2 2.2002L1259.57 2.20019L1259.57 4.23319L1251.82 4.2332L1251.82 15.5002L1249.79 15.5002L1249.79 4.2332L1244.56 4.2332C1244.07 4.2332 1243.6 4.35986 1243.17 4.6132L1241.44 5.6012L1241.44 5.1072L1242.96 4.2332L1245.83 2.5802ZM1263.01 2.20019L1263.01 15.5002L1260.97 15.5002L1260.97 2.20019L1263.01 2.20019ZM1267.63 6.2472L1271.12 4.23319L1273.99 2.5802C1274.42 2.32686 1274.89 2.20019 1275.4 2.20019L1279.22 2.20019C1280.46 2.20019 1281.52 2.64353 1282.39 3.53019C1283.28 4.40419 1283.72 5.46186 1283.72 6.70319L1283.72 15.5002L1281.69 15.5002L1281.69 6.70319C1281.69 6.03186 1281.45 5.45553 1280.96 4.97419C1280.48 4.48019 1279.9 4.23319 1279.22 4.23319L1272.74 4.23319C1272.23 4.23319 1271.76 4.35986 1271.33 4.6132L1269.03 5.9432C1268.59 6.19653 1268.24 6.53853 1267.99 6.96919C1267.75 7.3872 1267.63 7.85586 1267.63 8.37519L1267.63 15.5002L1265.59 15.5002L1265.59 2.20019L1267.63 2.20019L1267.63 6.2472ZM1303.61 2.20019L1303.61 4.23319L1292.14 4.23319C1291.21 4.23319 1290.36 4.49286 1289.59 5.01219C1288.83 5.51886 1288.27 6.18386 1287.92 7.00719C1287.65 7.58986 1287.52 8.20419 1287.52 8.85019C1287.52 9.28086 1287.58 9.69253 1287.69 10.0852C1287.97 11.0732 1288.52 11.8839 1289.34 12.5172C1290.17 13.1505 1291.1 13.4672 1292.14 13.4672L1300.1 13.4672C1300.6 13.4672 1301.07 13.3405 1301.5 13.0872L1301.58 13.0492L1301.58 9.87619L1293.56 9.87619C1293.07 9.87619 1292.6 9.99653 1292.16 10.2372L1290.43 11.2442L1290.43 10.7312L1291.95 9.87619L1294.82 8.20419C1295.25 7.95086 1295.72 7.82419 1296.22 7.82419L1303.61 7.82419L1303.61 15.5002L1301.58 15.5002L1301.58 13.5432L1298.86 15.1202C1298.42 15.3735 1297.95 15.5002 1297.46 15.5002L1292.14 15.5002C1290.52 15.5002 1289.09 14.9809 1287.86 13.9422C1286.63 12.8909 1285.88 11.5862 1285.6 10.0282C1285.52 9.63553 1285.49 9.24286 1285.49 8.85019C1285.49 7.64686 1285.78 6.53853 1286.38 5.52519C1286.98 4.49919 1287.78 3.68853 1288.79 3.09319C1289.82 2.49786 1290.93 2.20019 1292.14 2.20019L1303.61 2.20019ZM1326.57 9.87619L1319.99 9.85719C1319.32 9.85719 1318.74 10.1042 1318.25 10.5982C1317.76 11.0795 1317.52 11.6622 1317.52 12.3462L1317.52 13.0492L1317.6 13.0872C1318.03 13.3405 1318.5 13.4672 1319.01 13.4672L1333.62 13.4672L1333.62 15.5002L1321.67 15.5002C1321.16 15.5002 1320.69 15.3735 1320.26 15.1202L1317.52 13.5432L1317.39 13.4672L1315.49 12.3652L1315.49 12.3462C1315.49 12.1942 1315.5 12.0422 1315.51 11.8902C1315.59 11.1555 1315.83 10.4779 1316.23 9.85719C1316.65 9.23653 1317.19 8.74253 1317.85 8.37519C1318.51 8.00786 1319.22 7.82419 1319.99 7.82419L1329.21 7.82419C1329.39 7.82419 1329.55 7.77986 1329.7 7.69119L1329.82 7.63419C1330.12 7.45686 1330.37 7.24786 1330.58 7.00719C1330.79 6.75386 1330.95 6.47519 1331.05 6.17119C1331.17 5.86719 1331.22 5.54419 1331.22 5.20219L1331.22 4.23319L1315.49 4.23319L1315.49 2.20019L1329.19 2.20019C1329.7 2.20019 1330.16 2.32686 1330.6 2.58019L1333.26 4.11919L1333.26 5.58219C1333.26 5.96219 1333.09 6.24719 1332.76 6.43719L1331.22 7.33019L1331.18 7.34919L1330.35 7.82419L1328.13 9.11619L1327.75 9.34419L1327.04 9.74319C1326.89 9.81919 1326.73 9.86353 1326.57 9.87619ZM1341.25 2.20019L1347.79 2.20019C1348.99 2.20019 1350.1 2.49786 1351.11 3.09319C1352.14 3.68852 1352.95 4.49919 1353.54 5.52519C1354.14 6.53852 1354.44 7.64686 1354.44 8.85019C1354.44 9.24286 1354.4 9.63552 1354.32 10.0282C1354.04 11.5862 1353.28 12.8909 1352.04 13.9422C1350.81 14.9809 1349.4 15.5002 1347.79 15.5002L1341.25 15.5002C1339.63 15.5002 1338.21 14.9809 1336.98 13.9422C1335.75 12.8909 1334.99 11.5862 1334.72 10.0282C1334.64 9.63553 1334.6 9.24286 1334.6 8.85019C1334.6 7.64686 1334.9 6.53853 1335.49 5.52519C1336.09 4.49919 1336.89 3.68853 1337.91 3.09319C1338.93 2.49786 1340.05 2.20019 1341.25 2.20019ZM1341.25 13.4672L1347.79 13.4672C1348.47 13.4672 1349.12 13.3215 1349.73 13.0302C1350.35 12.7389 1350.87 12.3399 1351.3 11.8332C1351.73 11.3139 1352.04 10.7312 1352.23 10.0852C1352.35 9.67986 1352.4 9.26819 1352.4 8.85019C1352.4 8.20419 1352.27 7.58986 1352.01 7.00719C1351.76 6.46252 1351.44 5.98119 1351.02 5.56319C1350.6 5.14519 1350.11 4.82219 1349.54 4.59419C1348.98 4.35352 1348.4 4.23319 1347.79 4.23319L1341.25 4.23319C1340.33 4.23319 1339.48 4.49286 1338.71 5.01219C1337.95 5.51886 1337.39 6.18386 1337.03 7.00719C1336.77 7.58986 1336.63 8.20419 1336.63 8.85019C1336.63 9.26819 1336.69 9.67986 1336.81 10.0852C1337.08 11.0732 1337.64 11.8839 1338.46 12.5172C1339.28 13.1505 1340.21 13.4672 1341.25 13.4672ZM1358.4 6.24719L1361.89 4.23319L1364.76 2.58019C1365.19 2.32686 1365.66 2.20019 1366.17 2.20019L1369.99 2.20019C1371.23 2.20019 1372.29 2.64352 1373.16 3.53019C1374.05 4.40419 1374.49 5.46186 1374.49 6.70319L1374.49 15.5002L1372.46 15.5002L1372.46 6.70319C1372.46 6.03186 1372.22 5.45552 1371.73 4.97419C1371.25 4.48019 1370.67 4.23319 1369.99 4.23319L1363.51 4.23319C1363 4.23319 1362.53 4.35986 1362.1 4.61319L1359.8 5.94319C1359.36 6.19652 1359.01 6.53852 1358.76 6.96919C1358.52 7.38719 1358.4 7.85586 1358.4 8.37519L1358.4 15.5002L1356.36 15.5002L1356.36 2.20019L1358.4 2.20019L1358.4 6.24719ZM1394.38 2.2002L1394.38 4.2332L1382.91 4.23319C1381.98 4.23319 1381.13 4.49286 1380.36 5.01219C1379.6 5.51886 1379.04 6.18386 1378.67 7.00719C1378.42 7.58986 1378.29 8.20419 1378.29 8.85019C1378.29 9.26819 1378.35 9.67986 1378.46 10.0852C1378.6 10.5665 1378.81 11.0099 1379.09 11.4152L1381.79 9.87619L1384.65 8.20419C1385.09 7.95086 1385.55 7.82419 1386.04 7.82419L1394.38 7.82419L1394.38 9.85719L1383.4 9.85719C1382.89 9.85719 1382.43 9.98386 1381.99 10.2372L1380.28 11.2252C1380.03 11.3772 1379.9 11.5989 1379.89 11.8902C1379.87 12.1815 1379.98 12.4095 1380.21 12.5742C1381.02 13.1695 1381.92 13.4672 1382.91 13.4672L1390.87 13.4672C1391.37 13.4672 1391.84 13.3405 1392.27 13.0872L1392.35 13.0492L1394.38 11.8712L1394.38 12.3652L1392.5 13.4672L1389.63 15.1202C1389.19 15.3735 1388.72 15.5002 1388.23 15.5002L1382.91 15.5002C1382.11 15.5002 1381.34 15.3609 1380.59 15.0822C1379.85 14.8035 1379.2 14.4235 1378.61 13.9422C1378.04 13.4482 1377.56 12.8655 1377.15 12.1942C1376.76 11.5102 1376.5 10.7882 1376.37 10.0282C1376.29 9.63552 1376.26 9.24286 1376.26 8.85019C1376.26 7.64686 1376.55 6.53852 1377.15 5.52519C1377.75 4.49919 1378.55 3.68852 1379.56 3.09319C1380.59 2.49786 1381.7 2.20019 1382.91 2.20019L1394.38 2.2002Z" fill="#BFFF07"/>
<path d="M7.15112 18.7399C5.93112 18.7399 4.8811 18.428 4.0011 17.804C3.1211 17.18 2.44106 16.2999 1.96106 15.1639C1.50106 14.0119 1.27112 12.6759 1.27112 11.1559C1.27112 9.87595 1.3911 8.78795 1.6311 7.89195C1.8811 6.97995 2.23113 6.22795 2.66113 5.63595C3.09113 5.04395 3.56105 4.57995 4.08105 4.24395C4.60105 3.90795 5.12111 3.67595 5.64111 3.54795C6.16111 3.41995 6.64105 3.35595 7.08105 3.35595C7.70105 3.35595 8.3011 3.46795 8.8811 3.69195C9.4511 3.89995 9.98106 4.18795 10.4611 4.55595C10.9411 4.92395 11.3211 5.37195 11.5911 5.89995L10.2911 7.05195L10.1011 7.21995L9.98108 7.07595C10.0011 6.94795 9.98115 6.82795 9.93115 6.71595C9.88115 6.60395 9.77107 6.44395 9.60107 6.23595C9.37107 5.97995 9.14112 5.77195 8.90112 5.61195C8.66112 5.43595 8.39105 5.30795 8.08105 5.22795C7.80105 5.14795 7.47107 5.10795 7.10107 5.10795C6.68107 5.10795 6.28112 5.16395 5.90112 5.27595C5.53112 5.38795 5.19109 5.58795 4.87109 5.87595C4.55109 6.14795 4.27113 6.50795 4.03113 6.95595C3.79113 7.38795 3.60108 7.93195 3.48108 8.58795C3.35108 9.22795 3.28113 9.97995 3.28113 10.8439C3.28113 11.8519 3.37115 12.7399 3.55115 13.5079C3.72115 14.2759 3.98104 14.9239 4.32104 15.4519C4.67104 15.9639 5.08114 16.3559 5.54114 16.6279C6.02114 16.8839 6.56112 17.0119 7.15112 17.0119C7.36112 17.0119 7.57115 17.004 7.80115 16.988C8.04115 16.956 8.27109 16.9079 8.49109 16.8439C8.73109 16.7639 8.96113 16.6679 9.16113 16.5559C9.39113 16.4439 9.60114 16.3159 9.79114 16.1719L9.79114 12.8839L7.15112 12.8839L7.15112 11.1559L11.6411 11.1559L11.6411 17.18C10.9311 17.708 10.2012 18.1 9.43115 18.356C8.68115 18.612 7.92112 18.7399 7.15112 18.7399ZM14.6812 18.4999L14.6812 3.52395L24.0411 3.52395L24.0411 5.25195L16.6311 5.25195L16.6311 9.81195L22.7511 9.81195L22.7511 11.588L16.6311 11.588L16.6311 16.7719L23.9711 16.7719L23.9711 18.5L14.6812 18.4999ZM31.0311 18.5L31.0311 5.29995L26.8511 5.29995L26.8511 3.52395L37.3911 3.52395L37.3911 5.29995L33.0411 5.29995L33.0411 18.5L31.0311 18.5ZM56.7111 18.5L56.7111 5.29995L52.5311 5.29995L52.5311 3.52395L63.071 3.52395L63.071 5.29995L58.7211 5.29995L58.7211 18.5L56.7111 18.5ZM70.7211 18.764C69.5611 18.764 68.5611 18.468 67.7511 17.876C66.9511 17.284 66.3311 16.412 65.9011 15.26C65.4811 14.108 65.2811 12.716 65.2811 11.084C65.2811 9.48395 65.4811 8.11595 65.9011 6.97995C66.3311 5.82795 66.9511 4.94795 67.7511 4.33995C68.5611 3.71595 69.5611 3.40395 70.7211 3.40395C71.8911 3.40395 72.8812 3.71595 73.6812 4.33995C74.4812 4.94795 75.0811 5.82795 75.5011 6.97995C75.9311 8.11595 76.1511 9.48395 76.1511 11.084C76.1511 12.716 75.9311 14.108 75.5011 15.26C75.0811 16.412 74.4812 17.284 73.6812 17.876C72.8812 18.468 71.8911 18.764 70.7211 18.764ZM70.7211 17.06C71.4311 17.06 72.0311 16.836 72.5211 16.388C73.0411 15.924 73.4212 15.252 73.6812 14.372C73.9512 13.476 74.0811 12.38 74.0811 11.084C74.0811 9.85195 73.9512 8.79595 73.6812 7.91595C73.4212 7.01995 73.0411 6.33195 72.5211 5.85195C72.0311 5.37195 71.4311 5.13195 70.7211 5.13195C70.0211 5.13195 69.4111 5.37195 68.9011 5.85195C68.3911 6.33195 68.0011 7.01995 67.7211 7.91595C67.4711 8.79595 67.3411 9.85195 67.3411 11.084C67.3411 12.38 67.4711 13.476 67.7211 14.372C68.0011 15.252 68.3911 15.924 68.9011 16.388C69.4111 16.836 70.0211 17.06 70.7211 17.06ZM94.5612 11.252L93.4312 12.548L93.4312 18.5L91.3411 18.5L91.3411 3.54795L93.4011 3.54795L93.6411 3.54795L93.6411 3.73995C93.5511 3.83595 93.481 3.93995 93.451 4.05194C93.441 4.16395 93.4312 4.35595 93.4312 4.62795L93.4312 10.172L99.2611 3.42795C99.3611 3.44394 99.461 3.45994 99.571 3.47594C99.701 3.49195 99.8212 3.50795 99.9312 3.52395C100.061 3.52395 100.191 3.53195 100.321 3.54795C100.441 3.54795 100.561 3.54795 100.681 3.54795L101.491 3.54794L96.0411 9.93195L101.851 18.5L99.3811 18.596L94.5612 11.252ZM104.321 3.54794L106.341 3.54794L112.221 14.228L112.171 3.54794L114.041 3.54794L114.281 3.54794L114.281 3.73994C114.191 3.83594 114.121 3.93994 114.091 4.05194C114.081 4.16394 114.071 4.35594 114.071 4.62794L114.071 18.5L112.341 18.5L106.201 7.17194L106.201 18.5L104.321 18.5L104.321 3.54794ZM122.081 18.764C120.921 18.764 119.921 18.468 119.111 17.876C118.311 17.284 117.691 16.412 117.261 15.26C116.841 14.108 116.641 12.716 116.641 11.084C116.641 9.48394 116.841 8.11594 117.261 6.97994C117.691 5.82794 118.311 4.94794 119.111 4.33994C119.921 3.71594 120.921 3.40394 122.081 3.40394C123.251 3.40394 124.241 3.71594 125.041 4.33994C125.841 4.94794 126.441 5.82794 126.861 6.97994C127.291 8.11594 127.511 9.48394 127.511 11.084C127.511 12.716 127.291 14.108 126.861 15.26C126.441 16.412 125.841 17.284 125.041 17.876C124.241 18.468 123.251 18.764 122.081 18.764ZM122.081 17.06C122.791 17.06 123.391 16.836 123.881 16.388C124.401 15.924 124.781 15.252 125.041 14.372C125.311 13.476 125.441 12.38 125.441 11.084C125.441 9.85194 125.311 8.79594 125.041 7.91594C124.781 7.01994 124.401 6.33194 123.881 5.85194C123.391 5.37194 122.791 5.13194 122.081 5.13194C121.381 5.13194 120.771 5.37194 120.261 5.85194C119.751 6.33194 119.361 7.01994 119.081 7.91594C118.831 8.79594 118.701 9.85194 118.701 11.084C118.701 12.38 118.831 13.476 119.081 14.372C119.361 15.252 119.751 15.924 120.261 16.388C120.771 16.836 121.381 17.06 122.081 17.06ZM131.521 18.5L129.261 3.54795L131.081 3.54795L132.481 13.412L134.731 4.67595L135.551 4.67595L137.801 13.436L138.981 3.54795L140.661 3.54795L138.431 18.5L137.441 18.5L135.021 8.92395L132.551 18.5L131.521 18.5ZM155.491 18.5L155.491 3.54795L157.171 3.54795L160.601 10.724L164.081 3.52395L165.721 3.52395L165.721 18.5L163.871 18.5L163.871 7.50795L160.941 13.34L160.051 13.34L157.321 7.55595L157.321 18.5L155.491 18.5ZM168.761 18.5L168.761 3.52395L178.121 3.52395L178.121 5.25195L170.711 5.25195L170.711 9.81195L176.831 9.81195L176.831 11.588L170.711 11.588L170.711 16.772L178.051 16.772L178.051 18.5L168.761 18.5Z" fill="#FAFAFA"/>
<path d="M216.079 6.24671L219.579 4.23271L222.449 2.57971C222.879 2.32638 223.349 2.19971 223.849 2.19971L227.669 2.19971C228.909 2.19971 229.969 2.64304 230.839 3.52971C231.729 4.40371 232.169 5.46137 232.169 6.70271L232.169 15.4997L230.139 15.4997L230.139 6.70271C230.139 6.03138 229.899 5.45504 229.419 4.97371C228.939 4.47971 228.359 4.23271 227.669 4.23271L221.189 4.23271C220.689 4.23271 220.219 4.35938 219.789 4.61271L217.489 5.94271C217.039 6.19604 216.699 6.53804 216.439 6.96871C216.199 7.38671 216.079 7.85538 216.079 8.37471L216.079 15.4997L214.049 15.4997L214.049 2.19971L216.079 2.19971L216.079 6.24671ZM240.589 2.19971L247.129 2.19971C248.329 2.19971 249.439 2.49737 250.449 3.09271C251.479 3.68804 252.289 4.49871 252.889 5.52471C253.479 6.53804 253.779 7.64637 253.779 8.84971C253.779 9.24237 253.739 9.63504 253.659 10.0277C253.389 11.5857 252.629 12.8904 251.379 13.9417C250.159 14.9804 248.739 15.4997 247.129 15.4997L240.589 15.4997C238.969 15.4997 237.549 14.9804 236.319 13.9417C235.089 12.8904 234.339 11.5857 234.059 10.0277C233.979 9.63504 233.939 9.24238 233.939 8.84971C233.939 7.64638 234.239 6.53804 234.839 5.52471C235.429 4.49871 236.239 3.68804 237.249 3.09271C238.269 2.49737 239.389 2.19971 240.589 2.19971ZM240.589 13.4667L247.129 13.4667C247.809 13.4667 248.459 13.321 249.069 13.0297C249.689 12.7384 250.209 12.3394 250.639 11.8327C251.069 11.3134 251.379 10.7307 251.569 10.0847C251.689 9.67937 251.749 9.26771 251.749 8.84971C251.749 8.20371 251.609 7.58937 251.349 7.00671C251.109 6.46204 250.779 5.98071 250.359 5.56271C249.939 5.14471 249.449 4.82171 248.879 4.59371C248.319 4.35304 247.739 4.23271 247.129 4.23271L240.589 4.23271C239.669 4.23271 238.819 4.49237 238.049 5.01171C237.289 5.51837 236.729 6.18338 236.369 7.00671C236.109 7.58938 235.979 8.20371 235.979 8.84971C235.979 9.26771 236.029 9.67938 236.149 10.0847C236.429 11.0727 236.979 11.8834 237.799 12.5167C238.619 13.15 239.549 13.4667 240.589 13.4667ZM283.849 12.2317L281.719 13.4667L278.849 15.1197C278.419 15.373 277.949 15.4997 277.439 15.4997L265.799 15.4997L265.799 2.19971L280.099 2.19971C281.159 2.19971 282.059 2.57971 282.799 3.33971C283.549 4.08704 283.919 4.98637 283.919 6.03771C283.919 6.20237 283.919 6.36704 283.899 6.53171L283.619 6.68371L281.299 8.03271C281.479 8.08337 281.649 8.15304 281.809 8.24171C282.129 8.40637 282.419 8.60904 282.689 8.84971C283.509 9.60971 283.919 10.547 283.919 11.6617C283.919 11.8517 283.909 12.0354 283.889 12.2127L283.849 12.2317ZM281.889 11.6617C281.889 11.3577 281.819 11.079 281.679 10.8257C281.539 10.5597 281.349 10.3444 281.089 10.1797C280.849 10.015 280.589 9.91371 280.289 9.87571L280.289 9.85671C280.229 9.86937 280.169 9.87571 280.099 9.87571L272.939 9.87571C272.429 9.87571 271.969 9.99604 271.539 10.2367L269.239 11.5667C268.489 12.01 268.039 12.6434 267.889 13.4667L280.099 13.4667C280.599 13.4667 281.019 13.2894 281.359 12.9347C281.709 12.58 281.889 12.1557 281.889 11.6617ZM274.199 8.20371C274.629 7.95037 275.089 7.82371 275.579 7.82371L280.099 7.82371C280.599 7.82371 281.019 7.65271 281.359 7.31071C281.709 6.95604 281.889 6.53171 281.889 6.03771C281.889 5.54371 281.709 5.11937 281.359 4.76471C281.019 4.41004 280.599 4.23271 280.099 4.23271L267.829 4.23271L267.829 11.8707L271.329 9.87571L274.199 8.20371ZM288.039 2.19971L288.039 15.4997L285.999 15.4997L285.999 2.19971L288.039 2.19971ZM293.839 2.57971C294.249 2.32637 294.709 2.19971 295.199 2.19971L307.569 2.1997L307.569 4.2327L299.819 4.23271L299.819 15.4997L297.789 15.4997L297.789 4.23271L292.559 4.23271C292.069 4.23271 291.609 4.35937 291.179 4.61271L289.449 5.60071L289.449 5.10671L290.969 4.23271L293.839 2.57971ZM311.009 2.1997L311.009 15.4997L308.969 15.4997L308.969 2.1997L311.009 2.1997ZM315.629 6.24671L319.119 4.2327L321.989 2.57971C322.419 2.32637 322.889 2.1997 323.399 2.1997L327.219 2.1997C328.459 2.1997 329.519 2.64304 330.389 3.5297C331.279 4.4037 331.719 5.46137 331.719 6.7027L331.719 15.4997L329.689 15.4997L329.689 6.7027C329.689 6.03137 329.449 5.45504 328.969 4.9737C328.479 4.4797 327.899 4.2327 327.219 4.2327L320.739 4.2327C320.229 4.2327 319.759 4.35937 319.329 4.61271L317.029 5.94271C316.589 6.19604 316.239 6.53804 315.989 6.9687C315.749 7.38671 315.629 7.85537 315.629 8.3747L315.629 15.4997L313.589 15.4997L313.589 2.1997L315.629 2.1997L315.629 6.24671ZM351.609 2.1997L351.609 4.2327L340.139 4.2327C339.209 4.2327 338.359 4.49237 337.589 5.0117C336.829 5.51837 336.269 6.18337 335.919 7.0067C335.649 7.58937 335.519 8.2037 335.519 8.8497C335.519 9.28037 335.579 9.69204 335.689 10.0847C335.969 11.0727 336.519 11.8834 337.349 12.5167C338.169 13.15 339.099 13.4667 340.139 13.4667L348.099 13.4667C348.609 13.4667 349.069 13.34 349.509 13.0867L349.579 13.0487L349.579 9.8757L341.559 9.8757C341.069 9.8757 340.599 9.99604 340.159 10.2367L338.429 11.2437L338.429 10.7307L339.949 9.8757L342.819 8.2037C343.249 7.95037 343.719 7.8237 344.219 7.8237L351.609 7.8237L351.609 15.4997L349.579 15.4997L349.579 13.5427L346.859 15.1197C346.419 15.373 345.949 15.4997 345.459 15.4997L340.139 15.4997C338.519 15.4997 337.089 14.9804 335.859 13.9417C334.629 12.8904 333.879 11.5857 333.599 10.0277C333.529 9.63504 333.489 9.24237 333.489 8.8497C333.489 7.64637 333.789 6.53804 334.379 5.5247C334.979 4.4987 335.779 3.68804 336.789 3.0927C337.819 2.49737 338.929 2.1997 340.139 2.1997L351.609 2.1997ZM374.569 9.8757L367.989 9.8567C367.319 9.8567 366.739 10.1037 366.249 10.5977C365.769 11.079 365.519 11.6617 365.519 12.3457L365.519 13.0487L365.599 13.0867C366.029 13.34 366.499 13.4667 367.009 13.4667L381.619 13.4667L381.619 15.4997L369.669 15.4997C369.159 15.4997 368.689 15.373 368.259 15.1197L365.519 13.5427L365.389 13.4667L363.489 12.3647L363.489 12.3457C363.489 12.1937 363.499 12.0417 363.509 11.8897C363.589 11.155 363.829 10.4774 364.229 9.8567C364.649 9.23604 365.189 8.74204 365.849 8.3747C366.509 8.00737 367.219 7.8237 367.989 7.8237L377.209 7.8237C377.389 7.8237 377.549 7.77937 377.699 7.6907L377.819 7.6337C378.119 7.45637 378.379 7.24737 378.579 7.0067C378.789 6.75337 378.949 6.4747 379.049 6.1707C379.169 5.8667 379.219 5.5437 379.219 5.2017L379.219 4.2327L363.489 4.2327L363.489 2.1997L377.189 2.1997C377.699 2.1997 378.169 2.32637 378.599 2.5797L381.259 4.1187L381.259 5.5817C381.259 5.9617 381.089 6.2467 380.759 6.4367L379.219 7.3297L379.189 7.3487L378.349 7.8237L376.129 9.1157L375.749 9.3437L375.039 9.7427C374.889 9.8187 374.729 9.86304 374.569 9.8757ZM389.249 2.1997L395.788 2.1997C396.991 2.19971 398.099 2.49737 399.113 3.09271C400.139 3.68804 400.949 4.49871 401.545 5.52471C402.14 6.53804 402.438 7.64637 402.438 8.8497C402.438 9.24237 402.4 9.63504 402.324 10.0277C402.045 11.5857 401.285 12.8904 400.044 13.9417C398.815 14.9804 397.396 15.4997 395.788 15.4997L389.249 15.4997C387.629 15.4997 386.209 14.9804 384.979 13.9417C383.749 12.8904 382.999 11.5857 382.719 10.0277C382.639 9.63504 382.599 9.24237 382.599 8.8497C382.599 7.64637 382.899 6.53804 383.499 5.5247C384.089 4.4987 384.899 3.68804 385.909 3.0927C386.929 2.49737 388.049 2.1997 389.249 2.1997ZM389.249 13.4667L395.788 13.4667C396.472 13.4667 397.118 13.321 397.726 13.0297C398.346 12.7384 398.872 12.3394 399.303 11.8327C399.733 11.3134 400.044 10.7307 400.234 10.0847C400.348 9.67937 400.405 9.2677 400.405 8.8497C400.405 8.2037 400.272 7.58938 400.006 7.00671C399.765 6.46204 399.436 5.98071 399.018 5.56271C398.6 5.14471 398.106 4.8217 397.536 4.5937C396.978 4.35303 396.396 4.23271 395.788 4.2327L389.249 4.2327C388.329 4.2327 387.479 4.49237 386.709 5.0117C385.949 5.51837 385.389 6.18337 385.029 7.0067C384.769 7.58937 384.639 8.2037 384.639 8.8497C384.639 9.2677 384.689 9.67937 384.809 10.0847C385.089 11.0727 385.639 11.8834 386.459 12.5167C387.279 13.15 388.209 13.4667 389.249 13.4667ZM406.396 6.24671L409.892 4.23271L412.761 2.57971C413.192 2.32638 413.661 2.19971 414.167 2.19971L417.986 2.19971C419.228 2.19971 420.285 2.64304 421.159 3.52971C422.046 4.40371 422.489 5.46138 422.489 6.70271L422.489 15.4997L420.456 15.4997L420.456 6.70271C420.456 6.03138 420.216 5.45504 419.734 4.97371C419.253 4.47971 418.67 4.23271 417.986 4.23271L411.507 4.23271C411.001 4.23271 410.532 4.35938 410.101 4.61271L407.802 5.94271C407.359 6.19604 407.011 6.53804 406.757 6.96871C406.517 7.38671 406.396 7.85538 406.396 8.37471L406.396 15.4997L404.363 15.4997L404.363 2.19971L406.396 2.19971L406.396 6.24671ZM442.383 2.19971L442.383 4.23271L430.907 4.23271C429.982 4.23271 429.134 4.49238 428.361 5.01171C427.601 5.51838 427.037 6.18338 426.67 7.00671C426.417 7.58938 426.29 8.20371 426.29 8.84971C426.29 9.26771 426.347 9.67938 426.461 10.0847C426.6 10.566 426.809 11.0094 427.088 11.4147L429.786 9.87571L432.655 8.20371C433.086 7.95038 433.548 7.82371 434.042 7.82371L442.383 7.82371L442.383 9.85671L431.401 9.85671C430.894 9.85671 430.426 9.98338 429.995 10.2367L428.285 11.2247C428.032 11.3767 427.899 11.5984 427.886 11.8897C427.873 12.181 427.981 12.409 428.209 12.5737C429.02 13.169 429.919 13.4667 430.907 13.4667L438.868 13.4667C439.375 13.4667 439.843 13.34 440.274 13.0867L440.35 13.0487L442.383 11.8707L442.383 12.3647L440.502 13.4667L437.633 15.1197C437.19 15.373 436.721 15.4997 436.227 15.4997L430.907 15.4997C430.109 15.4997 429.336 15.3604 428.589 15.0817C427.854 14.803 427.196 14.423 426.613 13.9417C426.043 13.4477 425.555 12.865 425.15 12.1937C424.757 11.5097 424.498 10.7877 424.371 10.0277C424.295 9.63504 424.257 9.24238 424.257 8.84971C424.257 7.64638 424.555 6.53804 425.15 5.52471C425.745 4.49871 426.55 3.68804 427.563 3.09271C428.589 2.49738 429.704 2.19971 430.907 2.19971L442.383 2.19971Z" fill="#BFFF07"/>
</g>
<defs>
<clipPath id="clip0_686_116">
<rect width="20" height="1395" fill="white" transform="translate(1395.5 0.5) rotate(90)"/>
</clipPath>
</defs>
</svg>
