<svg width="48" height="48" viewBox="0 0 48 48" fill="none" xmlns="http://www.w3.org/2000/svg">
<path d="M7.5 5.5C6.96957 5.5 6.46086 5.71071 6.08579 6.08579C5.71071 6.46086 5.5 6.96957 5.5 7.5V40.5C5.5 41.0304 5.71071 41.5391 6.08579 41.9142C6.46086 42.2893 6.96957 42.5 7.5 42.5H40.5C41.0304 42.5 41.5391 42.2893 41.9142 41.9142C42.2893 41.5391 42.5 41.0304 42.5 40.5V7.5C42.5 6.96957 42.2893 6.46086 41.9142 6.08579C41.5391 5.71071 41.0304 5.5 40.5 5.5H7.5Z" stroke="#BFFF07" stroke-width="2" stroke-linecap="round" stroke-linejoin="round"/>
<path d="M32.62 31.047C33.1968 30.7121 33.6747 30.2304 34.005 29.6509C34.005 29.6509 33.1968 30.7121 32.62 31.047ZM32.62 31.047C32.0432 31.3819 31.388 31.5582 30.721 31.5579M30.721 31.5579C29.7187 31.5579 28.7573 31.1598 28.0485 30.4511M30.721 31.5579C29.7169 31.5579 28.7573 31.1598 28.0485 30.4511M28.0485 30.4511C27.3396 29.7424 26.9413 28.7812 26.941 27.7789M28.0485 30.4511C27.3396 29.7424 26.941 28.7977 26.941 27.7789M26.941 27.7789C26.941 26.8198 26.941 25.3229 26.941 25.3229C26.941 24.3204 27.3392 23.3589 28.0481 22.65C28.757 21.9411 29.7185 21.5429 30.721 21.5429C31.7233 21.5432 32.6845 21.9415 33.3932 22.6504C34.1019 23.3592 34.5 24.3205 34.5 25.3229V26.5509H26.942C26.942 26.5509 26.9414 27.2993 26.941 27.7789ZM19.736 23.9999C20.7277 24.016 21.6734 24.4213 22.369 25.1284C23.0647 25.8354 23.4545 26.7875 23.4545 27.7794C23.4545 28.7713 23.0647 29.7234 22.369 30.4304C21.6734 31.1375 20.7277 31.5428 19.736 31.5589H13.5V16.4419H19.736C20.7232 16.4646 21.6623 16.8727 22.3525 17.5789C23.0426 18.2852 23.4291 19.2334 23.4291 20.2209C23.4291 21.2084 23.0426 22.1566 22.3525 22.8628C21.6623 23.5691 20.7232 23.9772 19.736 23.9999ZM19.736 23.9999H13.5M26.942 16.4419H34.5" stroke="#BFFF07" stroke-width="2" stroke-linecap="round" stroke-linejoin="round"/>
</svg>
