<svg width="48" height="48" viewBox="0 0 48 48" fill="none" xmlns="http://www.w3.org/2000/svg">
<path d="M35.38 10.4599C34.9469 10.454 34.5218 10.5767 34.1584 10.8124C33.795 11.0481 33.5097 11.3862 33.3385 11.7841C33.1673 12.182 33.1179 12.6216 33.1966 13.0476C33.2753 13.4735 33.4785 13.8665 33.7805 14.1769C34.0826 14.4874 34.4699 14.7013 34.8935 14.7916C35.3171 14.8819 35.758 14.8446 36.1603 14.6843C36.5627 14.5241 36.9086 14.2482 37.1542 13.8914C37.3997 13.5346 37.534 13.113 37.5399 12.6799V12.6199C37.5347 12.0487 37.3055 11.5023 36.9015 11.0983C36.4976 10.6944 35.9512 10.4651 35.38 10.4599Z" stroke="#BFFF07" stroke-width="2" stroke-linecap="round" stroke-linejoin="round"/>
<path d="M40.55 5.49991H7.45C6.92828 5.51296 6.43233 5.72941 6.068 6.10308C5.70367 6.47675 5.49984 6.97803 5.5 7.49991V40.5999C5.5 41.1303 5.71071 41.639 6.08579 42.0141C6.46086 42.3892 6.96957 42.5999 7.5 42.5999H40.6C41.1304 42.5999 41.6391 42.3892 42.0142 42.0141C42.3893 41.639 42.6 41.1303 42.6 40.5999V7.44991C42.5935 7.18724 42.5353 6.92842 42.4288 6.68825C42.3222 6.44807 42.1694 6.23124 41.979 6.05015C41.7887 5.86906 41.5645 5.72726 41.3193 5.63284C41.0741 5.53843 40.8127 5.49326 40.55 5.49991V5.49991Z" stroke="#BFFF07" stroke-width="2" stroke-linecap="round" stroke-linejoin="round"/>
<path d="M23.9988 15.72C22.3611 15.72 20.7603 16.2056 19.3986 17.1154C18.037 18.0252 16.9757 19.3184 16.349 20.8314C15.7223 22.3443 15.5584 24.0092 15.8779 25.6153C16.1973 27.2215 16.9859 28.6968 18.1439 29.8548C19.3019 31.0128 20.7772 31.8014 22.3834 32.1209C23.9896 32.4404 25.6544 32.2764 27.1674 31.6497C28.6803 31.023 29.9735 29.9617 30.8833 28.6001C31.7931 27.2385 32.2788 25.6376 32.2788 24V24C32.2788 21.804 31.4064 19.6979 29.8536 18.1451C28.3008 16.5923 26.1947 15.72 23.9988 15.72V15.72Z" stroke="#BFFF07" stroke-width="2" stroke-linecap="round" stroke-linejoin="round"/>
</svg>
