<svg width="48" height="48" viewBox="0 0 48 48" fill="none" xmlns="http://www.w3.org/2000/svg">
<path d="M7.5 5.5C6.96957 5.5 6.46086 5.71071 6.08579 6.08579C5.71071 6.46086 5.5 6.96957 5.5 7.5V40.5C5.5 41.0304 5.71071 41.5391 6.08579 41.9142C6.46086 42.2893 6.96957 42.5 7.5 42.5H40.5C41.0304 42.5 41.5391 42.2893 41.9142 41.9142C42.2893 41.5391 42.5 41.0304 42.5 40.5V7.5C42.5 6.96957 42.2893 6.46086 41.9142 6.08579C41.5391 5.71071 41.0304 5.5 40.5 5.5H7.5Z" stroke="#BFFF07" stroke-width="2" stroke-linecap="round" stroke-linejoin="round"/>
<path d="M28.835 21.8077C28.835 21.8077 27.2133 26.5835 27.0808 26.9778C26.6725 23.9848 26.2602 20.9921 25.8442 18C23.0808 18 21.6033 19.8467 20.8225 21.796L18.685 26.9896C18.6725 26.6171 18.385 21.8523 18.385 21.8523C18.215 19.4641 15.885 18.0102 14 18.0102L16.2825 31C19.1775 30.9883 20.7383 29.1525 21.5558 27.2032C21.5558 27.2032 23.2975 22.9792 23.3692 22.7875C23.3817 22.9674 24.6192 30.9992 24.6192 30.9992C27.5258 30.9992 29.0875 29.2761 29.9275 27.3949L34 18.011C31.1292 18.011 29.6158 19.8467 28.835 21.807V21.8077Z" fill="#BFFF07"/>
</svg>
