<svg width="48" height="48" viewBox="0 0 48 48" fill="none" xmlns="http://www.w3.org/2000/svg">
<path d="M9.5 13C23.187 26.574 24.325 26.09 38.5 13" stroke="#BFFF07" stroke-width="2" stroke-linecap="round" stroke-linejoin="round"/>
<path d="M8 7C7.46957 7 6.96086 7.21071 6.58579 7.58579C6.21071 7.96086 6 8.46957 6 9V42C6 42.5304 6.21071 43.0391 6.58579 43.4142C6.96086 43.7893 7.46957 44 8 44H41C41.5304 44 42.0391 43.7893 42.4142 43.4142C42.7893 43.0391 43 42.5304 43 42V9C43 8.46957 42.7893 7.96086 42.4142 7.58579C42.0391 7.21071 41.5304 7 41 7H8Z" stroke="#BFFF07" stroke-width="2" stroke-linecap="round" stroke-linejoin="round"/>
</svg>
