<svg width="30" height="30" viewBox="0 0 30 30" fill="none" xmlns="http://www.w3.org/2000/svg">
<path d="M23.9062 27.625H10.7812C9.79498 27.625 8.8491 27.2332 8.1517 26.5358C7.4543 25.8384 7.0625 24.8925 7.0625 23.9062V10.7812C7.0625 9.79498 7.4543 8.8491 8.1517 8.1517C8.8491 7.4543 9.79498 7.0625 10.7812 7.0625H23.9062C24.8925 7.0625 25.8384 7.4543 26.5358 8.1517C27.2332 8.8491 27.625 9.79498 27.625 10.7812V23.9062C27.625 24.8925 27.2332 25.8384 26.5358 26.5358C25.8384 27.2332 24.8925 27.625 23.9062 27.625Z" fill="#0B0B0B"/>
<path d="M9.375 4.6875H23.1961C22.9044 3.86557 22.3656 3.15403 21.6535 2.65048C20.9414 2.14693 20.0909 1.87605 19.2188 1.875H6.09375C4.97487 1.875 3.90181 2.31947 3.11064 3.11064C2.31947 3.90181 1.875 4.97487 1.875 6.09375V19.2188C1.87605 20.0909 2.14693 20.9414 2.65048 21.6535C3.15403 22.3656 3.86557 22.9044 4.6875 23.1961V9.375C4.6875 8.1318 5.18136 6.93951 6.06044 6.06044C6.93951 5.18136 8.1318 4.6875 9.375 4.6875Z" fill="#0B0B0B"/>
</svg>
